<svg width="503" height="120" viewBox="0 0 503 120" fill="none" xmlns="http://www.w3.org/2000/svg">
<path d="M172.837 61.9646H164.17V27.1221H154.007V18.4596H183V27.1221H172.837V61.9646Z" fill="#2394C8"/>
<path d="M189.778 18.4596H210.028C213.409 18.4596 215.856 19.4702 217.351 21.4434C218.882 23.3684 219.667 26.5205 219.667 30.8759V36.4584C219.667 39.9234 219.219 42.6184 218.322 44.5434C217.463 46.4202 216.08 47.6715 214.138 48.2971L220.19 61.9646H210.775L205.171 48.8746H198.446V61.9646H189.778V18.4596ZM210.999 30.8759C210.999 28.3734 210.028 27.1221 208.085 27.1221H198.446V40.2121H208.085C210.028 40.2121 210.999 38.9609 210.999 36.4584V30.8759Z" fill="#2394C8"/>
<path d="M254.661 61.9646H227.91V18.4596H254.661V27.1221H236.578V35.4959H250.85V44.2546H236.578V53.3021H254.661V61.9646Z" fill="#2394C8"/>
<path d="M288.69 61.9646H261.939V18.4596H288.69V27.1221H270.607V35.4959H284.879V44.2546H270.607V53.3021H288.69V61.9646Z" fill="#2394C8"/>
<path d="M328.025 48.8746L336.244 18.4596H345.659L332.882 61.9646H323.243L310.465 18.4596H319.88L328.025 48.8746Z" fill="#2394C8"/>
<path d="M367.393 61.9646H349.982V53.3021H354.391V27.1221H349.982V18.4596H367.393V27.1221H363.059V53.3021H367.393V61.9646Z" fill="#2394C8"/>
<path d="M374.082 52.9171C382.9 53.5668 388.877 53.8796 392.016 53.8796C392.763 53.8796 393.323 53.639 393.734 53.1096C394.183 52.5321 394.407 51.7621 394.407 50.7996V45.2171H383.348C379.948 45.2171 377.482 44.2305 375.95 42.2334C374.4 40.2602 373.634 37.084 373.634 32.7046V30.8759C373.634 26.5205 374.4 23.3684 375.95 21.4434C377.482 19.4702 379.948 18.4596 383.348 18.4596H400.235V27.1221H385.216C383.311 27.1221 382.377 28.3734 382.377 30.8759V32.1271C382.377 34.6296 383.311 35.8809 385.216 35.8809H393.958C397.097 35.8809 399.376 36.8434 400.833 38.7684C402.327 40.6452 403.075 43.5809 403.075 47.6234V50.7996C403.075 54.8421 402.327 57.8259 400.833 59.7509C399.376 61.6277 397.097 62.5421 393.958 62.5421C392.315 62.5421 390.559 62.494 388.728 62.4459L384.245 62.2534C380.994 61.9887 377.613 61.724 374.082 61.3871V52.9171Z" fill="#2394C8"/>
<path d="M426.763 61.9646H409.353V53.3021H413.761V27.1221H409.353V18.4596H426.763V27.1221H422.429V53.3021H426.763V61.9646Z" fill="#2394C8"/>
<path d="M456.168 30.2984C456.168 27.7959 455.215 26.5446 453.328 26.5446H445.109C443.166 26.5446 442.195 27.7959 442.195 30.2984V50.1259C442.195 52.6284 443.166 53.8796 445.109 53.8796H453.328C455.215 53.8796 456.168 52.6284 456.168 50.1259V30.2984ZM464.91 50.1259C464.91 54.5052 464.126 57.6815 462.594 59.6546C461.044 61.5796 458.596 62.5421 455.271 62.5421H443.166C439.766 62.5421 437.301 61.5796 435.769 59.6546C434.274 57.6815 433.527 54.5052 433.527 50.1259V30.2984C433.527 25.943 434.274 22.7668 435.769 20.7696C437.301 18.7965 439.766 17.7859 443.166 17.7859H455.271C458.596 17.7859 461.044 18.7965 462.594 20.7696C464.126 22.7668 464.91 25.943 464.91 30.2984V50.1259Z" fill="#2394C8"/>
<path d="M502.554 61.9646H493.363L481.781 35.8809V61.9646H473.113V18.4596H482.229L493.886 44.5434V18.4596H502.554V61.9646Z" fill="#2394C8"/>
<path d="M160.688 97.7899H157.176L161.883 81.5237H165.545L170.327 97.7899H166.815L165.993 94.9024H161.435L160.688 97.7899ZM162.257 91.9187H165.171L163.751 86.4324L162.257 91.9187Z" fill="#F3F7FF"/>
<path d="M175.756 81.5237H183.378C184.611 81.5237 185.507 81.9087 186.068 82.6787C186.666 83.4005 186.964 84.5796 186.964 86.2399V88.2612C186.964 89.5605 186.778 90.5471 186.441 91.2449C186.142 91.9668 185.619 92.448 184.872 92.6887L187.114 97.7899H183.602L181.584 92.8812H179.044V97.7899H175.756V81.5237ZM183.677 86.2399C183.677 85.2774 183.322 84.7962 182.631 84.7962H179.044V89.7049H182.631C183.322 89.7049 183.677 89.2237 183.677 88.2612V86.2399Z" fill="#F3F7FF"/>
<path d="M199.448 97.7899H196.235V84.7962H192.424V81.5237H203.259V84.7962H199.448V97.7899Z" fill="#F3F7FF"/>
<path d="M215.061 97.7899H208.56V94.5174H210.204V84.7962H208.56V81.5237H215.061V84.7962H213.417V94.5174H215.061V97.7899Z" fill="#F3F7FF"/>
<path d="M224.526 97.7899H221.238V81.5237H231.251V84.7962H224.526V88.6462H229.831V91.9187H224.526V97.7899Z" fill="#F3F7FF"/>
<path d="M243.068 97.7899H236.567V94.5174H238.211V84.7962H236.567V81.5237H243.068V84.7962H241.424V94.5174H243.068V97.7899Z" fill="#F3F7FF"/>
<path d="M259.038 97.5974C256.348 97.838 254.107 97.9824 252.313 97.9824C251.155 97.9824 250.314 97.6455 249.773 96.9237C249.212 96.2258 248.951 95.143 248.951 93.6512V86.2399C248.951 84.5796 249.212 83.4005 249.773 82.6787C250.37 81.9087 251.286 81.5237 252.537 81.5237H259.038V84.7962H253.21C252.5 84.7962 252.164 85.2774 252.164 86.2399V93.6512C252.164 93.988 252.238 94.2768 252.388 94.5174C252.575 94.7099 252.799 94.8062 253.06 94.8062C253.303 94.8062 253.583 94.8062 253.882 94.8062C254.181 94.758 254.48 94.7099 254.779 94.7099C255.115 94.7099 255.452 94.7099 255.75 94.7099C256.087 94.6618 256.516 94.6137 257.021 94.6137C257.562 94.5655 258.235 94.4933 259.038 94.4212V97.5974Z" fill="#F3F7FF"/>
<path d="M270.989 97.7899H264.488V94.5174H266.132V84.7962H264.488V81.5237H270.989V84.7962H269.345V94.5174H270.989V97.7899Z" fill="#F3F7FF"/>
<path d="M279.483 97.7899H275.971L280.678 81.5237H284.34L289.122 97.7899H285.61L284.788 94.9024H280.23L279.483 97.7899ZM281.052 91.9187H283.966L282.547 86.4324L281.052 91.9187Z" fill="#F3F7FF"/>
<path d="M297.839 94.5174H304.415V97.7899H294.551V81.5237H297.839V94.5174Z" fill="#F3F7FF"/>
<path d="M326.192 97.7899H319.691V94.5174H321.335V84.7962H319.691V81.5237H326.192V84.7962H324.548V94.5174H326.192V97.7899Z" fill="#F3F7FF"/>
<path d="M343.354 97.7899H339.991L335.657 88.0687V97.7899H332.369V81.5237H335.807L340.14 91.3412V81.5237H343.354V97.7899Z" fill="#F3F7FF"/>
<path d="M356.242 97.7899H353.029V84.7962H349.218V81.5237H360.053V84.7962H356.242V97.7899Z" fill="#F3F7FF"/>
<path d="M375.889 97.7899H365.877V81.5237H375.889V84.7962H369.164V87.9724H374.47V91.1487H369.164V94.5174H375.889V97.7899Z" fill="#F3F7FF"/>
<path d="M385.197 94.5174H391.772V97.7899H381.909V81.5237H385.197V94.5174Z" fill="#F3F7FF"/>
<path d="M400.868 94.5174H407.444V97.7899H397.581V81.5237H400.868V94.5174Z" fill="#F3F7FF"/>
<path d="M419.23 97.7899H412.729V94.5174H414.373V84.7962H412.729V81.5237H419.23V84.7962H417.586V94.5174H419.23V97.7899Z" fill="#F3F7FF"/>
<path d="M436.242 97.4049C433.44 97.7899 430.862 97.9824 428.471 97.9824C427.313 97.9824 426.472 97.6455 425.93 96.9237C425.37 96.2258 425.108 95.143 425.108 93.6512V86.2399C425.108 84.5796 425.37 83.4005 425.93 82.6787C426.528 81.9087 427.443 81.5237 428.695 81.5237H435.196V84.7962H429.368C428.658 84.7962 428.321 85.2774 428.321 86.2399V93.6512C428.321 93.988 428.396 94.2768 428.546 94.5174C428.732 94.7099 428.957 94.8062 429.218 94.8062C430.6 94.8062 431.871 94.758 433.029 94.6137V91.3412H430.638V88.5499H436.242V97.4049Z" fill="#F3F7FF"/>
<path d="M452.625 97.7899H442.612V81.5237H452.625V84.7962H445.9V87.9724H451.205V91.1487H445.9V94.5174H452.625V97.7899Z" fill="#F3F7FF"/>
<path d="M469.628 97.7899H466.266L461.932 88.0687V97.7899H458.644V81.5237H462.081L466.415 91.3412V81.5237H469.628V97.7899Z" fill="#F3F7FF"/>
<path d="M486.178 97.5974C483.488 97.838 481.246 97.9824 479.453 97.9824C478.295 97.9824 477.454 97.6455 476.913 96.9237C476.352 96.2258 476.091 95.143 476.091 93.6512V86.2399C476.091 84.5796 476.352 83.4005 476.913 82.6787C477.51 81.9087 478.426 81.5237 479.677 81.5237H486.178V84.7962H480.35C479.64 84.7962 479.304 85.2774 479.304 86.2399V93.6512C479.304 93.988 479.378 94.2768 479.528 94.5174C479.715 94.7099 479.939 94.8062 480.2 94.8062C480.443 94.8062 480.723 94.8062 481.022 94.8062C481.321 94.758 481.62 94.7099 481.919 94.7099C482.255 94.7099 482.591 94.7099 482.89 94.7099C483.227 94.6618 483.656 94.6137 484.161 94.6137C484.702 94.5655 485.375 94.4933 486.178 94.4212V97.5974Z" fill="#F3F7FF"/>
<path d="M502.164 97.7899H492.151V81.5237H502.164V84.7962H495.439V87.9724H500.744V91.1487H495.439V94.5174H502.164V97.7899Z" fill="#F3F7FF"/>
<path d="M148.704 3.24406V117.036" stroke="#2394C8" stroke-width="0.986843" stroke-linecap="round"/>
<path fill-rule="evenodd" clip-rule="evenodd" d="M53.975 61.9084C53.975 61.9084 46.895 69.3919 42.1502 60.5609C42.1315 60.5609 49.4169 53.4144 53.975 61.9084Z" fill="#2394C8"/>
<path fill-rule="evenodd" clip-rule="evenodd" d="M41.5151 41.8644C41.5151 41.8644 31.577 42.2013 32.1188 30.555C32.1188 30.555 42.0568 30.6994 41.5151 41.8644Z" fill="#2394C8"/>
<path fill-rule="evenodd" clip-rule="evenodd" d="M40.0206 22.9753C40.0206 22.9753 31.9319 23.625 32.0814 14.1444C32.0814 14.1444 40.2074 13.8797 40.0206 22.9753Z" fill="#2394C8"/>
<path fill-rule="evenodd" clip-rule="evenodd" d="M58.3651 22.9753C58.3651 22.9753 56.385 16.0453 61.4101 14.2887C61.3727 14.2887 63.166 21.315 58.3651 22.9753Z" fill="#2394C8"/>
<mask id="mask0_173_427" style="mask-type:luminance" maskUnits="userSpaceOnUse" x="51" y="0" width="11" height="11">
<path d="M51.7334 0.934059H61.2978V10.92H51.7334V0.934059Z" fill="white"/>
</mask>
<g mask="url(#mask0_173_427)">
<path fill-rule="evenodd" clip-rule="evenodd" d="M59.9903 7.96031C59.9903 7.96031 54.2927 7.6475 54.9465 0.982185C54.9465 0.982185 60.6441 1.58375 59.9903 7.96031Z" fill="#2394C8"/>
</g>
<path fill-rule="evenodd" clip-rule="evenodd" d="M46.7832 17.8259C46.7832 17.8259 44.5041 8.85062 51.005 6.90156C51.005 6.90156 53.0225 15.9731 46.7832 17.8259Z" fill="#2394C8"/>
<path fill-rule="evenodd" clip-rule="evenodd" d="M22.1622 43.9097C22.1622 43.9097 14.2043 42.2013 16.0537 33.0816C16.0537 33.0816 23.9182 35.175 22.1622 43.9097Z" fill="#2394C8"/>
<path fill-rule="evenodd" clip-rule="evenodd" d="M26.5893 33.0816C26.5893 33.0816 23.6378 24.6597 29.765 21.8203C29.765 21.8203 32.511 30.3866 26.5893 33.0816Z" fill="#2394C8"/>
<path fill-rule="evenodd" clip-rule="evenodd" d="M17.7534 60.4166C17.7534 60.4166 8.50657 57.7697 11.1032 47.1822C11.1032 47.1822 20.238 50.2863 17.7534 60.4166Z" fill="#2394C8"/>
<path fill-rule="evenodd" clip-rule="evenodd" d="M56.03 40.9019C56.03 40.9019 47.138 38.6641 49.3797 28.4616C49.3797 28.4616 58.1969 31.0844 56.03 40.9019Z" fill="#2394C8"/>
<path fill-rule="evenodd" clip-rule="evenodd" d="M35.0891 60.4166C35.0891 60.4166 30.2882 52.0909 36.4901 47.1822C36.5275 47.1822 41.0669 55.6763 35.0891 60.4166Z" fill="#2394C8"/>
<path fill-rule="evenodd" clip-rule="evenodd" d="M24.6841 72.0628C24.6841 72.0628 19.9205 80.4366 14.4284 74.2284C14.3911 74.2284 19.3788 66.0953 24.6841 72.0628Z" fill="#2394C8"/>
<mask id="mask1_173_427" style="mask-type:luminance" maskUnits="userSpaceOnUse" x="0" y="60" width="14" height="13">
<path d="M0.0629883 60.2H13.4756V72.52H0.0629883V60.2Z" fill="white"/>
</mask>
<g mask="url(#mask1_173_427)">
<path fill-rule="evenodd" clip-rule="evenodd" d="M9.0857 67.2263C9.0857 67.2263 4.4716 73.9638 0.0629883 68.0444C0.0629883 68.0444 4.90125 61.5475 9.0857 67.2263Z" fill="#2394C8"/>
</g>
<path fill-rule="evenodd" clip-rule="evenodd" d="M32.7727 84.9363C32.7727 84.9363 25.3005 88.7863 23.1709 79.7628C23.1709 79.7628 30.7552 76.2978 32.7727 84.9363Z" fill="#2394C8"/>
<mask id="mask2_173_427" style="mask-type:luminance" maskUnits="userSpaceOnUse" x="0" y="72" width="14" height="13">
<path d="M0.0629883 72.52H13.4756V84.84H0.0629883V72.52Z" fill="white"/>
</mask>
<g mask="url(#mask2_173_427)">
<path fill-rule="evenodd" clip-rule="evenodd" d="M10.4868 82.8909C10.4868 82.8909 2.77172 84.4791 2.22998 75.3113C2.26734 75.3594 10.0198 74.1081 10.4868 82.8909Z" fill="#2394C8"/>
</g>
<path fill-rule="evenodd" clip-rule="evenodd" d="M77.1202 61.74C77.1202 61.74 68.7326 60.6572 70.1337 50.9359C70.1337 50.9359 78.4839 52.4278 77.1202 61.74Z" fill="#2394C8"/>
<path fill-rule="evenodd" clip-rule="evenodd" d="M69.0877 43.3562C69.0877 43.3562 66.9955 35.4878 72.6744 33.635C72.6744 33.635 74.5425 41.5997 69.0877 43.3562Z" fill="#2394C8"/>
<path fill-rule="evenodd" clip-rule="evenodd" d="M75.5138 27.5472C75.5138 27.5472 70.003 25.6463 71.759 19.3178C71.759 19.3178 77.2137 21.5075 75.5138 27.5472Z" fill="#2394C8"/>
<path fill-rule="evenodd" clip-rule="evenodd" d="M47.0634 91.6738C47.0634 91.6738 47.5117 98.2428 42.8416 98.2428C42.8789 98.2428 42.5987 91.6256 47.0634 91.6738Z" fill="#2394C8"/>
<path fill-rule="evenodd" clip-rule="evenodd" d="M33.6694 96.3419C33.6694 96.3419 31.6146 106.328 24.7214 103.176C24.7214 103.176 27.0752 93.2619 33.6694 96.3419Z" fill="#2394C8"/>
<path fill-rule="evenodd" clip-rule="evenodd" d="M17.7535 95.1147C17.7535 95.1147 15.3997 104.379 9.08569 100.89C9.08569 100.89 11.6823 91.77 17.7535 95.1147Z" fill="#2394C8"/>
<mask id="mask3_173_427" style="mask-type:luminance" maskUnits="userSpaceOnUse" x="0" y="84" width="9" height="14">
<path d="M0.0629883 84.84H8.69341V97.16H0.0629883V84.84Z" fill="white"/>
</mask>
<g mask="url(#mask3_173_427)">
<path fill-rule="evenodd" clip-rule="evenodd" d="M5.6484 91.5053C5.6484 91.5053 2.84632 95.3553 0.343127 91.8181C0.305768 91.77 3.23861 88.0644 5.6484 91.5053Z" fill="#2394C8"/>
</g>
<path fill-rule="evenodd" clip-rule="evenodd" d="M81.7343 20.8819C81.7343 20.8819 79.7916 12.0991 86.1056 10.4628C86.1056 10.4628 87.8429 19.3659 81.7343 20.8819Z" fill="#2394C8"/>
<mask id="mask4_173_427" style="mask-type:luminance" maskUnits="userSpaceOnUse" x="75" y="0" width="11" height="11">
<path d="M75.6445 0.934059H85.209V10.92H75.6445V0.934059Z" fill="white"/>
</mask>
<g mask="url(#mask4_173_427)">
<path fill-rule="evenodd" clip-rule="evenodd" d="M77.8676 8.85062C77.8676 8.85062 76.8214 2.11312 81.6597 1.41531C81.6597 1.41531 82.5003 8.20093 77.8676 8.85062Z" fill="#2394C8"/>
</g>
<mask id="mask5_173_427" style="mask-type:luminance" maskUnits="userSpaceOnUse" x="66" y="0" width="5" height="18">
<path d="M66.0801 0.934059H70.8623V17.08H66.0801V0.934059Z" fill="white"/>
</mask>
<g mask="url(#mask5_173_427)">
<path fill-rule="evenodd" clip-rule="evenodd" d="M67.4064 11.8584C67.4064 11.8584 65.09 5.40969 69.7788 3.17188C69.7788 3.17188 71.9458 9.765 67.4064 11.8584Z" fill="#2394C8"/>
</g>
<mask id="mask6_173_427" style="mask-type:luminance" maskUnits="userSpaceOnUse" x="85" y="0" width="10" height="18">
<path d="M85.209 0.934059H94.7734V17.08H85.209V0.934059Z" fill="white"/>
</mask>
<g mask="url(#mask6_173_427)">
<path fill-rule="evenodd" clip-rule="evenodd" d="M92.0275 14.2887C92.0275 14.2887 87.5068 9.50031 91.2242 4.61562C91.2242 4.61562 95.5955 9.59656 92.0275 14.2887Z" fill="#2394C8"/>
</g>
<path fill-rule="evenodd" clip-rule="evenodd" d="M90.066 53.3662C90.066 53.3662 86.6101 41.5997 95.1284 38.4716C95.1284 38.4716 98.2668 50.4306 90.066 53.3662Z" fill="#2394C8"/>
<path fill-rule="evenodd" clip-rule="evenodd" d="M82.9673 36.5225C82.9673 36.5225 85.6386 26.9937 92.1768 30.8437C92.1768 30.8437 89.2066 40.2763 82.9673 36.5225Z" fill="#2394C8"/>
<path fill-rule="evenodd" clip-rule="evenodd" d="M94.9417 19.3659C94.9417 19.3659 97.9492 12.0028 102.862 16.0453C102.862 16.0453 99.6492 23.2641 94.9417 19.3659Z" fill="#2394C8"/>
<path fill-rule="evenodd" clip-rule="evenodd" d="M100.77 34.1884C100.77 34.1884 94.7733 32.2394 96.5667 25.4056C96.604 25.4056 102.526 27.6434 100.77 34.1884Z" fill="#2394C8"/>
<path fill-rule="evenodd" clip-rule="evenodd" d="M98.6589 73.0253C98.6589 73.0253 99.8171 61.7641 107.663 64.0019C107.663 63.9537 106.187 75.1669 98.6589 73.0253Z" fill="#2394C8"/>
<path fill-rule="evenodd" clip-rule="evenodd" d="M117.153 37.3166C117.153 37.3166 119.32 27.7397 125.858 30.9881C125.858 31.0362 123.429 40.4688 117.153 37.3166Z" fill="#2394C8"/>
<path fill-rule="evenodd" clip-rule="evenodd" d="M111.922 60.3684C111.922 60.3684 117.919 56.6628 120.086 63.9537C120.123 63.9537 113.977 67.3947 111.922 60.3684Z" fill="#2394C8"/>
<path fill-rule="evenodd" clip-rule="evenodd" d="M124.662 61.1144C124.662 61.1144 124.513 52.9812 130.266 53.4384C130.229 53.4384 130.154 61.5956 124.662 61.1144Z" fill="#2394C8"/>
<path fill-rule="evenodd" clip-rule="evenodd" d="M114.594 97.9059C114.594 97.9059 123.373 93.5987 125.746 104.138C125.746 104.186 116.835 108.108 114.594 97.9059Z" fill="#2394C8"/>
<path fill-rule="evenodd" clip-rule="evenodd" d="M106.58 98.2428C106.58 98.2428 111.623 101.876 108.709 107.483C108.709 107.483 103.759 103.633 106.58 98.2428Z" fill="#2394C8"/>
<path fill-rule="evenodd" clip-rule="evenodd" d="M117.62 87.9681C117.62 87.9681 117.806 79.8109 123.541 80.6531C123.504 80.6531 123.112 88.7862 117.62 87.9681Z" fill="#2394C8"/>
<path fill-rule="evenodd" clip-rule="evenodd" d="M131.275 86.3319C131.275 86.3319 131.462 78.1988 137.197 79.0409C137.16 79.0409 136.767 87.1741 131.275 86.3319Z" fill="#2394C8"/>
<path fill-rule="evenodd" clip-rule="evenodd" d="M117.62 87.9681C117.62 87.9681 117.844 78.0544 124.774 79.065C124.774 79.065 124.27 88.9788 117.62 87.9681Z" fill="#2394C8"/>
<path fill-rule="evenodd" clip-rule="evenodd" d="M124.812 70.9319C124.812 70.9319 129.762 66.7931 132.321 72.8809C132.284 72.8809 127.222 76.8031 124.812 70.9319Z" fill="#2394C8"/>
<path fill-rule="evenodd" clip-rule="evenodd" d="M118.666 25.3094C118.666 25.3094 114.78 18.4275 119.936 14.4331C119.936 14.4331 123.616 21.5075 118.666 25.3094Z" fill="#2394C8"/>
<path fill-rule="evenodd" clip-rule="evenodd" d="M107.233 28.6059C107.233 28.6059 104.301 20.1359 110.503 17.3928C110.484 17.3928 113.155 26.0072 107.233 28.6059Z" fill="#2394C8"/>
<path fill-rule="evenodd" clip-rule="evenodd" d="M92.8494 89.3638C92.8494 89.3638 98.3041 94.6094 94.1944 100.553C94.1944 100.553 88.8891 95.0184 92.8494 89.3638Z" fill="#2394C8"/>
<path fill-rule="evenodd" clip-rule="evenodd" d="M131.088 94.85C131.088 94.85 136.655 90.8797 139.009 97.6894C138.972 97.6894 133.33 101.347 131.088 94.85Z" fill="#2394C8"/>
<path fill-rule="evenodd" clip-rule="evenodd" d="M116.648 50.8878C116.648 50.8878 116.499 42.2975 122.57 42.7547C122.57 42.7547 122.458 51.345 116.648 50.8878Z" fill="#2394C8"/>
<mask id="mask7_173_427" style="mask-type:luminance" maskUnits="userSpaceOnUse" x="3" y="115" width="143" height="5">
<path d="M3.91113 115.64H145.173V119.49H3.91113V115.64Z" fill="white"/>
</mask>
<g mask="url(#mask7_173_427)">
<path d="M143.399 120.38C143.399 120.549 142.969 120.741 142.091 120.91C141.232 121.078 139.943 121.247 138.224 121.415C136.524 121.583 134.432 121.728 131.948 121.872C129.463 122.017 126.642 122.161 123.485 122.281C120.328 122.402 116.891 122.522 113.192 122.618C109.475 122.714 105.552 122.811 101.442 122.859C97.3139 122.931 93.0548 122.979 88.6835 123.027C84.2936 123.051 79.885 123.075 75.4203 123.075C70.9557 123.075 66.5284 123.051 62.1571 123.027C57.7672 122.979 53.5267 122.931 49.3983 122.859C45.2699 122.811 41.347 122.714 37.6482 122.618C33.9308 122.522 30.4936 122.402 27.3366 122.281C24.1796 122.161 21.3588 122.017 18.8743 121.872C16.4084 121.728 14.3162 121.583 12.5976 121.415C10.8977 121.247 9.60872 121.078 8.73073 120.91C7.85275 120.741 7.4231 120.549 7.4231 120.38C7.4231 120.212 7.85275 120.019 8.73073 119.851C9.60872 119.682 10.8977 119.514 12.5976 119.346C14.3162 119.177 16.4084 119.033 18.8743 118.888C21.3588 118.744 24.1796 118.6 27.3366 118.479C30.4936 118.335 33.9308 118.239 37.6482 118.142C41.347 118.046 45.2699 117.95 49.3983 117.878C53.5267 117.83 57.7672 117.757 62.1571 117.733C66.5284 117.709 70.9557 117.685 75.4203 117.685C79.885 117.685 84.2936 117.709 88.6835 117.733C93.0548 117.757 97.3139 117.83 101.442 117.878C105.552 117.95 109.475 118.046 113.192 118.142C116.891 118.239 120.328 118.335 123.485 118.479C126.642 118.6 129.463 118.744 131.948 118.888C134.432 119.033 136.524 119.177 138.224 119.346C139.943 119.514 141.232 119.682 142.091 119.851C142.969 120.019 143.399 120.212 143.399 120.38Z" fill="#213544"/>
</g>
<mask id="mask8_173_427" style="mask-type:luminance" maskUnits="userSpaceOnUse" x="3" y="4" width="135" height="116">
<path d="M3.91113 4.76H137.813V119.49H3.91113V4.76Z" fill="white"/>
</mask>
<g mask="url(#mask8_173_427)">
<path d="M132.713 89.8209C132.022 89.46 131.462 89.3156 130.696 89.1712C129.033 88.9306 127.558 89.0269 125.895 89.3156C123.224 89.7728 120.403 90.8556 117.918 91.2166C114.78 91.8181 111.997 92.155 108.858 91.6737C106.934 91.4091 105.346 90.9759 103.647 89.7247C102.488 88.8825 101.778 88.0644 100.975 86.6687C100.77 86.2837 100.508 85.7303 100.284 85.225C99.8917 84.2866 100.471 83.1797 101.311 83.2519C102.208 83.3962 103.105 83.4925 104.039 83.5406C106.654 83.5406 108.41 83.1316 110.801 81.7841C110.801 81.7841 110.839 81.7841 110.839 81.7359C113.827 79.7628 115.994 77.4047 118.423 74.3728C120.59 71.6297 123.112 67.9722 125.82 66.2878H125.858C127.221 65.59 128.342 65.3975 129.837 65.3975C129.893 65.3975 129.967 65.3975 130.042 65.3975C130.509 65.3975 130.584 64.5553 130.117 64.4831C130.042 64.4831 129.93 64.435 129.874 64.435C128.249 64.1944 127.016 64.1944 125.391 64.6997C122.028 65.9991 119.32 69.1272 116.648 71.9666C114.369 74.2766 112.202 76.2497 109.419 77.3566C107.551 78.1025 106.28 78.1987 104.338 77.8619C99.4247 76.7069 93.7645 73.5066 88.6274 74.8059C87.9735 74.9744 87.3384 74.3247 87.3384 73.4584C87.3011 70.0416 88.4406 68.4294 92.9239 66.0953C95.4458 64.7959 98.5654 63.3041 100.471 62.0047C100.471 62.0047 100.508 62.0047 100.508 61.9566C103.684 59.4541 103.217 58.9728 106.86 57.9141C108.784 57.3606 110.652 57.0238 112.707 56.7591C115.378 56.3741 117.956 56.1094 120.478 54.8822C121.599 54.3287 122.42 53.7753 123.336 52.7166C124.195 51.5856 123.915 51.2728 122.925 52.0909C122.028 52.8369 121.244 53.1737 120.16 53.4144C117.657 53.8234 115.135 53.5347 112.651 53.3662C111.81 53.27 111.025 53.2219 110.259 53.1737C109.568 53.1256 109.176 52.0909 109.568 51.345C110.446 49.8291 111.268 48.1447 112.071 46.34C113.435 42.9472 114.238 40.0597 114.743 36.2819C115.172 32.5762 115.098 29.6887 114.369 26.0072C114.089 24.5634 113.827 23.3603 113.585 22.2053C113.435 21.6278 112.781 21.8203 112.856 22.3738C112.968 23.5528 113.08 24.8041 113.211 26.2959C113.473 29.7369 113.211 32.2875 112.426 35.5841C111.81 37.87 111.156 39.6747 110.259 41.5516C109.867 42.3216 108.952 42.2012 108.709 41.3109C108.485 40.3725 108.205 39.4581 107.906 38.4716C106.972 35.4878 105.851 32.6484 105.029 29.6406C104.693 28.2931 104.45 27.1141 104.375 25.6703C104.338 24.2988 103.945 24.2025 103.721 25.6463C103.534 27.1622 103.572 28.4616 103.684 30.0016C103.983 33.2741 104.618 36.33 105.104 39.5544C105.664 43.645 106.038 47.9522 103.18 51.3209L103.142 51.345C101.554 52.7887 99.817 54.0159 97.8742 55.0747C93.8579 57.2162 90.2899 58.0584 87.2637 59.3578C87.0395 59.4541 86.8154 59.2616 86.7967 58.9728C86.6846 58.275 86.5351 57.5531 86.3857 56.7591C84.4803 48.6019 80.7629 45.1609 80.0343 37.87C79.8475 35.2713 79.7167 34.3328 80.6881 31.9266C81.809 29.4481 83.1726 28.1488 84.9847 26.6569C87.1516 24.9003 88.9823 23.5047 91.0185 21.3631C91.0558 21.315 91.0932 21.315 91.0932 21.2669C91.4481 20.8338 90.9811 20.1359 90.6075 20.5209C90.5888 20.5691 90.5888 20.5691 90.5515 20.6172C88.4779 22.5181 86.5725 23.6731 84.3308 25.165C82.6309 26.3441 81.3419 27.3547 80.1838 28.9428C79.9596 29.2075 79.5673 29.0391 79.5299 28.6541C79.3431 25.4538 79.1377 22.2775 78.6706 18.7403C78.0542 15.2753 77.1388 12.1472 76.0554 9.04312C75.8872 8.46562 75.2334 8.8025 75.3829 9.35594C76.2048 12.7969 76.8586 16.3341 76.896 19.0291C77.2509 25.9591 76.7465 31.2287 76.3916 38.0144V38.0625C76.5037 47.5912 79.5673 49.8772 80.8376 58.3231V58.3712C81.5474 65.3975 78.8014 67.7797 77.6619 72.2794C77.363 73.3622 76.2422 73.4103 75.8872 72.4237C74.3741 68.4775 72.1698 65.3494 69.5732 62.0528C67.1447 58.8044 65.0899 55.58 64.2492 52.7166V52.6684C63.4647 49.2275 63.6515 46.34 64.1558 42.8509C65.4448 35.4397 68.3029 28.2931 68.9567 21.1225C69.1249 18.9328 68.882 17.3928 68.004 15.4919C67.2568 14 66.4909 13.0856 65.4822 11.9066C64.5855 10.8959 63.7822 9.9575 63.0724 8.70625C62.2691 7.21438 61.8768 7.40688 62.4559 9.11531C63.035 10.6553 63.6702 11.7381 64.4734 13.0856C65.1646 14.2406 65.781 15.2753 66.2107 16.6709C66.5656 18.0425 66.5656 19.0291 66.2854 20.4728V20.5209C65.4448 23.5047 64.2492 26.4163 62.9976 29.4C62.6988 30.0978 61.9889 30.1459 61.6153 29.5444C60.7933 28.1969 59.822 27.1141 58.5517 25.7666C57.0012 24.1544 55.8056 22.9753 54.7969 20.6653C54.2178 19.3178 53.9749 18.1388 53.7881 16.6228C53.7134 16.1416 53.676 15.6844 53.676 15.2272C53.6387 14.6497 53.0222 14.6016 52.9475 15.1791C52.8915 15.6363 52.8541 16.1416 52.8167 16.6709V16.695C52.742 18.4756 52.8541 19.8231 53.209 21.5075V21.5316C53.9749 24.4672 55.021 26.1034 56.4968 28.4616C57.7297 30.4347 58.589 31.8784 59.1308 34.2847C59.1308 34.3328 59.1308 34.3328 59.1308 34.3809C59.3549 35.8728 59.2802 37.1241 59.0934 38.3753C58.9813 39.1694 58.8132 39.9634 58.5517 40.7094C57.6924 43.6931 57.1133 46.2437 56.8891 48.9869C56.8517 49.2997 56.5715 49.5403 56.3474 49.3478C55.376 48.65 54.3672 47.9041 53.2464 47.0859C49.3048 43.9578 47.4741 41.8644 45.7742 36.1375C44.6907 32.2394 44.9336 27.4028 44.8028 23.2641C44.6907 20.8097 44.5413 18.7162 43.9995 16.2859C43.9622 16.0934 43.9248 15.9731 43.8501 15.7806C43.7193 15.2272 43.0655 15.4437 43.1402 15.9972C43.1776 16.1416 43.1776 16.3341 43.2149 16.5266C43.4204 18.8366 43.3083 20.8338 43.1402 23.1678C42.6919 27.9563 41.9447 32.3838 42.5238 37.2203V37.2684C43.8127 44.4631 45.7742 47.9041 50.0333 52.6684C54.2178 57.3125 57.2814 60.1519 61.0362 65.6862C62.624 68.1406 64.2119 70.6672 65.4448 73.4584C65.8744 74.4209 65.4448 75.6241 64.6229 75.8647C64.2866 75.9609 63.9317 75.8647 63.6515 75.6241C62.0823 74.3247 60.3637 73.3141 58.4396 72.52C55.0584 71.0762 51.3597 70.5709 47.9785 70.3303C44.4665 70.0897 41.2161 69.8731 37.7976 68.7422C34.5845 67.5391 32.511 66.0953 30.3814 62.6544C28.8683 59.9594 28.2144 57.7216 27.7101 54.4731C27.3178 51.4413 27.2431 48.6981 27.131 45.6903C27.0749 42.8028 26.9628 40.3244 26.2343 37.5813C25.8794 36.2819 25.2256 36.6188 25.4497 37.87C25.8047 40.565 25.6552 42.9472 25.4684 45.6422C25.2256 48.8425 25.0014 51.6338 25.1135 54.8341C25.2629 57.7216 25.5431 59.9594 26.2717 62.3416C26.3838 62.6544 26.1596 62.9912 25.9167 62.9912C23.6377 62.8469 21.5455 63.0394 19.2291 63.2559C18.7621 63.3041 18.2951 63.3522 17.8281 63.4003C15.3996 63.6409 12.5788 64.0019 10.2064 63.3041H10.169C9.44049 63.0394 8.76799 62.2453 8.31966 61.8122C7.10542 60.7053 7.7032 62.4137 7.7032 62.4137C8.11417 62.9431 9.16028 64.2425 9.8141 64.6516C12.2986 66.1434 15.1567 66.3359 17.8654 66.6006C21.2466 67.0338 24.2168 67.3466 27.5046 68.5256H27.5419C28.8309 69.0309 30.0638 69.9213 31.1099 71.0281C32.511 72.5681 34.1362 73.7231 36.135 74.9022C39.3854 76.6106 42.3743 77.4528 45.6995 78.295C46.0544 78.3672 46.1291 79.0409 45.7742 79.2094C40.637 81.6878 37.2932 85.4416 30.7176 87.8719H30.6803C24.4597 89.6284 20.6301 88.3291 14.5776 86.7409C11.9997 86.0431 9.85147 85.5859 7.19883 85.7303C6.73181 85.7784 6.2648 85.8747 5.8725 85.9709C5.40549 86.0431 5.48021 86.9334 5.94723 86.8853C6.33952 86.8853 6.76917 86.8853 7.23618 86.8853C9.77674 87.1259 11.7569 87.92 14.148 88.9306C20.5741 91.8181 24.4223 93.7191 31.4275 92.7084H31.4649C39.9272 90.8075 45.2324 85.5378 53.3958 85.5378C58.944 85.9228 61.9515 89.1713 63.1284 93.3581C64.5481 98.2428 62.7361 115.953 60.9428 120.525C60.8681 120.693 60.7933 120.838 60.7186 121.03C60.5692 121.367 60.756 121.728 61.0362 121.728H86.1055C86.3483 121.728 86.5351 121.391 86.4604 121.078C85.2088 116.506 84.5924 100.938 84.4429 96.005C84.3682 92.6603 84.6671 89.5803 85.5638 87.3906V87.3666C86.2176 85.9709 86.8901 84.8881 87.8428 83.8294C88.59 82.9872 89.3185 82.3375 90.2899 81.9525C90.5141 81.8562 90.6822 81.8322 90.869 81.8322H90.9064C91.0932 81.8322 91.224 81.8322 91.4108 81.8322H91.4481C91.7283 81.8562 92.0272 81.9525 92.3448 82.145C93.6151 82.8428 94.3623 84.2384 95.0908 85.6822C95.8941 87.3666 96.5292 88.6659 97.5567 90.1097C98.9204 91.9144 100.079 92.9731 101.891 94.0078C104.188 95.1147 106.112 95.4516 108.56 95.4997C111.959 95.3553 114.874 94.6094 118.161 93.5506H118.199C120.87 92.4197 123.149 91.3128 125.97 90.4225C127.52 89.9653 128.921 89.6284 130.547 89.5803C131.238 89.5803 131.854 89.6766 132.545 89.9172C133.255 90.3262 133.143 89.9653 132.713 89.8209Z" fill="#F3F7FF"/>
</g>
</svg>
