<svg width="463" height="169" viewBox="0 0 463 169" fill="none" xmlns="http://www.w3.org/2000/svg">
<mask id="mask0_240_1175" style="mask-type:luminance" maskUnits="userSpaceOnUse" x="0" y="0" width="122" height="169">
<path d="M0.442871 0.807373H121.474V168.932H0.442871V0.807373Z" fill="white"/>
</mask>
<g mask="url(#mask0_240_1175)">
<mask id="mask1_240_1175" style="mask-type:luminance" maskUnits="userSpaceOnUse" x="0" y="1" width="122" height="168">
<path d="M13.917 1.27612H108.474C115.657 1.27612 121.474 7.09904 121.474 14.2761V155.511C121.474 162.688 115.657 168.511 108.474 168.511H13.917C6.7347 168.511 0.916992 162.688 0.916992 155.511V14.2761C0.916992 7.09904 6.7347 1.27612 13.917 1.27612Z" fill="white"/>
</mask>
<g mask="url(#mask1_240_1175)">
<path d="M0.916992 1.27612H121.474V168.464H0.916992V1.27612Z" fill="#28B17E"/>
</g>
</g>
<mask id="mask2_240_1175" style="mask-type:luminance" maskUnits="userSpaceOnUse" x="62" y="36" width="60" height="133">
<path d="M62.667 36.3335H121.318V168.807H62.667V36.3335Z" fill="white"/>
</mask>
<g mask="url(#mask2_240_1175)">
<path d="M130.177 36.8752C126.875 41.3544 125.474 46.5575 125.323 51.943C125.047 61.594 125.245 71.2763 125.245 81.1565C125.615 80.9794 125.922 80.9273 126.026 80.7555C130.302 73.8596 136.526 68.9273 142.813 64.0471C147.068 60.7346 150.073 56.6096 151.11 51.2138C151.167 51.0055 151.255 50.8127 151.386 50.6409C151.443 50.5419 151.583 50.4898 151.813 50.3336C152.099 51.8857 152.12 53.443 151.886 55.0055C151.646 56.568 151.162 58.0471 150.427 59.443C148.401 63.5315 145.083 66.4846 141.615 69.2711C136.229 73.568 131.464 78.4534 129.422 85.1877C128.276 89.1617 127.568 93.2138 127.302 97.344C126.953 101.875 127.219 106.453 127.219 111.24C128.297 110.427 129.292 109.521 130.406 108.844C135.307 105.781 140.313 102.88 145.141 99.7138C152.344 95.0784 158.313 89.1877 163.052 82.0575C166.005 77.5575 167.818 72.6565 167.802 67.1877C167.797 66.8388 167.906 66.5211 168.125 66.245C169.688 69.2971 169.521 72.4898 168.849 75.6982C167.323 83.0002 163.042 88.8232 158.365 94.3648C155.787 97.4169 153.026 100.302 150.151 103.485C158.745 104.933 167.151 107.933 176.24 103.453C175.766 104.427 175.636 104.948 175.323 105.308C174.318 106.459 173.115 107.344 171.714 107.953C170.318 108.568 168.854 108.854 167.323 108.813C162.958 108.813 158.599 108.443 154.24 108.438C139.948 108.438 130.115 117.927 129.432 132.177C129.094 139.245 130.078 146.141 131.557 153.016C132.38 156.88 134.63 159.49 138.063 161.302C143.349 164.099 149.073 165.089 154.932 165.599C163.62 166.328 172.302 167.058 180.985 167.781C181.578 167.844 182.11 168.063 182.578 168.433H63.672L63.6147 168.11C66.2554 167.735 68.896 167.25 71.5575 167C78.8856 166.339 86.2189 165.745 93.5627 165.214C98.1616 164.875 102.557 163.75 106.75 161.844C110.646 160.099 113.078 157.214 113.896 153.089C115.401 145.594 116.682 138.104 115.886 130.354C114.599 117.677 105.182 108.683 92.3752 108.479C87.8022 108.406 83.2085 109.016 78.6564 108.74C76.2241 108.594 73.8231 107.334 71.5054 106.354C70.7293 106.021 70.2502 105.005 69.7918 104.068C78.2293 107.719 86.3856 105.177 94.6616 103.636C91.4741 100.089 88.2397 96.7607 85.3387 93.1825C81.2033 88.0732 77.3283 82.7502 75.7085 76.193C74.6512 71.8961 74.5262 67.6461 76.5679 63.0159C76.8543 66.1565 76.896 68.8336 77.3752 71.4325C78.4845 77.4794 81.3804 82.7034 85.422 87.2763C90.7345 93.3805 96.9481 98.3648 104.063 102.224C108.948 104.834 113.599 107.891 118.458 110.818C118.307 110.943 118.5 110.854 118.5 110.776C118.313 102.714 118.828 94.594 116.703 86.6721C115.323 81.5471 112.938 76.9794 109.141 73.1982C105.943 70.0159 102.63 66.943 99.5991 63.6096C96.37 60.0575 94.3387 55.8752 94.3283 50.7919C99.0522 62.5732 110.224 67.8961 119.12 76.443C119.49 71.8023 119.818 67.8492 120.115 63.9221C120.641 56.844 121.813 49.8961 124.839 43.4065C125.802 41.4898 126.932 39.6825 128.229 37.9794C128.63 37.4325 129.563 37.2711 130.25 36.9377L130.177 36.8752Z" fill="#F3F7FF"/>
</g>
<mask id="mask3_240_1175" style="mask-type:luminance" maskUnits="userSpaceOnUse" x="117" y="17" width="5" height="24">
<path d="M117.333 17.8074H121.318V40.3334H117.333V17.8074Z" fill="white"/>
</mask>
<g mask="url(#mask3_240_1175)">
<path d="M120.323 39.724C115.766 30.5574 116.792 26.1772 122.459 17.8542C128.026 26.6563 127.855 33.323 120.323 39.724Z" fill="#F3F7FF"/>
</g>
<path d="M85.5001 24.5C93.7188 29.4115 96.5157 36.1875 94.1251 45.099C87.1407 42.4687 83.9896 35.0417 85.5001 24.5Z" fill="#F3F7FF"/>
<path d="M111.797 45.3804C119.74 53.0002 120.74 58.0522 116.021 66.6356C110.073 61.4168 108.323 52.6095 111.797 45.3804Z" fill="#F3F7FF"/>
<path d="M70.318 77.151C61.5837 78.6198 54.9691 75.6041 50.3857 68.3021C58.7868 65.7343 68.0785 69.7552 70.318 77.151Z" fill="#F3F7FF"/>
<mask id="mask4_240_1175" style="mask-type:luminance" maskUnits="userSpaceOnUse" x="94" y="17" width="13" height="22">
<path d="M94.667 17.8074H106.667V39.0001H94.667V17.8074Z" fill="white"/>
</mask>
<g mask="url(#mask4_240_1175)">
<path d="M96.4846 18.1406C104.834 24.5313 106.849 29.5625 105.078 37.75C97.8544 35.9427 94.0158 27.3594 96.4846 18.1406Z" fill="#F3F7FF"/>
</g>
<path d="M109.51 22.323C117.109 29.8907 118.349 33.6355 114.792 43.3751C108.677 40.198 106.427 31.3803 109.51 22.323Z" fill="#F3F7FF"/>
<path d="M55.8232 119.787C61.193 111.302 65.8649 110.797 75.7191 111.656C73.6201 118.719 65.0576 122.214 55.8232 119.787Z" fill="#F3F7FF"/>
<path d="M104.87 58.9429C99.7969 55.5054 97.2084 51.0575 97.9948 44.9116C98.2553 42.8804 98.2865 40.8179 98.4271 38.6616C106.083 42.8022 108.802 51.4533 104.87 58.9429Z" fill="#F3F7FF"/>
<path d="M70.099 66.5991C63.4063 68.9637 55.3021 64.4845 51.9688 56.6668C63.1667 55.9637 66.9167 58.5939 70.099 66.5991Z" fill="#F3F7FF"/>
<path d="M67.8076 101.818C63.2503 109.521 57.9274 111.62 48.6514 109.484C52.3389 103.042 58.3545 100.594 67.8076 101.818Z" fill="#F3F7FF"/>
<path d="M74.4949 60.6147C65.0939 57.6563 63.6355 53.047 63.7501 44.2136C72.672 48.4428 74.6407 50.9897 74.4949 60.6147Z" fill="#F3F7FF"/>
<path d="M75.5156 48.1563C85.2083 47.974 90 50.6771 92.9167 57.9584C84.4375 59.2084 80.1302 57.3855 75.5156 48.1563Z" fill="#F3F7FF"/>
<path d="M103.578 69.6719C95.7396 73.2604 90.6146 71.651 84.9062 65.8073C91.0469 61.8021 98.4375 63.2864 103.578 69.6719Z" fill="#F3F7FF"/>
<path d="M86.1305 45.6356C78.3962 47.3074 74.1305 44.9897 69.8389 37.3179C78.5524 36.0001 84.4691 39.0106 86.1305 45.6356Z" fill="#F3F7FF"/>
<path d="M80.3125 72.4792C90.7292 72.7084 93.9635 74.474 96.1042 81.047C88.099 82.5522 83.7031 79.9532 80.3125 72.4792Z" fill="#F3F7FF"/>
<path d="M63.2607 94.8334C56.4274 93.224 52.9482 88.9897 52.7764 82.0417C60.6878 83.823 64.5889 88.5782 63.2607 94.8334Z" fill="#F3F7FF"/>
<path d="M79.2451 90.6564C72.0472 91.1981 67.9639 89.547 65.2139 81.5054C73.1201 82.3022 76.8701 82.5366 79.2451 90.6564Z" fill="#F3F7FF"/>
<mask id="mask5_240_1175" style="mask-type:luminance" maskUnits="userSpaceOnUse" x="43" y="93" width="17" height="9">
<path d="M43.3179 93.6667H60.0002V101.667H43.3179V93.6667Z" fill="white"/>
</mask>
<g mask="url(#mask5_240_1175)">
<path d="M59.5783 98.3178C54.1408 102.448 47.9741 101.261 43.3179 95.2866C49.6356 92.4845 54.5262 93.3647 59.5783 98.3178Z" fill="#F3F7FF"/>
</g>
<path d="M70.6875 94.9064C78.4792 93.0106 82.6302 94.0471 85.1875 99.9168C78.5885 101.849 74.276 100.349 70.6875 94.9064Z" fill="#F3F7FF"/>
<path d="M160.439 119.328L165.856 108.162H169.939L160.272 127.516L150.126 108.162H154.668L160.439 119.328Z" fill="#F3F7FF"/>
<path d="M180.771 108.162V127.182H176.813V108.162H180.771Z" fill="#F3F7FF"/>
<path d="M194.162 118.766C192.506 118.573 191.188 117.995 190.204 117.036C189.214 116.068 188.725 114.828 188.725 113.328C188.725 112.526 188.891 111.786 189.225 111.12C189.558 110.443 189.996 109.859 190.537 109.37C191.089 108.87 191.694 108.49 192.35 108.224C193.001 107.964 193.662 107.828 194.329 107.828C195.272 107.828 196.173 108.026 197.037 108.411C197.912 108.802 198.714 109.427 199.454 110.286L196.329 112.557C196.079 112.281 195.766 112.057 195.391 111.891C195.016 111.714 194.662 111.62 194.329 111.62C193.798 111.62 193.371 111.776 193.037 112.078C192.714 112.37 192.558 112.781 192.558 113.307C192.558 113.724 192.746 114.109 193.121 114.453C193.506 114.802 194.204 115.01 195.204 115.078C196.298 115.151 197.292 115.432 198.183 115.932C199.084 116.422 199.798 117.109 200.329 117.995C200.871 118.885 201.141 119.943 201.141 121.161C201.141 122.385 200.834 123.484 200.225 124.453C199.626 125.411 198.834 126.161 197.85 126.703C196.876 127.245 195.829 127.516 194.704 127.516C193.621 127.516 192.548 127.297 191.496 126.87C190.438 126.427 189.459 125.714 188.558 124.724L191.829 122.328C192.256 122.87 192.704 123.24 193.162 123.432C193.631 123.615 194.147 123.703 194.704 123.703C195.355 123.703 195.902 123.484 196.35 123.036C196.792 122.578 197.016 122.047 197.016 121.432C197.016 120.672 196.766 120.057 196.266 119.599C195.777 119.141 195.079 118.865 194.162 118.766Z" fill="#F3F7FF"/>
<path d="M212.953 108.162V127.182H208.995V108.162H212.953Z" fill="#F3F7FF"/>
<path d="M230.844 127.516C229.48 127.516 228.204 127.255 227.011 126.745C225.813 126.234 224.766 125.531 223.865 124.641C222.975 123.74 222.271 122.693 221.761 121.495C221.245 120.302 220.99 119.026 220.99 117.661C220.99 116.302 221.245 115.031 221.761 113.849C222.271 112.672 222.975 111.63 223.865 110.724C224.766 109.823 225.808 109.115 226.99 108.599C228.183 108.089 229.459 107.828 230.824 107.828C232.183 107.828 233.454 108.089 234.636 108.599C235.829 109.115 236.876 109.823 237.782 110.724C238.683 111.63 239.386 112.672 239.886 113.849C240.396 115.031 240.657 116.302 240.657 117.661C240.657 119.026 240.396 120.302 239.886 121.495C239.386 122.693 238.683 123.74 237.782 124.641C236.876 125.531 235.834 126.234 234.657 126.745C233.475 127.255 232.204 127.516 230.844 127.516ZM230.824 111.62C229.74 111.62 228.761 111.891 227.886 112.432C227.011 112.974 226.313 113.703 225.803 114.62C225.303 115.526 225.053 116.536 225.053 117.661C225.053 118.786 225.303 119.807 225.803 120.724C226.313 121.641 227.011 122.37 227.886 122.911C228.761 123.443 229.745 123.703 230.844 123.703C231.912 123.703 232.886 123.443 233.761 122.911C234.636 122.37 235.329 121.641 235.844 120.724C236.355 119.807 236.615 118.786 236.615 117.661C236.615 116.536 236.35 115.526 235.824 114.62C235.308 113.703 234.615 112.974 233.74 112.432C232.865 111.891 231.891 111.62 230.824 111.62Z" fill="#F3F7FF"/>
<path d="M262.225 119.162V108.162H266.184V127.516L252.663 116.266V127.182H248.705V107.807L262.225 119.162Z" fill="#F3F7FF"/>
<path d="M282.348 127.182H278.39V111.745H273.682V108.162H287.348V111.745H282.348V127.182Z" fill="#F3F7FF"/>
<path d="M300.781 123.891H298.802V127.182H294.844V108.162H301.448C302.573 108.162 303.604 108.36 304.552 108.745C305.51 109.12 306.344 109.656 307.052 110.349C307.771 111.047 308.333 111.844 308.74 112.745C309.141 113.651 309.344 114.615 309.344 115.641C309.344 117.349 308.958 118.818 308.198 120.037C307.432 121.261 306.385 122.177 305.052 122.787L309.156 127.182H303.906L300.781 123.891ZM298.802 120.307H300.427C301.995 120.307 303.198 119.943 304.031 119.203C304.865 118.453 305.281 117.37 305.281 115.953C305.281 115.177 305.125 114.474 304.823 113.849C304.516 113.214 304.057 112.703 303.448 112.328C302.849 111.943 302.099 111.745 301.198 111.745H298.802V120.307Z" fill="#F3F7FF"/>
<path d="M329.068 127.182H317.276V108.162H327.38V111.745H321.234V115.287H328.38V118.828H321.234V123.599H329.068V127.182Z" fill="#F3F7FF"/>
<path d="M348.897 127.182H337.105V108.162H347.209V111.745H341.063V115.287H348.209V118.828H341.063V123.599H348.897V127.182Z" fill="#F3F7FF"/>
<path d="M360.892 127.182H356.934V108.162H363.413C364.59 108.162 365.663 108.386 366.622 108.828C367.59 109.261 368.434 109.839 369.142 110.557C369.851 111.281 370.398 112.099 370.788 113.016C371.174 113.922 371.372 114.86 371.372 115.828C371.372 117.443 371.017 118.891 370.309 120.182C369.611 121.464 368.648 122.469 367.413 123.203C366.174 123.943 364.757 124.307 363.163 124.307H360.892V127.182ZM360.892 120.703H363.059C363.976 120.703 364.752 120.505 365.392 120.099C366.028 119.698 366.507 119.156 366.83 118.474C367.163 117.797 367.33 117.047 367.33 116.224C367.33 115.49 367.168 114.781 366.851 114.099C366.528 113.422 366.069 112.86 365.476 112.412C364.877 111.969 364.148 111.745 363.288 111.745H360.892V120.703Z" fill="#F3F7FF"/>
<path d="M392.974 127.182L391.724 124.62H382.495L381.287 127.182H377.204L387.224 107.828L397.287 127.182H392.974ZM387.079 115.141L384.224 121.057H389.974L387.079 115.141Z" fill="#F3F7FF"/>
<path d="M408.708 118.766C407.051 118.573 405.734 117.995 404.749 117.036C403.76 116.068 403.27 114.828 403.27 113.328C403.27 112.526 403.437 111.786 403.77 111.12C404.104 110.443 404.541 109.859 405.083 109.37C405.635 108.87 406.239 108.49 406.895 108.224C407.546 107.964 408.208 107.828 408.874 107.828C409.817 107.828 410.718 108.026 411.583 108.411C412.458 108.802 413.26 109.427 413.999 110.286L410.874 112.557C410.624 112.281 410.312 112.057 409.937 111.891C409.562 111.714 409.208 111.62 408.874 111.62C408.343 111.62 407.916 111.776 407.583 112.078C407.26 112.37 407.104 112.781 407.104 113.307C407.104 113.724 407.291 114.109 407.666 114.453C408.051 114.802 408.749 115.01 409.749 115.078C410.843 115.151 411.838 115.432 412.729 115.932C413.63 116.422 414.343 117.109 414.874 117.995C415.416 118.885 415.687 119.943 415.687 121.161C415.687 122.385 415.38 123.484 414.77 124.453C414.171 125.411 413.38 126.161 412.395 126.703C411.421 127.245 410.374 127.516 409.249 127.516C408.166 127.516 407.093 127.297 406.041 126.87C404.984 126.427 404.005 125.714 403.104 124.724L406.374 122.328C406.801 122.87 407.249 123.24 407.708 123.432C408.176 123.615 408.692 123.703 409.249 123.703C409.9 123.703 410.447 123.484 410.895 123.036C411.338 122.578 411.562 122.047 411.562 121.432C411.562 120.672 411.312 120.057 410.812 119.599C410.322 119.141 409.624 118.865 408.708 118.766Z" fill="#F3F7FF"/>
<path d="M430.874 127.182H426.915V111.745H422.207V108.162H435.874V111.745H430.874V127.182Z" fill="#F3F7FF"/>
<path d="M452.432 127.516C451.068 127.516 449.792 127.255 448.599 126.745C447.401 126.234 446.354 125.531 445.453 124.641C444.562 123.74 443.859 122.693 443.349 121.495C442.833 120.302 442.578 119.026 442.578 117.661C442.578 116.302 442.833 115.031 443.349 113.849C443.859 112.672 444.562 111.63 445.453 110.724C446.354 109.823 447.396 109.115 448.578 108.599C449.771 108.089 451.047 107.828 452.411 107.828C453.771 107.828 455.042 108.089 456.224 108.599C457.417 109.115 458.464 109.823 459.37 110.724C460.271 111.63 460.974 112.672 461.474 113.849C461.984 115.031 462.245 116.302 462.245 117.661C462.245 119.026 461.984 120.302 461.474 121.495C460.974 122.693 460.271 123.74 459.37 124.641C458.464 125.531 457.422 126.234 456.245 126.745C455.063 127.255 453.792 127.516 452.432 127.516ZM452.411 111.62C451.328 111.62 450.349 111.891 449.474 112.432C448.599 112.974 447.901 113.703 447.391 114.62C446.891 115.526 446.641 116.536 446.641 117.661C446.641 118.786 446.891 119.807 447.391 120.724C447.901 121.641 448.599 122.37 449.474 122.911C450.349 123.443 451.333 123.703 452.432 123.703C453.5 123.703 454.474 123.443 455.349 122.911C456.224 122.37 456.917 121.641 457.432 120.724C457.943 119.807 458.203 118.786 458.203 117.661C458.203 116.536 457.938 115.526 457.411 114.62C456.896 113.703 456.203 112.974 455.328 112.432C454.453 111.891 453.479 111.62 452.411 111.62Z" fill="#F3F7FF"/>
<path d="M237.185 62.446L235.56 59.1544H223.664L222.08 62.446H216.81L229.768 37.446L242.747 62.446H237.185ZM229.56 46.8835L225.872 54.5294H233.33L229.56 46.8835Z" fill="#28B17E"/>
<path d="M252.998 58.196H250.435V62.446H245.31V37.8835H253.852C255.31 37.8835 256.649 38.1335 257.873 38.6335C259.107 39.1231 260.185 39.8106 261.102 40.696C262.029 41.5867 262.753 42.6127 263.268 43.7794C263.794 44.946 264.06 46.196 264.06 47.5294C264.06 49.7377 263.56 51.6335 262.56 53.2169C261.57 54.8002 260.227 55.9877 258.518 56.7794L263.81 62.446H257.018L252.998 58.196ZM250.435 53.571H252.539C254.565 53.571 256.112 53.0919 257.185 52.1335C258.268 51.1648 258.81 49.7585 258.81 47.9252C258.81 46.9252 258.607 46.0242 258.206 45.2169C257.815 44.3992 257.227 43.7377 256.435 43.2377C255.654 42.7377 254.69 42.4877 253.539 42.4877H250.435V53.571Z" fill="#28B17E"/>
<path d="M277.472 62.446H272.347V42.4877H266.285V37.8835H283.931V42.4877H277.472V62.446Z" fill="#28B17E"/>
<path d="M292.438 37.8835V62.446H287.313V37.8835H292.438Z" fill="#28B17E"/>
<path d="M302.658 62.446H297.533V37.8835H310.596V42.4877H302.658V47.071H311.887V51.6544H302.658V62.446Z" fill="#28B17E"/>
<path d="M320.758 37.8835V62.446H315.633V37.8835H320.758Z" fill="#28B17E"/>
<path d="M344.958 51.5919H350.125C349.958 53.1752 349.505 54.6492 348.771 56.0085C348.047 57.3731 347.114 58.5658 345.979 59.5919C344.838 60.6231 343.541 61.4252 342.083 62.0085C340.635 62.5919 339.104 62.8835 337.479 62.8835C335.713 62.8835 334.067 62.5554 332.541 61.9044C331.01 61.2377 329.672 60.321 328.521 59.1544C327.364 57.9877 326.463 56.644 325.812 55.1127C325.156 53.5867 324.833 51.9408 324.833 50.1752C324.833 48.4148 325.156 46.769 325.812 45.2377C326.463 43.696 327.364 42.3419 328.521 41.1752C329.672 40.0085 331.01 39.1023 332.541 38.446C334.067 37.7794 335.698 37.446 337.437 37.446C339.729 37.446 341.833 37.9981 343.75 39.0919C345.677 40.1752 347.192 41.6231 348.291 43.4252L344.291 46.2585C343.416 44.9408 342.375 43.9565 341.166 43.3002C339.968 42.6492 338.739 42.321 337.479 42.321C336.104 42.321 334.854 42.6752 333.729 43.3835C332.614 44.0919 331.729 45.045 331.062 46.2377C330.406 47.42 330.083 48.7325 330.083 50.1752C330.083 51.6075 330.406 52.92 331.062 54.1127C331.729 55.295 332.614 56.2325 333.729 56.9252C334.854 57.6231 336.104 57.9669 337.479 57.9669C338.698 57.9669 339.833 57.696 340.875 57.1544C341.927 56.6023 342.817 55.8419 343.541 54.8835C344.26 53.9252 344.734 52.8315 344.958 51.5919Z" fill="#28B17E"/>
<path d="M359.333 37.8835V62.446H354.208V37.8835H359.333Z" fill="#28B17E"/>
<path d="M382.282 62.446L380.657 59.1544H368.761L367.178 62.446H361.907L374.866 37.446L387.845 62.446H382.282ZM374.657 46.8835L370.97 54.5294H378.428L374.657 46.8835Z" fill="#28B17E"/>
<path d="M390.407 37.8835H395.532V57.821H405.428V62.446H390.407V37.8835Z" fill="#28B17E"/>
<path d="M195.956 66.8835V91.446H190.831V66.8835H195.956Z" fill="#28B17E"/>
<path d="M218.53 81.092V66.8836H223.655V91.8836L206.176 77.3211V91.4461H201.051V66.4253L218.53 81.092Z" fill="#28B17E"/>
<path d="M238.224 91.446H233.099V71.4877H227.037V66.8835H244.682V71.4877H238.224V91.446Z" fill="#28B17E"/>
<path d="M263.315 91.446H248.065V66.8835H261.127V71.4877H253.19V76.071H262.419V80.6544H253.19V86.821H263.315V91.446Z" fill="#28B17E"/>
<path d="M267.385 66.8835H272.51V86.821H282.406V91.446H267.385V66.8835Z" fill="#28B17E"/>
<path d="M285.65 66.8835H290.775V86.821H300.671V91.446H285.65V66.8835Z" fill="#28B17E"/>
<path d="M309.04 66.8835V91.446H303.915V66.8835H309.04Z" fill="#28B17E"/>
<path d="M338.489 78.0294V78.7794C338.489 80.5867 338.156 82.2794 337.489 83.8627C336.833 85.446 335.927 86.8419 334.76 88.0502C333.593 89.2585 332.239 90.2065 330.698 90.8835C329.156 91.5502 327.51 91.8835 325.76 91.8835C323.994 91.8835 322.349 91.5554 320.823 90.9044C319.291 90.2377 317.953 89.321 316.802 88.1544C315.646 86.9877 314.744 85.644 314.093 84.1127C313.437 82.5867 313.114 80.9408 313.114 79.1752C313.114 77.4148 313.437 75.769 314.093 74.2377C314.744 72.696 315.646 71.3419 316.802 70.1752C317.953 69.0085 319.291 68.1023 320.823 67.446C322.349 66.7794 323.979 66.446 325.718 66.446C328.01 66.446 330.114 66.9981 332.031 68.0919C333.958 69.1752 335.474 70.6231 336.573 72.4252L332.489 75.3835C331.849 74.1752 330.927 73.196 329.718 72.446C328.521 71.696 327.203 71.321 325.76 71.321C324.385 71.321 323.135 71.6752 322.01 72.3835C320.896 73.0919 320.01 74.045 319.343 75.2377C318.687 76.42 318.364 77.7325 318.364 79.1752C318.364 80.6075 318.687 81.92 319.343 83.1127C320.01 84.295 320.896 85.2325 322.01 85.9252C323.135 86.6231 324.385 86.9669 325.76 86.9669C327.244 86.9669 328.604 86.5919 329.843 85.8419C331.093 85.0919 331.994 84.0033 332.552 82.571H325.885V78.0294H338.489Z" fill="#28B17E"/>
<path d="M357.739 91.446H342.489V66.8835H355.551V71.4877H347.614V76.071H356.843V80.6544H347.614V86.821H357.739V91.446Z" fill="#28B17E"/>
<path d="M379.288 81.092V66.8836H384.413V91.8836L366.934 77.3211V91.4461H361.809V66.4253L379.288 81.092Z" fill="#28B17E"/>
<path d="M408.607 80.5919H413.774C413.607 82.1752 413.154 83.6492 412.419 85.0085C411.695 86.3731 410.763 87.5658 409.628 88.5919C408.487 89.6231 407.19 90.4252 405.732 91.0085C404.284 91.5919 402.753 91.8835 401.128 91.8835C399.362 91.8835 397.716 91.5554 396.19 90.9044C394.659 90.2377 393.32 89.321 392.169 88.1544C391.013 86.9877 390.112 85.644 389.461 84.1127C388.805 82.5867 388.482 80.9408 388.482 79.1752C388.482 77.4148 388.805 75.769 389.461 74.2377C390.112 72.696 391.013 71.3419 392.169 70.1752C393.32 69.0085 394.659 68.1023 396.19 67.446C397.716 66.7794 399.347 66.446 401.086 66.446C403.378 66.446 405.482 66.9981 407.399 68.0919C409.326 69.1752 410.841 70.6231 411.94 72.4252L407.94 75.2585C407.065 73.9408 406.024 72.9565 404.815 72.3002C403.617 71.6492 402.388 71.321 401.128 71.321C399.753 71.321 398.503 71.6752 397.378 72.3835C396.263 73.0919 395.378 74.045 394.711 75.2377C394.055 76.42 393.732 77.7325 393.732 79.1752C393.732 80.6075 394.055 81.92 394.711 83.1127C395.378 84.295 396.263 85.2325 397.378 85.9252C398.503 86.6231 399.753 86.9669 401.128 86.9669C402.347 86.9669 403.482 86.696 404.524 86.1544C405.576 85.6023 406.466 84.8419 407.19 83.8835C407.909 82.9252 408.383 81.8315 408.607 80.5919Z" fill="#28B17E"/>
<path d="M433.106 91.446H417.856V66.8835H430.918V71.4877H422.981V76.071H432.21V80.6544H422.981V86.821H433.106V91.446Z" fill="#28B17E"/>
</svg>
