<svg width="470" height="169" viewBox="0 0 470 169" fill="none" xmlns="http://www.w3.org/2000/svg">
<mask id="mask0_240_857" style="mask-type:luminance" maskUnits="userSpaceOnUse" x="-23" y="0" width="122" height="169">
<path d="M-23 0H98.9571V168.125H-23V0Z" fill="white"/>
</mask>
<g mask="url(#mask0_240_857)">
<mask id="mask1_240_857" style="mask-type:luminance" maskUnits="userSpaceOnUse" x="-23" y="0" width="122" height="168">
<path d="M-9.42301 0.46875H85.8576C93.0949 0.46875 98.9571 6.29167 98.9571 13.4688V154.703C98.9571 161.88 93.0949 167.703 85.8576 167.703H-9.42301C-16.6602 167.703 -22.5225 161.88 -22.5225 154.703V13.4688C-22.5225 6.29167 -16.6602 0.46875 -9.42301 0.46875Z" fill="white"/>
</mask>
<g mask="url(#mask1_240_857)">
<path d="M-22.5225 0.46875H98.9571V167.656H-22.5225V0.46875Z" fill="#28B17E"/>
</g>
</g>
<mask id="mask2_240_857" style="mask-type:luminance" maskUnits="userSpaceOnUse" x="39" y="35" width="60" height="133">
<path d="M39.7002 35.5261H98.7999V168H39.7002V35.5261Z" fill="white"/>
</mask>
<g mask="url(#mask2_240_857)">
<path d="M107.727 36.0679C104.4 40.547 102.988 45.7502 102.836 51.1356C102.558 60.7866 102.757 70.4689 102.757 80.3491C103.13 80.172 103.439 80.12 103.544 79.9481C107.853 73.0522 114.125 68.12 120.459 63.2397C124.747 59.9272 127.775 55.8022 128.819 50.4064C128.877 50.1981 128.966 50.0054 129.098 49.8335C129.155 49.7345 129.297 49.6825 129.528 49.5262C129.817 51.0783 129.838 52.6356 129.601 54.1981C129.36 55.7606 128.872 57.2397 128.132 58.6356C126.09 62.7241 122.747 65.6772 119.252 68.4637C113.825 72.7606 109.023 77.646 106.966 84.3804C105.811 88.3543 105.098 92.4064 104.83 96.5366C104.478 101.068 104.746 105.646 104.746 110.432C105.832 109.62 106.835 108.714 107.958 108.037C112.896 104.974 117.94 102.073 122.805 98.9064C130.063 94.271 136.078 88.3804 140.853 81.2502C143.829 76.7502 145.656 71.8491 145.64 66.3804C145.635 66.0314 145.745 65.7137 145.965 65.4377C147.54 68.4897 147.372 71.6825 146.695 74.8908C145.157 82.1929 140.843 88.0158 136.13 93.5575C133.532 96.6095 130.751 99.495 127.854 102.677C136.513 104.125 144.984 107.125 154.142 102.646C153.664 103.62 153.533 104.141 153.218 104.5C152.205 105.651 150.993 106.537 149.581 107.146C148.175 107.761 146.7 108.047 145.157 108.005C140.759 108.005 136.366 107.636 131.974 107.63C117.573 107.63 107.664 117.12 106.976 131.37C106.635 138.438 107.627 145.333 109.118 152.208C109.947 156.073 112.214 158.682 115.673 160.495C121 163.292 126.767 164.281 132.672 164.792C141.426 165.521 150.174 166.25 158.923 166.974C159.521 167.037 160.057 167.255 160.529 167.625H40.713L40.6553 167.302C43.3161 166.927 45.9769 166.443 48.6587 166.193C56.0429 165.531 63.4324 164.938 70.8323 164.406C75.4664 164.068 79.8959 162.943 84.1207 161.037C88.0463 159.292 90.4972 156.406 91.3212 152.281C92.8379 144.787 94.129 137.297 93.326 129.547C92.0297 116.87 82.541 107.875 69.6357 107.672C65.0278 107.599 60.3989 108.208 55.812 107.932C53.3611 107.787 50.9417 106.526 48.6063 105.547C47.8243 105.214 47.3415 104.198 46.8796 103.261C55.3817 106.912 63.6003 104.37 71.9397 102.828C68.7278 99.2814 65.4687 95.9533 62.5454 92.3752C58.3784 87.2658 54.4737 81.9429 52.8415 75.3856C51.7762 71.0887 51.6502 66.8387 53.7075 62.2085C53.9961 65.3491 54.0381 68.0262 54.521 70.6252C55.6388 76.672 58.5568 81.896 62.6294 86.4689C67.9825 92.5731 74.2436 97.5575 81.4126 101.417C86.3354 104.026 91.022 107.083 95.9186 110.011C95.7664 110.136 95.9606 110.047 95.9606 109.969C95.7716 101.906 96.2912 93.7866 94.1499 85.8647C92.7592 80.7397 90.3555 76.172 86.5296 72.3908C83.3072 69.2085 79.9694 66.1356 76.9149 62.8022C73.6611 59.2502 71.6143 55.0679 71.6038 49.9845C76.3639 61.7658 87.6212 67.0887 96.5851 75.6356C96.9577 70.995 97.2884 67.0418 97.5875 63.1147C98.1176 56.0366 99.2984 49.0887 102.348 42.5991C103.319 40.6825 104.457 38.8752 105.764 37.172C106.168 36.6252 107.108 36.4637 107.8 36.1304L107.727 36.0679Z" fill="#F3F7FF"/>
</g>
<mask id="mask3_240_857" style="mask-type:luminance" maskUnits="userSpaceOnUse" x="94" y="17" width="5" height="23">
<path d="M94.7847 17H98.7995V39.526H94.7847V17Z" fill="white"/>
</mask>
<g mask="url(#mask3_240_857)">
<path d="M97.7973 38.9167C93.2052 29.75 94.2391 25.3698 99.9491 17.0469C105.559 25.849 105.386 32.5156 97.7973 38.9167Z" fill="#F3F7FF"/>
</g>
<path d="M62.708 23.6926C70.9896 28.6041 73.8079 35.3801 71.3989 44.2916C64.3611 41.6614 61.186 34.2343 62.708 23.6926Z" fill="#F3F7FF"/>
<path d="M89.2063 44.573C97.2098 52.1928 98.2174 57.2449 93.4626 65.8282C87.4692 60.6095 85.7058 51.8022 89.2063 44.573Z" fill="#F3F7FF"/>
<path d="M47.4095 76.3436C38.6083 77.8124 31.9431 74.7968 27.3247 67.4947C35.79 64.927 45.1528 68.9478 47.4095 76.3436Z" fill="#F3F7FF"/>
<mask id="mask4_240_857" style="mask-type:luminance" maskUnits="userSpaceOnUse" x="71" y="17" width="14" height="22">
<path d="M71.9448 17H84.0366V38.1927H71.9448V17Z" fill="white"/>
</mask>
<g mask="url(#mask4_240_857)">
<path d="M73.7765 17.3333C82.1893 23.7239 84.2203 28.7551 82.4359 36.9426C75.1567 35.1353 71.2888 26.552 73.7765 17.3333Z" fill="#F3F7FF"/>
</g>
<path d="M86.9018 21.5156C94.5589 29.0833 95.808 32.8281 92.2235 42.5677C86.0621 39.3906 83.7949 30.5729 86.9018 21.5156Z" fill="#F3F7FF"/>
<path d="M32.8042 118.979C38.2151 110.495 42.9227 109.99 52.8522 110.849C50.7372 117.911 42.1092 121.406 32.8042 118.979Z" fill="#F3F7FF"/>
<path d="M82.2258 58.1355C77.114 54.698 74.5057 50.2501 75.2982 44.1042C75.5606 42.073 75.5921 40.0105 75.7338 37.8542C83.4486 41.9949 86.1881 50.6459 82.2258 58.1355Z" fill="#F3F7FF"/>
<path d="M47.1888 65.7917C40.4449 68.1563 32.2788 63.6771 28.9199 55.8594C40.2035 55.1563 43.9822 57.7865 47.1888 65.7917Z" fill="#F3F7FF"/>
<path d="M44.8799 101.01C40.2878 108.713 34.9242 110.812 25.5771 108.677C29.2929 102.234 35.3545 99.7864 44.8799 101.01Z" fill="#F3F7FF"/>
<path d="M51.6187 59.8073C42.1457 56.849 40.6762 52.2396 40.7917 43.4062C49.7818 47.6354 51.7656 50.1823 51.6187 59.8073Z" fill="#F3F7FF"/>
<path d="M52.647 47.3489C62.4138 47.1666 67.2422 49.8697 70.1811 57.151C61.6371 58.401 57.2969 56.5781 52.647 47.3489Z" fill="#F3F7FF"/>
<path d="M80.9241 68.8645C73.0256 72.453 67.8614 70.8437 62.1094 64.9999C68.297 60.9947 75.7441 62.4791 80.9241 68.8645Z" fill="#F3F7FF"/>
<path d="M63.3431 44.8282C55.5495 46.5001 51.2513 44.1824 46.9268 36.5105C55.707 35.1928 61.6689 38.2032 63.3431 44.8282Z" fill="#F3F7FF"/>
<path d="M57.4805 71.6719C67.9768 71.901 71.2359 73.6667 73.3929 80.2396C65.3265 81.7448 60.897 79.1458 57.4805 71.6719Z" fill="#F3F7FF"/>
<path d="M40.2985 94.026C33.4129 92.4167 29.9071 88.1823 29.7339 81.2344C37.7059 83.0156 41.6368 87.7708 40.2985 94.026Z" fill="#F3F7FF"/>
<path d="M56.4052 89.849C49.1522 90.3907 45.0376 88.7397 42.2666 80.698C50.2333 81.4949 54.012 81.7292 56.4052 89.849Z" fill="#F3F7FF"/>
<mask id="mask5_240_857" style="mask-type:luminance" maskUnits="userSpaceOnUse" x="20" y="92" width="18" height="9">
<path d="M20.2031 92.8594H37.013V100.859H20.2031V92.8594Z" fill="white"/>
</mask>
<g mask="url(#mask5_240_857)">
<path d="M36.5879 97.5104C31.1088 101.641 24.895 100.453 20.2031 94.4792C26.5692 91.6771 31.4972 92.5573 36.5879 97.5104Z" fill="#F3F7FF"/>
</g>
<path d="M47.7822 94.0991C55.6335 92.2032 59.8163 93.2397 62.3932 99.1095C55.7437 101.042 51.3982 99.5418 47.7822 94.0991Z" fill="#F3F7FF"/>
<path d="M173.728 102.234L178.073 93.4009H181.327L173.602 108.734L165.499 93.4009H169.13L173.728 102.234Z" fill="#07593E"/>
<path d="M189.936 93.4009V108.463H186.787V93.4009H189.936Z" fill="#07593E"/>
<path d="M200.634 101.797C199.301 101.646 198.246 101.187 197.464 100.422C196.676 99.6613 196.288 98.6821 196.288 97.4842C196.288 96.8592 196.419 96.2863 196.687 95.755C196.949 95.2134 197.301 94.7498 197.737 94.3592C198.167 93.9738 198.644 93.6717 199.164 93.4634C199.678 93.255 200.203 93.1509 200.739 93.1509C201.505 93.1509 202.234 93.3071 202.922 93.6092C203.62 93.9009 204.255 94.3957 204.832 95.0884L202.355 96.88C202.145 96.6717 201.893 96.4998 201.599 96.3592C201.305 96.2082 201.017 96.13 200.739 96.13C200.319 96.13 199.972 96.2498 199.71 96.4842C199.458 96.7238 199.332 97.0467 199.332 97.4634C199.332 97.8123 199.484 98.1248 199.794 98.4009C200.098 98.6665 200.655 98.828 201.452 98.88C202.318 98.9373 203.111 99.1613 203.824 99.5467C204.538 99.9373 205.105 100.484 205.525 101.193C205.955 101.89 206.176 102.724 206.176 103.693C206.176 104.667 205.929 105.536 205.441 106.297C204.963 107.062 204.334 107.661 203.552 108.088C202.78 108.515 201.946 108.734 201.053 108.734C200.182 108.734 199.332 108.557 198.492 108.213C197.653 107.87 196.865 107.307 196.141 106.526L198.744 104.63C199.091 105.062 199.447 105.354 199.815 105.505C200.193 105.646 200.602 105.713 201.053 105.713C201.568 105.713 202.003 105.542 202.355 105.193C202.717 104.833 202.901 104.411 202.901 103.922C202.901 103.312 202.701 102.828 202.313 102.463C201.919 102.104 201.358 101.88 200.634 101.797Z" fill="#07593E"/>
<path d="M215.593 93.4009V108.463H212.444V93.4009H215.593Z" fill="#07593E"/>
<path d="M229.859 108.734C228.777 108.734 227.765 108.531 226.815 108.13C225.859 107.713 225.02 107.151 224.296 106.443C223.582 105.734 223.02 104.911 222.616 103.963C222.207 103.021 222.007 102.005 222.007 100.922C222.007 99.854 222.207 98.854 222.616 97.9217C223.02 96.979 223.582 96.1509 224.296 95.4425C225.02 94.7238 225.854 94.1613 226.794 93.755C227.744 93.354 228.756 93.1509 229.838 93.1509C230.929 93.1509 231.947 93.354 232.903 93.755C233.852 94.1613 234.687 94.7238 235.401 95.4425C236.114 96.1509 236.671 96.979 237.08 97.9217C237.5 98.854 237.71 99.854 237.71 100.922C237.71 102.005 237.5 103.021 237.08 103.963C236.671 104.911 236.114 105.734 235.401 106.443C234.687 107.151 233.852 107.713 232.903 108.13C231.963 108.531 230.95 108.734 229.859 108.734ZM229.838 96.13C228.982 96.13 228.205 96.3488 227.507 96.7759C226.804 97.2082 226.253 97.7863 225.849 98.505C225.44 99.229 225.24 100.036 225.24 100.922C225.24 101.812 225.44 102.625 225.849 103.359C226.253 104.083 226.804 104.661 227.507 105.088C228.205 105.505 228.987 105.713 229.859 105.713C230.709 105.713 231.486 105.505 232.189 105.088C232.887 104.661 233.438 104.083 233.847 103.359C234.251 102.625 234.456 101.812 234.456 100.922C234.456 100.036 234.246 99.229 233.826 98.505C233.417 97.7863 232.866 97.2082 232.168 96.7759C231.465 96.3488 230.688 96.13 229.838 96.13Z" fill="#07593E"/>
<path d="M254.891 102.109V93.401H258.04V108.734L247.25 99.8176V108.463H244.101V93.1301L254.891 102.109Z" fill="#07593E"/>
<path d="M270.912 108.463H267.763V96.2342H264.005V93.4009H274.901V96.2342H270.912V108.463Z" fill="#07593E"/>
<path d="M285.629 105.859H284.033V108.463H280.884V93.4009H286.153C287.046 93.4009 287.875 93.5571 288.631 93.8592C289.397 94.1665 290.063 94.5988 290.625 95.1509C291.197 95.6925 291.643 96.3175 291.968 97.0259C292.289 97.7342 292.451 98.505 292.451 99.3384C292.451 100.687 292.142 101.849 291.528 102.818C290.924 103.776 290.09 104.5 289.029 104.984L292.304 108.463H288.106L285.629 105.859ZM284.033 103.026H285.335C286.594 103.026 287.549 102.734 288.211 102.151C288.882 101.557 289.218 100.693 289.218 99.5675C289.218 98.9582 289.092 98.4009 288.841 97.9009C288.599 97.4009 288.237 96.9998 287.749 96.6925C287.271 96.3905 286.668 96.2342 285.944 96.2342H284.033V103.026Z" fill="#07593E"/>
<path d="M308.172 108.463H298.768V93.4009H306.829V96.2342H301.916V99.0467H307.627V101.859H301.916V105.63H308.172V108.463Z" fill="#07593E"/>
<path d="M323.981 108.463H314.576V93.4009H322.637V96.2342H317.725V99.0467H323.435V101.859H317.725V105.63H323.981V108.463Z" fill="#07593E"/>
<path d="M333.533 108.463H330.384V93.4009H335.548C336.482 93.4009 337.338 93.578 338.109 93.9217C338.891 94.2707 339.563 94.729 340.124 95.2967C340.681 95.8696 341.116 96.5155 341.426 97.2342C341.746 97.9582 341.909 98.703 341.909 99.4634C341.909 100.745 341.62 101.896 341.048 102.922C340.487 103.937 339.715 104.734 338.739 105.318C337.757 105.89 336.629 106.172 335.359 106.172H333.533V108.463ZM333.533 103.338H335.275C335.999 103.338 336.619 103.182 337.122 102.859C337.637 102.542 338.025 102.109 338.277 101.568C338.539 101.026 338.676 100.437 338.676 99.7967C338.676 99.203 338.55 98.6405 338.298 98.1092C338.046 97.5675 337.679 97.1248 337.206 96.7759C336.729 96.4165 336.141 96.2342 335.443 96.2342H333.533V103.338Z" fill="#07593E"/>
<path d="M359.126 108.463L358.118 106.443H350.771L349.784 108.463H346.53L354.528 93.1509L362.569 108.463H359.126ZM354.424 98.9217L352.135 103.609H356.733L354.424 98.9217Z" fill="#07593E"/>
<path d="M371.675 101.797C370.342 101.646 369.287 101.187 368.505 100.422C367.718 99.6613 367.33 98.6821 367.33 97.4842C367.33 96.8592 367.461 96.2863 367.728 95.755C367.991 95.2134 368.342 94.7498 368.778 94.3592C369.208 93.9738 369.686 93.6717 370.206 93.4634C370.72 93.255 371.245 93.1509 371.78 93.1509C372.546 93.1509 373.276 93.3071 373.963 93.6092C374.661 93.9009 375.296 94.3957 375.874 95.0884L373.396 96.88C373.187 96.6717 372.935 96.4998 372.641 96.3592C372.347 96.2082 372.058 96.13 371.78 96.13C371.36 96.13 371.014 96.2498 370.751 96.4842C370.499 96.7238 370.374 97.0467 370.374 97.4634C370.374 97.8123 370.526 98.1248 370.835 98.4009C371.14 98.6665 371.696 98.828 372.494 98.88C373.36 98.9373 374.152 99.1613 374.866 99.5467C375.58 99.9373 376.147 100.484 376.566 101.193C376.997 101.89 377.217 102.724 377.217 103.693C377.217 104.667 376.97 105.536 376.482 106.297C376.005 107.062 375.375 107.661 374.593 108.088C373.822 108.515 372.987 108.734 372.095 108.734C371.224 108.734 370.374 108.557 369.534 108.213C368.694 107.87 367.907 107.307 367.183 106.526L369.786 104.63C370.132 105.062 370.489 105.354 370.856 105.505C371.234 105.646 371.644 105.713 372.095 105.713C372.609 105.713 373.045 105.542 373.396 105.193C373.759 104.833 373.942 104.411 373.942 103.922C373.942 103.312 373.743 102.828 373.354 102.463C372.961 102.104 372.399 101.88 371.675 101.797Z" fill="#07593E"/>
<path d="M389.321 108.463H386.172V96.2342H382.414V93.4009H393.309V96.2342H389.321V108.463Z" fill="#07593E"/>
<path d="M406.514 108.734C405.433 108.734 404.42 108.531 403.47 108.13C402.515 107.713 401.676 107.151 400.951 106.443C400.238 105.734 399.676 104.911 399.272 103.963C398.863 103.021 398.663 102.005 398.663 100.922C398.663 99.854 398.863 98.854 399.272 97.9217C399.676 96.979 400.238 96.1509 400.951 95.4425C401.676 94.7238 402.51 94.1613 403.449 93.755C404.399 93.354 405.412 93.1509 406.493 93.1509C407.585 93.1509 408.603 93.354 409.558 93.755C410.508 94.1613 411.343 94.7238 412.056 95.4425C412.77 96.1509 413.326 96.979 413.736 97.9217C414.156 98.854 414.366 99.854 414.366 100.922C414.366 102.005 414.156 103.021 413.736 103.963C413.326 104.911 412.77 105.734 412.056 106.443C411.343 107.151 410.508 107.713 409.558 108.13C408.619 108.531 407.606 108.734 406.514 108.734ZM406.493 96.13C405.638 96.13 404.861 96.3488 404.163 96.7759C403.46 97.2082 402.909 97.7863 402.505 98.505C402.095 99.229 401.896 100.036 401.896 100.922C401.896 101.812 402.095 102.625 402.505 103.359C402.909 104.083 403.46 104.661 404.163 105.088C404.861 105.505 405.643 105.713 406.514 105.713C407.365 105.713 408.141 105.505 408.845 105.088C409.543 104.661 410.094 104.083 410.503 103.359C410.907 102.625 411.112 101.812 411.112 100.922C411.112 100.036 410.902 99.229 410.482 98.505C410.073 97.7863 409.522 97.2082 408.824 96.7759C408.12 96.3488 407.344 96.13 406.493 96.13Z" fill="#07593E"/>
<path d="M125.949 75.1387L124.647 72.5137H115.075L113.815 75.1387H109.554L119.987 55.2012L130.42 75.1387H125.949ZM119.819 62.722L116.859 68.8262H122.842L119.819 62.722Z" fill="#28B17E"/>
<path d="M138.664 71.743H136.586V75.1388H132.492V55.5347H139.357C140.517 55.5347 141.593 55.7378 142.59 56.1388C143.582 56.5295 144.448 57.0763 145.193 57.7847C145.933 58.493 146.505 59.3159 146.914 60.243C147.334 61.1753 147.544 62.1753 147.544 63.243C147.544 64.993 147.145 66.5034 146.347 67.7638C145.55 69.0295 144.463 69.9826 143.094 70.618L147.355 75.1388H141.897L138.664 71.743ZM136.586 68.0555H138.286C139.908 68.0555 141.152 67.6753 142.023 66.9097C142.889 66.1336 143.324 65.0138 143.324 63.5555C143.324 62.7534 143.162 62.0295 142.842 61.3888C142.532 60.7378 142.065 60.217 141.435 59.8263C140.805 59.4253 140.018 59.2222 139.084 59.2222H136.586V68.0555Z" fill="#28B17E"/>
<path d="M158.322 75.1388H154.208V59.2222H149.337V55.5347H163.528V59.2222H158.322V75.1388Z" fill="#28B17E"/>
<path d="M170.345 55.5347V75.1388H166.251V55.5347H170.345Z" fill="#28B17E"/>
<path d="M178.559 75.1388H174.465V55.5347H184.962V59.2222H178.559V62.868H185.99V66.5347H178.559V75.1388Z" fill="#28B17E"/>
<path d="M193.107 55.5347V75.1388H189.013V55.5347H193.107Z" fill="#28B17E"/>
<path d="M212.574 66.472H216.73C216.588 67.7376 216.226 68.9199 215.639 70.0137C215.061 71.097 214.316 72.0501 213.392 72.8678C212.469 73.6751 211.424 74.3158 210.264 74.7845C209.099 75.2428 207.861 75.472 206.549 75.472C205.132 75.472 203.809 75.2116 202.581 74.7012C201.363 74.1751 200.282 73.446 199.348 72.5137C198.424 71.5866 197.7 70.5085 197.186 69.2845C196.666 68.0658 196.409 66.7533 196.409 65.347C196.409 63.946 196.666 62.6335 197.186 61.4095C197.7 60.1751 198.424 59.0918 199.348 58.1595C200.282 57.2324 201.363 56.5085 202.581 55.9928C203.809 55.4668 205.126 55.2012 206.528 55.2012C208.359 55.2012 210.044 55.6387 211.587 56.5137C213.14 57.3783 214.363 58.5241 215.261 59.9512L212.049 62.222C211.335 61.1699 210.495 60.3835 209.53 59.8678C208.574 59.3574 207.583 59.097 206.549 59.097C205.457 59.097 204.455 59.3783 203.547 59.9303C202.649 60.4876 201.936 61.2428 201.405 62.2012C200.87 63.1491 200.608 64.196 200.608 65.347C200.608 66.4876 200.87 67.5345 201.405 68.4928C201.936 69.4408 202.649 70.1908 203.547 70.7428C204.455 71.2845 205.457 71.5553 206.549 71.5553C207.541 71.5553 208.459 71.3418 209.299 70.9095C210.138 70.4668 210.842 69.8626 211.419 69.097C212.007 68.3366 212.39 67.4616 212.574 66.472Z" fill="#28B17E"/>
<path d="M224.11 55.5347V75.1388H220.017V55.5347H224.11Z" fill="#28B17E"/>
<path d="M242.569 75.1387L241.268 72.5137H231.695L230.435 75.1387H226.174L236.607 55.2012L247.041 75.1387H242.569ZM236.439 62.722L233.479 68.8262H239.462L236.439 62.722Z" fill="#28B17E"/>
<path d="M249.112 55.5347H253.206V71.4513H261.162V75.1388H249.112V55.5347Z" fill="#28B17E"/>
<path d="M279.386 55.5347V75.1388H275.292V55.5347H279.386Z" fill="#28B17E"/>
<path d="M297.551 66.868V55.5347H301.666V75.4722L287.601 63.868V75.1388H283.507V55.1597L297.551 66.868Z" fill="#28B17E"/>
<path d="M313.365 75.1388H309.251V59.2222H304.38V55.5347H318.571V59.2222H313.365V75.1388Z" fill="#28B17E"/>
<path d="M333.533 75.1388H321.294V55.5347H331.79V59.2222H325.388V62.868H332.819V66.5347H325.388V71.4513H333.533V75.1388Z" fill="#28B17E"/>
<path d="M336.822 55.5347H340.916V71.4513H348.872V75.1388H336.822V55.5347Z" fill="#28B17E"/>
<path d="M351.502 55.5347H355.596V71.4513H363.552V75.1388H351.502V55.5347Z" fill="#28B17E"/>
<path d="M370.276 55.5347V75.1388H366.183V55.5347H370.276Z" fill="#28B17E"/>
<path d="M393.963 64.4303V65.0345C393.963 66.4824 393.695 67.8366 393.165 69.097C392.629 70.347 391.895 71.4616 390.961 72.4303C390.021 73.3887 388.93 74.1387 387.686 74.6803C386.452 75.2064 385.13 75.472 383.718 75.472C382.301 75.472 380.979 75.2116 379.75 74.7012C378.533 74.1751 377.452 73.446 376.518 72.5137C375.594 71.5866 374.87 70.5085 374.355 69.2845C373.836 68.0658 373.579 66.7533 373.579 65.347C373.579 63.946 373.836 62.6335 374.355 61.4095C374.87 60.1751 375.594 59.0918 376.518 58.1595C377.452 57.2324 378.533 56.5085 379.75 55.9928C380.979 55.4668 382.296 55.2012 383.697 55.2012C385.529 55.2012 387.213 55.6387 388.756 56.5137C390.31 57.3783 391.533 58.5241 392.43 59.9512L389.134 62.3262C388.615 61.3574 387.875 60.5762 386.909 59.9928C385.954 59.3991 384.894 59.097 383.718 59.097C382.626 59.097 381.624 59.3783 380.716 59.9303C379.819 60.4876 379.105 61.2428 378.575 62.2012C378.04 63.1491 377.777 64.196 377.777 65.347C377.777 66.4876 378.04 67.5345 378.575 68.4928C379.105 69.4408 379.819 70.1908 380.716 70.7428C381.624 71.2845 382.626 71.5553 383.718 71.5553C384.92 71.5553 386.017 71.2585 387.014 70.6595C388.022 70.0658 388.741 69.196 389.176 68.0553H383.823V64.4303H393.963Z" fill="#28B17E"/>
<path d="M409.425 75.1388H397.186V55.5347H407.682V59.2222H401.28V62.868H408.711V66.5347H401.28V71.4513H409.425V75.1388Z" fill="#28B17E"/>
<path d="M426.758 66.868V55.5347H430.873V75.4722L416.808 63.868V75.1388H412.714V55.1597L426.758 66.868Z" fill="#28B17E"/>
<path d="M450.318 66.472H454.475C454.333 67.7376 453.971 68.9199 453.383 70.0137C452.806 71.097 452.061 72.0501 451.137 72.8678C450.213 73.6751 449.169 74.3158 448.009 74.7845C446.844 75.2428 445.605 75.472 444.293 75.472C442.876 75.472 441.554 75.2116 440.326 74.7012C439.108 74.1751 438.027 73.446 437.093 72.5137C436.169 71.5866 435.445 70.5085 434.931 69.2845C434.411 68.0658 434.154 66.7533 434.154 65.347C434.154 63.946 434.411 62.6335 434.931 61.4095C435.445 60.1751 436.169 59.0918 437.093 58.1595C438.027 57.2324 439.108 56.5085 440.326 55.9928C441.554 55.4668 442.871 55.2012 444.272 55.2012C446.104 55.2012 447.789 55.6387 449.332 56.5137C450.885 57.3783 452.108 58.5241 453.005 59.9512L449.793 62.222C449.08 61.1699 448.24 60.3835 447.274 59.8678C446.319 59.3574 445.327 59.097 444.293 59.097C443.202 59.097 442.199 59.3783 441.291 59.9303C440.394 60.4876 439.68 61.2428 439.15 62.2012C438.615 63.1491 438.352 64.196 438.352 65.347C438.352 66.4876 438.615 67.5345 439.15 68.4928C439.68 69.4408 440.394 70.1908 441.291 70.7428C442.199 71.2845 443.202 71.5553 444.293 71.5553C445.285 71.5553 446.204 71.3418 447.043 70.9095C447.883 70.4668 448.586 69.8626 449.164 69.097C449.751 68.3366 450.135 67.4616 450.318 66.472Z" fill="#28B17E"/>
<path d="M470 75.1388H457.761V55.5347H468.258V59.2222H461.855V62.868H469.286V66.5347H461.855V71.4513H470V75.1388Z" fill="#28B17E"/>
</svg>
