<svg xmlns="http://www.w3.org/2000/svg" xmlns:xlink="http://www.w3.org/1999/xlink" width="150" zoomAndPan="magnify" viewBox="0 0 112.5 37.5" height="50" preserveAspectRatio="xMidYMid meet" version="1.2"><defs><clipPath id="9299661e6d"><path d="M 15 10.378906 L 17 10.378906 L 17 12 L 15 12 Z M 15 10.378906 "/></clipPath><clipPath id="e9895fbd5c"><path d="M 4.195312 20 L 7 20 L 7 22 L 4.195312 22 Z M 4.195312 20 "/></clipPath><clipPath id="ea469de9d7"><path d="M 4.195312 22 L 7 22 L 7 24 L 4.195312 24 Z M 4.195312 22 "/></clipPath><clipPath id="f23d951af4"><path d="M 4.195312 24 L 6 24 L 6 26 L 4.195312 26 Z M 4.195312 24 "/></clipPath><clipPath id="e5af286e09"><path d="M 20 10.378906 L 22 10.378906 L 22 12 L 20 12 Z M 20 10.378906 "/></clipPath><clipPath id="bb92adf78e"><path d="M 18 10.378906 L 19 10.378906 L 19 13 L 18 13 Z M 18 10.378906 "/></clipPath><clipPath id="c322bf67b3"><path d="M 22 10.378906 L 24 10.378906 L 24 13 L 22 13 Z M 22 10.378906 "/></clipPath><clipPath id="59dad6a74d"><path d="M 5 29 L 34.539062 29 L 34.539062 29.625 L 5 29.625 Z M 5 29 "/></clipPath><clipPath id="10cf4544a4"><path d="M 5 11 L 33 11 L 33 29.625 L 5 29.625 Z M 5 11 "/></clipPath></defs><g id="7c9308e65c"><g style="fill:#28b17e;fill-opacity:1;"><g transform="translate(36.327909, 21.396182)"><path style="stroke:none" d="M 4.03125 0 L 2.21875 0 L 2.21875 -5.65625 L 0.09375 -5.65625 L 0.09375 -7.0625 L 6.15625 -7.0625 L 6.15625 -5.65625 L 4.03125 -5.65625 Z M 4.03125 0 "/></g></g><g style="fill:#28b17e;fill-opacity:1;"><g transform="translate(43.286654, 21.396182)"><path style="stroke:none" d="M 0.609375 -7.0625 L 4.84375 -7.0625 C 5.550781 -7.0625 6.0625 -6.898438 6.375 -6.578125 C 6.695312 -6.265625 6.859375 -5.753906 6.859375 -5.046875 L 6.859375 -4.140625 C 6.859375 -3.578125 6.765625 -3.140625 6.578125 -2.828125 C 6.398438 -2.523438 6.109375 -2.320312 5.703125 -2.21875 L 6.96875 0 L 5 0 L 3.828125 -2.125 L 2.421875 -2.125 L 2.421875 0 L 0.609375 0 Z M 5.046875 -5.046875 C 5.046875 -5.453125 4.84375 -5.65625 4.4375 -5.65625 L 2.421875 -5.65625 L 2.421875 -3.53125 L 4.4375 -3.53125 C 4.84375 -3.53125 5.046875 -3.734375 5.046875 -4.140625 Z M 5.046875 -5.046875 "/></g></g><g style="fill:#28b17e;fill-opacity:1;"><g transform="translate(51.25382, 21.396182)"><path style="stroke:none" d="M 6.203125 0 L 0.609375 0 L 0.609375 -7.0625 L 6.203125 -7.0625 L 6.203125 -5.65625 L 2.421875 -5.65625 L 2.421875 -4.296875 L 5.40625 -4.296875 L 5.40625 -2.875 L 2.421875 -2.875 L 2.421875 -1.40625 L 6.203125 -1.40625 Z M 6.203125 0 "/></g></g><g style="fill:#28b17e;fill-opacity:1;"><g transform="translate(58.363819, 21.396182)"><path style="stroke:none" d="M 6.203125 0 L 0.609375 0 L 0.609375 -7.0625 L 6.203125 -7.0625 L 6.203125 -5.65625 L 2.421875 -5.65625 L 2.421875 -4.296875 L 5.40625 -4.296875 L 5.40625 -2.875 L 2.421875 -2.875 L 2.421875 -1.40625 L 6.203125 -1.40625 Z M 6.203125 0 "/></g></g><g style="fill:#28b17e;fill-opacity:1;"><g transform="translate(65.473819, 21.396182)"><path style="stroke:none" d=""/></g></g><g style="fill:#28b17e;fill-opacity:1;"><g transform="translate(69.205613, 21.396182)"><path style="stroke:none" d="M 3.578125 -2.125 L 5.296875 -7.0625 L 7.265625 -7.0625 L 4.59375 0 L 2.578125 0 L -0.09375 -7.0625 L 1.875 -7.0625 Z M 3.578125 -2.125 "/></g></g><g style="fill:#28b17e;fill-opacity:1;"><g transform="translate(77.071938, 21.396182)"><path style="stroke:none" d="M 3.9375 0 L 0.296875 0 L 0.296875 -1.40625 L 1.21875 -1.40625 L 1.21875 -5.65625 L 0.296875 -5.65625 L 0.296875 -7.0625 L 3.9375 -7.0625 L 3.9375 -5.65625 L 3.03125 -5.65625 L 3.03125 -1.40625 L 3.9375 -1.40625 Z M 3.9375 0 "/></g></g><g style="fill:#28b17e;fill-opacity:1;"><g transform="translate(82.013832, 21.396182)"><path style="stroke:none" d="M 0.390625 -1.46875 C 2.234375 -1.363281 3.484375 -1.3125 4.140625 -1.3125 C 4.296875 -1.3125 4.414062 -1.351562 4.5 -1.4375 C 4.59375 -1.53125 4.640625 -1.65625 4.640625 -1.8125 L 4.640625 -2.71875 L 2.328125 -2.71875 C 1.617188 -2.71875 1.101562 -2.878906 0.78125 -3.203125 C 0.457031 -3.523438 0.296875 -4.039062 0.296875 -4.75 L 0.296875 -5.046875 C 0.296875 -5.753906 0.457031 -6.265625 0.78125 -6.578125 C 1.101562 -6.898438 1.617188 -7.0625 2.328125 -7.0625 L 5.859375 -7.0625 L 5.859375 -5.65625 L 2.71875 -5.65625 C 2.320312 -5.65625 2.125 -5.453125 2.125 -5.046875 L 2.125 -4.84375 C 2.125 -4.4375 2.320312 -4.234375 2.71875 -4.234375 L 4.546875 -4.234375 C 5.203125 -4.234375 5.679688 -4.078125 5.984375 -3.765625 C 6.296875 -3.460938 6.453125 -2.984375 6.453125 -2.328125 L 6.453125 -1.8125 C 6.453125 -1.15625 6.296875 -0.671875 5.984375 -0.359375 C 5.679688 -0.0546875 5.203125 0.09375 4.546875 0.09375 C 4.203125 0.09375 3.835938 0.0859375 3.453125 0.078125 L 2.515625 0.046875 C 1.835938 0.00390625 1.128906 -0.0390625 0.390625 -0.09375 Z M 0.390625 -1.46875 "/></g></g><g style="fill:#28b17e;fill-opacity:1;"><g transform="translate(89.476787, 21.396182)"><path style="stroke:none" d="M 3.9375 0 L 0.296875 0 L 0.296875 -1.40625 L 1.21875 -1.40625 L 1.21875 -5.65625 L 0.296875 -5.65625 L 0.296875 -7.0625 L 3.9375 -7.0625 L 3.9375 -5.65625 L 3.03125 -5.65625 L 3.03125 -1.40625 L 3.9375 -1.40625 Z M 3.9375 0 "/></g></g><g style="fill:#28b17e;fill-opacity:1;"><g transform="translate(94.418681, 21.396182)"><path style="stroke:none" d="M 5.140625 -5.140625 C 5.140625 -5.546875 4.941406 -5.75 4.546875 -5.75 L 2.828125 -5.75 C 2.421875 -5.75 2.21875 -5.546875 2.21875 -5.140625 L 2.21875 -1.921875 C 2.21875 -1.515625 2.421875 -1.3125 2.828125 -1.3125 L 4.546875 -1.3125 C 4.941406 -1.3125 5.140625 -1.515625 5.140625 -1.921875 Z M 6.96875 -1.921875 C 6.96875 -1.210938 6.804688 -0.695312 6.484375 -0.375 C 6.160156 -0.0625 5.648438 0.09375 4.953125 0.09375 L 2.421875 0.09375 C 1.710938 0.09375 1.195312 -0.0625 0.875 -0.375 C 0.5625 -0.695312 0.40625 -1.210938 0.40625 -1.921875 L 0.40625 -5.140625 C 0.40625 -5.847656 0.5625 -6.363281 0.875 -6.6875 C 1.195312 -7.007812 1.710938 -7.171875 2.421875 -7.171875 L 4.953125 -7.171875 C 5.648438 -7.171875 6.160156 -7.007812 6.484375 -6.6875 C 6.804688 -6.363281 6.96875 -5.847656 6.96875 -5.140625 Z M 6.96875 -1.921875 "/></g></g><g style="fill:#28b17e;fill-opacity:1;"><g transform="translate(102.486686, 21.396182)"><path style="stroke:none" d="M 6.765625 0 L 4.84375 0 L 2.421875 -4.234375 L 2.421875 0 L 0.609375 0 L 0.609375 -7.0625 L 2.515625 -7.0625 L 4.953125 -2.828125 L 4.953125 -7.0625 L 6.765625 -7.0625 Z M 6.765625 0 "/></g></g><g style="fill:#0a5738;fill-opacity:1;"><g transform="translate(37.080072, 26.102257)"><path style="stroke:none" d="M 0.703125 0 L -0.03125 0 L 0.953125 -2.640625 L 1.71875 -2.640625 L 2.71875 0 L 1.984375 0 L 1.8125 -0.46875 L 0.859375 -0.46875 Z M 1.03125 -0.953125 L 1.640625 -0.953125 L 1.34375 -1.84375 Z M 1.03125 -0.953125 "/></g></g><g style="fill:#0a5738;fill-opacity:1;"><g transform="translate(40.715351, 26.102257)"><path style="stroke:none" d="M 0.21875 -2.640625 L 1.8125 -2.640625 C 2.070312 -2.640625 2.257812 -2.578125 2.375 -2.453125 C 2.5 -2.335938 2.5625 -2.144531 2.5625 -1.875 L 2.5625 -1.546875 C 2.5625 -1.335938 2.523438 -1.175781 2.453125 -1.0625 C 2.390625 -0.945312 2.28125 -0.867188 2.125 -0.828125 L 2.59375 0 L 1.859375 0 L 1.4375 -0.796875 L 0.90625 -0.796875 L 0.90625 0 L 0.21875 0 Z M 1.875 -1.875 C 1.875 -2.03125 1.800781 -2.109375 1.65625 -2.109375 L 0.90625 -2.109375 L 0.90625 -1.3125 L 1.65625 -1.3125 C 1.800781 -1.3125 1.875 -1.390625 1.875 -1.546875 Z M 1.875 -1.875 "/></g></g><g style="fill:#0a5738;fill-opacity:1;"><g transform="translate(44.38834, 26.102257)"><path style="stroke:none" d="M 1.5 0 L 0.828125 0 L 0.828125 -2.109375 L 0.03125 -2.109375 L 0.03125 -2.640625 L 2.296875 -2.640625 L 2.296875 -2.109375 L 1.5 -2.109375 Z M 1.5 0 "/></g></g><g style="fill:#0a5738;fill-opacity:1;"><g transform="translate(47.684251, 26.102257)"><path style="stroke:none" d="M 1.46875 0 L 0.109375 0 L 0.109375 -0.53125 L 0.453125 -0.53125 L 0.453125 -2.109375 L 0.109375 -2.109375 L 0.109375 -2.640625 L 1.46875 -2.640625 L 1.46875 -2.109375 L 1.125 -2.109375 L 1.125 -0.53125 L 1.46875 -0.53125 Z M 1.46875 0 "/></g></g><g style="fill:#0a5738;fill-opacity:1;"><g transform="translate(50.226011, 26.102257)"><path style="stroke:none" d="M 0.90625 0 L 0.21875 0 L 0.21875 -2.640625 L 2.3125 -2.640625 L 2.3125 -2.109375 L 0.90625 -2.109375 L 0.90625 -1.484375 L 2.015625 -1.484375 L 2.015625 -0.953125 L 0.90625 -0.953125 Z M 0.90625 0 "/></g></g><g style="fill:#0a5738;fill-opacity:1;"><g transform="translate(53.540775, 26.102257)"><path style="stroke:none" d="M 1.46875 0 L 0.109375 0 L 0.109375 -0.53125 L 0.453125 -0.53125 L 0.453125 -2.109375 L 0.109375 -2.109375 L 0.109375 -2.640625 L 1.46875 -2.640625 L 1.46875 -2.109375 L 1.125 -2.109375 L 1.125 -0.53125 L 1.46875 -0.53125 Z M 1.46875 0 "/></g></g><g style="fill:#0a5738;fill-opacity:1;"><g transform="translate(56.0834, 26.102257)"><path style="stroke:none" d="M 2.265625 -0.03125 C 1.703125 0.0078125 1.234375 0.03125 0.859375 0.03125 C 0.617188 0.03125 0.441406 -0.0234375 0.328125 -0.140625 C 0.210938 -0.253906 0.15625 -0.429688 0.15625 -0.671875 L 0.15625 -1.875 C 0.15625 -2.144531 0.210938 -2.335938 0.328125 -2.453125 C 0.453125 -2.578125 0.644531 -2.640625 0.90625 -2.640625 L 2.265625 -2.640625 L 2.265625 -2.109375 L 1.046875 -2.109375 C 0.898438 -2.109375 0.828125 -2.03125 0.828125 -1.875 L 0.828125 -0.671875 C 0.828125 -0.617188 0.84375 -0.570312 0.875 -0.53125 C 0.914062 -0.5 0.960938 -0.484375 1.015625 -0.484375 C 1.066406 -0.484375 1.125 -0.484375 1.1875 -0.484375 C 1.25 -0.492188 1.3125 -0.5 1.375 -0.5 C 1.445312 -0.5 1.515625 -0.5 1.578125 -0.5 C 1.648438 -0.507812 1.738281 -0.515625 1.84375 -0.515625 C 1.957031 -0.523438 2.097656 -0.535156 2.265625 -0.546875 Z M 2.265625 -0.03125 "/></g></g><g style="fill:#0a5738;fill-opacity:1;"><g transform="translate(59.379312, 26.102257)"><path style="stroke:none" d="M 1.46875 0 L 0.109375 0 L 0.109375 -0.53125 L 0.453125 -0.53125 L 0.453125 -2.109375 L 0.109375 -2.109375 L 0.109375 -2.640625 L 1.46875 -2.640625 L 1.46875 -2.109375 L 1.125 -2.109375 L 1.125 -0.53125 L 1.46875 -0.53125 Z M 1.46875 0 "/></g></g><g style="fill:#0a5738;fill-opacity:1;"><g transform="translate(61.921072, 26.102257)"><path style="stroke:none" d="M 0.703125 0 L -0.03125 0 L 0.953125 -2.640625 L 1.71875 -2.640625 L 2.71875 0 L 1.984375 0 L 1.8125 -0.46875 L 0.859375 -0.46875 Z M 1.03125 -0.953125 L 1.640625 -0.953125 L 1.34375 -1.84375 Z M 1.03125 -0.953125 "/></g></g><g style="fill:#0a5738;fill-opacity:1;"><g transform="translate(65.556351, 26.102257)"><path style="stroke:none" d="M 0.90625 -0.53125 L 2.28125 -0.53125 L 2.28125 0 L 0.21875 0 L 0.21875 -2.640625 L 0.90625 -2.640625 Z M 0.90625 -0.53125 "/></g></g><g style="fill:#0a5738;fill-opacity:1;"><g transform="translate(68.833408, 26.102257)"><path style="stroke:none" d=""/></g></g><g style="fill:#0a5738;fill-opacity:1;"><g transform="translate(70.922675, 26.102257)"><path style="stroke:none" d="M 1.46875 0 L 0.109375 0 L 0.109375 -0.53125 L 0.453125 -0.53125 L 0.453125 -2.109375 L 0.109375 -2.109375 L 0.109375 -2.640625 L 1.46875 -2.640625 L 1.46875 -2.109375 L 1.125 -2.109375 L 1.125 -0.53125 L 1.46875 -0.53125 Z M 1.46875 0 "/></g></g><g style="fill:#0a5738;fill-opacity:1;"><g transform="translate(73.464435, 26.102257)"><path style="stroke:none" d="M 2.515625 0 L 1.8125 0 L 0.90625 -1.578125 L 0.90625 0 L 0.21875 0 L 0.21875 -2.640625 L 0.9375 -2.640625 L 1.84375 -1.046875 L 1.84375 -2.640625 L 2.515625 -2.640625 Z M 2.515625 0 "/></g></g><g style="fill:#0a5738;fill-opacity:1;"><g transform="translate(77.175132, 26.102257)"><path style="stroke:none" d="M 1.5 0 L 0.828125 0 L 0.828125 -2.109375 L 0.03125 -2.109375 L 0.03125 -2.640625 L 2.296875 -2.640625 L 2.296875 -2.109375 L 1.5 -2.109375 Z M 1.5 0 "/></g></g><g style="fill:#0a5738;fill-opacity:1;"><g transform="translate(80.471043, 26.102257)"><path style="stroke:none" d="M 2.3125 0 L 0.21875 0 L 0.21875 -2.640625 L 2.3125 -2.640625 L 2.3125 -2.109375 L 0.90625 -2.109375 L 0.90625 -1.59375 L 2.015625 -1.59375 L 2.015625 -1.078125 L 0.90625 -1.078125 L 0.90625 -0.53125 L 2.3125 -0.53125 Z M 2.3125 0 "/></g></g><g style="fill:#0a5738;fill-opacity:1;"><g transform="translate(83.823515, 26.102257)"><path style="stroke:none" d="M 0.90625 -0.53125 L 2.28125 -0.53125 L 2.28125 0 L 0.21875 0 L 0.21875 -2.640625 L 0.90625 -2.640625 Z M 0.90625 -0.53125 "/></g></g><g style="fill:#0a5738;fill-opacity:1;"><g transform="translate(87.100572, 26.102257)"><path style="stroke:none" d="M 0.90625 -0.53125 L 2.28125 -0.53125 L 2.28125 0 L 0.21875 0 L 0.21875 -2.640625 L 0.90625 -2.640625 Z M 0.90625 -0.53125 "/></g></g><g style="fill:#0a5738;fill-opacity:1;"><g transform="translate(90.377628, 26.102257)"><path style="stroke:none" d="M 1.46875 0 L 0.109375 0 L 0.109375 -0.53125 L 0.453125 -0.53125 L 0.453125 -2.109375 L 0.109375 -2.109375 L 0.109375 -2.640625 L 1.46875 -2.640625 L 1.46875 -2.109375 L 1.125 -2.109375 L 1.125 -0.53125 L 1.46875 -0.53125 Z M 1.46875 0 "/></g></g><g style="fill:#0a5738;fill-opacity:1;"><g transform="translate(92.919388, 26.102257)"><path style="stroke:none" d="M 2.484375 -0.0625 C 1.898438 0 1.359375 0.03125 0.859375 0.03125 C 0.617188 0.03125 0.441406 -0.0234375 0.328125 -0.140625 C 0.210938 -0.253906 0.15625 -0.429688 0.15625 -0.671875 L 0.15625 -1.875 C 0.15625 -2.144531 0.210938 -2.335938 0.328125 -2.453125 C 0.453125 -2.578125 0.644531 -2.640625 0.90625 -2.640625 L 2.265625 -2.640625 L 2.265625 -2.109375 L 1.046875 -2.109375 C 0.898438 -2.109375 0.828125 -2.03125 0.828125 -1.875 L 0.828125 -0.671875 C 0.828125 -0.617188 0.84375 -0.570312 0.875 -0.53125 C 0.914062 -0.5 0.960938 -0.484375 1.015625 -0.484375 C 1.304688 -0.484375 1.570312 -0.492188 1.8125 -0.515625 L 1.8125 -1.046875 L 1.3125 -1.046875 L 1.3125 -1.5 L 2.484375 -1.5 Z M 2.484375 -0.0625 "/></g></g><g style="fill:#0a5738;fill-opacity:1;"><g transform="translate(96.51696, 26.102257)"><path style="stroke:none" d="M 2.3125 0 L 0.21875 0 L 0.21875 -2.640625 L 2.3125 -2.640625 L 2.3125 -2.109375 L 0.90625 -2.109375 L 0.90625 -1.59375 L 2.015625 -1.59375 L 2.015625 -1.078125 L 0.90625 -1.078125 L 0.90625 -0.53125 L 2.3125 -0.53125 Z M 2.3125 0 "/></g></g><g style="fill:#0a5738;fill-opacity:1;"><g transform="translate(99.869429, 26.102257)"><path style="stroke:none" d="M 2.515625 0 L 1.8125 0 L 0.90625 -1.578125 L 0.90625 0 L 0.21875 0 L 0.21875 -2.640625 L 0.9375 -2.640625 L 1.84375 -1.046875 L 1.84375 -2.640625 L 2.515625 -2.640625 Z M 2.515625 0 "/></g></g><g style="fill:#0a5738;fill-opacity:1;"><g transform="translate(103.58013, 26.102257)"><path style="stroke:none" d="M 2.265625 -0.03125 C 1.703125 0.0078125 1.234375 0.03125 0.859375 0.03125 C 0.617188 0.03125 0.441406 -0.0234375 0.328125 -0.140625 C 0.210938 -0.253906 0.15625 -0.429688 0.15625 -0.671875 L 0.15625 -1.875 C 0.15625 -2.144531 0.210938 -2.335938 0.328125 -2.453125 C 0.453125 -2.578125 0.644531 -2.640625 0.90625 -2.640625 L 2.265625 -2.640625 L 2.265625 -2.109375 L 1.046875 -2.109375 C 0.898438 -2.109375 0.828125 -2.03125 0.828125 -1.875 L 0.828125 -0.671875 C 0.828125 -0.617188 0.84375 -0.570312 0.875 -0.53125 C 0.914062 -0.5 0.960938 -0.484375 1.015625 -0.484375 C 1.066406 -0.484375 1.125 -0.484375 1.1875 -0.484375 C 1.25 -0.492188 1.3125 -0.5 1.375 -0.5 C 1.445312 -0.5 1.515625 -0.5 1.578125 -0.5 C 1.648438 -0.507812 1.738281 -0.515625 1.84375 -0.515625 C 1.957031 -0.523438 2.097656 -0.535156 2.265625 -0.546875 Z M 2.265625 -0.03125 "/></g></g><g style="fill:#0a5738;fill-opacity:1;"><g transform="translate(106.876036, 26.102257)"><path style="stroke:none" d="M 2.3125 0 L 0.21875 0 L 0.21875 -2.640625 L 2.3125 -2.640625 L 2.3125 -2.109375 L 0.90625 -2.109375 L 0.90625 -1.59375 L 2.015625 -1.59375 L 2.015625 -1.078125 L 0.90625 -1.078125 L 0.90625 -0.53125 L 2.3125 -0.53125 Z M 2.3125 0 "/></g></g><path style="fill:none;stroke-width:1;stroke-linecap:round;stroke-linejoin:miter;stroke:#28b17e;stroke-opacity:1;stroke-miterlimit:4;" d="M 0.500428 0.502175 L 25.459041 0.502175 " transform="matrix(0,0.740132,-0.740132,0,35.649019,10.383523)"/><path style=" stroke:none;fill-rule:evenodd;fill:#28b17e;fill-opacity:1;" d="M 15.46875 20.277344 C 15.46875 20.277344 13.988281 21.492188 12.996094 20.058594 C 12.992188 20.058594 14.515625 18.898438 15.46875 20.277344 "/><path style=" stroke:none;fill-rule:evenodd;fill:#28b17e;fill-opacity:1;" d="M 12.863281 17.023438 C 12.863281 17.023438 10.785156 17.078125 10.898438 15.1875 C 10.898438 15.1875 12.976562 15.210938 12.863281 17.023438 "/><path style=" stroke:none;fill-rule:evenodd;fill:#28b17e;fill-opacity:1;" d="M 12.550781 13.957031 C 12.550781 13.957031 10.859375 14.0625 10.890625 12.523438 C 10.890625 12.523438 12.589844 12.480469 12.550781 13.957031 "/><path style=" stroke:none;fill-rule:evenodd;fill:#28b17e;fill-opacity:1;" d="M 16.386719 13.957031 C 16.386719 13.957031 15.972656 12.832031 17.023438 12.546875 C 17.015625 12.546875 17.390625 13.6875 16.386719 13.957031 "/><g clip-rule="nonzero" clip-path="url(#9299661e6d)"><path style=" stroke:none;fill-rule:evenodd;fill:#28b17e;fill-opacity:1;" d="M 16.726562 11.519531 C 16.726562 11.519531 15.535156 11.46875 15.671875 10.386719 C 15.671875 10.386719 16.863281 10.484375 16.726562 11.519531 "/></g><path style=" stroke:none;fill-rule:evenodd;fill:#28b17e;fill-opacity:1;" d="M 13.964844 13.121094 C 13.964844 13.121094 13.488281 11.664062 14.847656 11.347656 C 14.847656 11.347656 15.269531 12.820312 13.964844 13.121094 "/><path style=" stroke:none;fill-rule:evenodd;fill:#28b17e;fill-opacity:1;" d="M 8.816406 17.355469 C 8.816406 17.355469 7.152344 17.078125 7.539062 15.597656 C 7.539062 15.597656 9.183594 15.9375 8.816406 17.355469 "/><path style=" stroke:none;fill-rule:evenodd;fill:#28b17e;fill-opacity:1;" d="M 9.742188 15.597656 C 9.742188 15.597656 9.125 14.230469 10.40625 13.769531 C 10.40625 13.769531 10.980469 15.160156 9.742188 15.597656 "/><path style=" stroke:none;fill-rule:evenodd;fill:#28b17e;fill-opacity:1;" d="M 7.894531 20.035156 C 7.894531 20.035156 5.960938 19.605469 6.503906 17.886719 C 6.503906 17.886719 8.414062 18.390625 7.894531 20.035156 "/><path style=" stroke:none;fill-rule:evenodd;fill:#28b17e;fill-opacity:1;" d="M 15.898438 16.867188 C 15.898438 16.867188 14.039062 16.503906 14.507812 14.847656 C 14.507812 14.847656 16.351562 15.273438 15.898438 16.867188 "/><path style=" stroke:none;fill-rule:evenodd;fill:#28b17e;fill-opacity:1;" d="M 11.519531 20.035156 C 11.519531 20.035156 10.515625 18.683594 11.8125 17.886719 C 11.820312 17.886719 12.769531 19.265625 11.519531 20.035156 "/><path style=" stroke:none;fill-rule:evenodd;fill:#28b17e;fill-opacity:1;" d="M 9.34375 21.925781 C 9.34375 21.925781 8.347656 23.285156 7.199219 22.277344 C 7.191406 22.277344 8.234375 20.957031 9.34375 21.925781 "/><g clip-rule="nonzero" clip-path="url(#e9895fbd5c)"><path style=" stroke:none;fill-rule:evenodd;fill:#28b17e;fill-opacity:1;" d="M 6.082031 21.140625 C 6.082031 21.140625 5.117188 22.234375 4.195312 21.273438 C 4.195312 21.273438 5.207031 20.21875 6.082031 21.140625 "/></g><path style=" stroke:none;fill-rule:evenodd;fill:#28b17e;fill-opacity:1;" d="M 11.035156 24.015625 C 11.035156 24.015625 9.472656 24.640625 9.027344 23.175781 C 9.027344 23.175781 10.613281 22.613281 11.035156 24.015625 "/><g clip-rule="nonzero" clip-path="url(#ea469de9d7)"><path style=" stroke:none;fill-rule:evenodd;fill:#28b17e;fill-opacity:1;" d="M 6.375 23.683594 C 6.375 23.683594 4.761719 23.941406 4.648438 22.453125 C 4.65625 22.460938 6.277344 22.257812 6.375 23.683594 "/></g><path style=" stroke:none;fill-rule:evenodd;fill:#28b17e;fill-opacity:1;" d="M 20.308594 20.25 C 20.308594 20.25 18.554688 20.074219 18.847656 18.496094 C 18.847656 18.496094 20.59375 18.738281 20.308594 20.25 "/><path style=" stroke:none;fill-rule:evenodd;fill:#28b17e;fill-opacity:1;" d="M 18.628906 17.265625 C 18.628906 17.265625 18.191406 15.988281 19.378906 15.6875 C 19.378906 15.6875 19.769531 16.980469 18.628906 17.265625 "/><path style=" stroke:none;fill-rule:evenodd;fill:#28b17e;fill-opacity:1;" d="M 19.972656 14.699219 C 19.972656 14.699219 18.820312 14.390625 19.1875 13.363281 C 19.1875 13.363281 20.328125 13.71875 19.972656 14.699219 "/><path style=" stroke:none;fill-rule:evenodd;fill:#28b17e;fill-opacity:1;" d="M 14.023438 25.109375 C 14.023438 25.109375 14.117188 26.175781 13.140625 26.175781 C 13.148438 26.175781 13.089844 25.101562 14.023438 25.109375 "/><path style=" stroke:none;fill-rule:evenodd;fill:#28b17e;fill-opacity:1;" d="M 11.222656 25.867188 C 11.222656 25.867188 10.792969 27.488281 9.351562 26.976562 C 9.351562 26.976562 9.84375 25.367188 11.222656 25.867188 "/><path style=" stroke:none;fill-rule:evenodd;fill:#28b17e;fill-opacity:1;" d="M 7.894531 25.667969 C 7.894531 25.667969 7.402344 27.171875 6.082031 26.605469 C 6.082031 26.605469 6.625 25.125 7.894531 25.667969 "/><g clip-rule="nonzero" clip-path="url(#f23d951af4)"><path style=" stroke:none;fill-rule:evenodd;fill:#28b17e;fill-opacity:1;" d="M 5.363281 25.082031 C 5.363281 25.082031 4.777344 25.707031 4.253906 25.132812 C 4.246094 25.125 4.859375 24.523438 5.363281 25.082031 "/></g><path style=" stroke:none;fill-rule:evenodd;fill:#28b17e;fill-opacity:1;" d="M 21.273438 13.617188 C 21.273438 13.617188 20.867188 12.191406 22.1875 11.925781 C 22.1875 11.925781 22.550781 13.371094 21.273438 13.617188 "/><g clip-rule="nonzero" clip-path="url(#e5af286e09)"><path style=" stroke:none;fill-rule:evenodd;fill:#28b17e;fill-opacity:1;" d="M 20.464844 11.664062 C 20.464844 11.664062 20.246094 10.570312 21.257812 10.457031 C 21.257812 10.457031 21.433594 11.558594 20.464844 11.664062 "/></g><g clip-rule="nonzero" clip-path="url(#bb92adf78e)"><path style=" stroke:none;fill-rule:evenodd;fill:#28b17e;fill-opacity:1;" d="M 18.277344 12.152344 C 18.277344 12.152344 17.792969 11.105469 18.773438 10.742188 C 18.773438 10.742188 19.226562 11.8125 18.277344 12.152344 "/></g><g clip-rule="nonzero" clip-path="url(#c322bf67b3)"><path style=" stroke:none;fill-rule:evenodd;fill:#28b17e;fill-opacity:1;" d="M 23.425781 12.546875 C 23.425781 12.546875 22.480469 11.769531 23.257812 10.976562 C 23.257812 10.976562 24.171875 11.785156 23.425781 12.546875 "/></g><path style=" stroke:none;fill-rule:evenodd;fill:#28b17e;fill-opacity:1;" d="M 23.015625 18.890625 C 23.015625 18.890625 22.292969 16.980469 24.074219 16.472656 C 24.074219 16.472656 24.730469 18.414062 23.015625 18.890625 "/><path style=" stroke:none;fill-rule:evenodd;fill:#28b17e;fill-opacity:1;" d="M 21.53125 16.15625 C 21.53125 16.15625 22.089844 14.609375 23.457031 15.234375 C 23.457031 15.234375 22.835938 16.765625 21.53125 16.15625 "/><path style=" stroke:none;fill-rule:evenodd;fill:#28b17e;fill-opacity:1;" d="M 24.035156 13.371094 C 24.035156 13.371094 24.664062 12.175781 25.691406 12.832031 C 25.691406 12.832031 25.019531 14.003906 24.035156 13.371094 "/><path style=" stroke:none;fill-rule:evenodd;fill:#28b17e;fill-opacity:1;" d="M 25.253906 15.777344 C 25.253906 15.777344 24 15.460938 24.375 14.351562 C 24.382812 14.351562 25.621094 14.714844 25.253906 15.777344 "/><path style=" stroke:none;fill-rule:evenodd;fill:#28b17e;fill-opacity:1;" d="M 24.8125 22.082031 C 24.8125 22.082031 25.054688 20.253906 26.695312 20.617188 C 26.695312 20.609375 26.386719 22.429688 24.8125 22.082031 "/><path style=" stroke:none;fill-rule:evenodd;fill:#28b17e;fill-opacity:1;" d="M 28.679688 16.285156 C 28.679688 16.285156 29.132812 14.730469 30.5 15.257812 C 30.5 15.265625 29.992188 16.796875 28.679688 16.285156 "/><path style=" stroke:none;fill-rule:evenodd;fill:#28b17e;fill-opacity:1;" d="M 27.585938 20.027344 C 27.585938 20.027344 28.839844 19.425781 29.292969 20.609375 C 29.300781 20.609375 28.015625 21.167969 27.585938 20.027344 "/><path style=" stroke:none;fill-rule:evenodd;fill:#28b17e;fill-opacity:1;" d="M 30.25 20.148438 C 30.25 20.148438 30.21875 18.828125 31.421875 18.902344 C 31.414062 18.902344 31.398438 20.226562 30.25 20.148438 "/><path style=" stroke:none;fill-rule:evenodd;fill:#28b17e;fill-opacity:1;" d="M 28.144531 26.121094 C 28.144531 26.121094 29.980469 25.421875 30.476562 27.132812 C 30.476562 27.140625 28.613281 27.777344 28.144531 26.121094 "/><path style=" stroke:none;fill-rule:evenodd;fill:#28b17e;fill-opacity:1;" d="M 26.46875 26.175781 C 26.46875 26.175781 27.523438 26.765625 26.914062 27.675781 C 26.914062 27.675781 25.878906 27.050781 26.46875 26.175781 "/><path style=" stroke:none;fill-rule:evenodd;fill:#28b17e;fill-opacity:1;" d="M 28.777344 24.507812 C 28.777344 24.507812 28.816406 23.183594 30.015625 23.320312 C 30.007812 23.320312 29.925781 24.640625 28.777344 24.507812 "/><path style=" stroke:none;fill-rule:evenodd;fill:#28b17e;fill-opacity:1;" d="M 31.632812 24.242188 C 31.632812 24.242188 31.671875 22.921875 32.871094 23.058594 C 32.863281 23.058594 32.78125 24.378906 31.632812 24.242188 "/><path style=" stroke:none;fill-rule:evenodd;fill:#28b17e;fill-opacity:1;" d="M 28.777344 24.507812 C 28.777344 24.507812 28.824219 22.898438 30.273438 23.0625 C 30.273438 23.0625 30.167969 24.671875 28.777344 24.507812 "/><path style=" stroke:none;fill-rule:evenodd;fill:#28b17e;fill-opacity:1;" d="M 30.28125 21.742188 C 30.28125 21.742188 31.316406 21.070312 31.851562 22.058594 C 31.84375 22.058594 30.785156 22.695312 30.28125 21.742188 "/><path style=" stroke:none;fill-rule:evenodd;fill:#28b17e;fill-opacity:1;" d="M 28.996094 14.335938 C 28.996094 14.335938 28.183594 13.21875 29.261719 12.570312 C 29.261719 12.570312 30.03125 13.71875 28.996094 14.335938 "/><path style=" stroke:none;fill-rule:evenodd;fill:#28b17e;fill-opacity:1;" d="M 26.605469 14.871094 C 26.605469 14.871094 25.992188 13.496094 27.289062 13.050781 C 27.285156 13.050781 27.84375 14.449219 26.605469 14.871094 "/><path style=" stroke:none;fill-rule:evenodd;fill:#28b17e;fill-opacity:1;" d="M 23.597656 24.734375 C 23.597656 24.734375 24.738281 25.585938 23.878906 26.550781 C 23.878906 26.550781 22.769531 25.652344 23.597656 24.734375 "/><path style=" stroke:none;fill-rule:evenodd;fill:#28b17e;fill-opacity:1;" d="M 31.59375 25.625 C 31.59375 25.625 32.757812 24.980469 33.25 26.085938 C 33.242188 26.085938 32.0625 26.679688 31.59375 25.625 "/><path style=" stroke:none;fill-rule:evenodd;fill:#28b17e;fill-opacity:1;" d="M 28.574219 18.488281 C 28.574219 18.488281 28.542969 17.09375 29.8125 17.167969 C 29.8125 17.167969 29.789062 18.5625 28.574219 18.488281 "/><g clip-rule="nonzero" clip-path="url(#59dad6a74d)"><path style=" stroke:none;fill-rule:nonzero;fill:#0a5738;fill-opacity:1;" d="M 34.167969 29.769531 C 34.167969 29.796875 34.078125 29.828125 33.894531 29.855469 C 33.714844 29.882812 33.445312 29.910156 33.085938 29.9375 C 32.730469 29.964844 32.292969 29.988281 31.773438 30.011719 C 31.253906 30.035156 30.664062 30.058594 30.003906 30.078125 C 29.34375 30.097656 28.625 30.117188 27.851562 30.132812 C 27.074219 30.148438 26.253906 30.164062 25.394531 30.171875 C 24.53125 30.183594 23.640625 30.191406 22.726562 30.199219 C 21.808594 30.203125 20.886719 30.207031 19.953125 30.207031 C 19.019531 30.207031 18.09375 30.203125 17.179688 30.199219 C 16.261719 30.191406 15.375 30.183594 14.511719 30.171875 C 13.648438 30.164062 12.828125 30.148438 12.054688 30.132812 C 11.277344 30.117188 10.558594 30.097656 9.898438 30.078125 C 9.238281 30.058594 8.648438 30.035156 8.128906 30.011719 C 7.613281 29.988281 7.175781 29.964844 6.816406 29.9375 C 6.460938 29.910156 6.191406 29.882812 6.007812 29.855469 C 5.824219 29.828125 5.734375 29.796875 5.734375 29.769531 C 5.734375 29.742188 5.824219 29.710938 6.007812 29.683594 C 6.191406 29.65625 6.460938 29.628906 6.816406 29.601562 C 7.175781 29.574219 7.613281 29.550781 8.128906 29.527344 C 8.648438 29.503906 9.238281 29.480469 9.898438 29.460938 C 10.558594 29.4375 11.277344 29.421875 12.054688 29.40625 C 12.828125 29.390625 13.648438 29.375 14.511719 29.363281 C 15.375 29.355469 16.261719 29.34375 17.179688 29.339844 C 18.09375 29.335938 19.019531 29.332031 19.953125 29.332031 C 20.886719 29.332031 21.808594 29.335938 22.726562 29.339844 C 23.640625 29.34375 24.53125 29.355469 25.394531 29.363281 C 26.253906 29.375 27.074219 29.390625 27.851562 29.40625 C 28.625 29.421875 29.34375 29.4375 30.003906 29.460938 C 30.664062 29.480469 31.253906 29.503906 31.773438 29.527344 C 32.292969 29.550781 32.730469 29.574219 33.085938 29.601562 C 33.445312 29.628906 33.714844 29.65625 33.894531 29.683594 C 34.078125 29.710938 34.167969 29.742188 34.167969 29.769531 Z M 34.167969 29.769531 "/></g><g clip-rule="nonzero" clip-path="url(#10cf4544a4)"><path style=" stroke:none;fill-rule:nonzero;fill:#0a5738;fill-opacity:1;" d="M 31.933594 24.808594 C 31.789062 24.75 31.671875 24.726562 31.511719 24.703125 C 31.164062 24.664062 30.855469 24.679688 30.507812 24.726562 C 29.949219 24.800781 29.359375 24.976562 28.839844 25.035156 C 28.183594 25.132812 27.601562 25.1875 26.945312 25.109375 C 26.542969 25.066406 26.210938 24.996094 25.855469 24.792969 C 25.613281 24.65625 25.464844 24.523438 25.296875 24.296875 C 25.253906 24.234375 25.199219 24.144531 25.152344 24.0625 C 25.070312 23.910156 25.191406 23.730469 25.367188 23.742188 C 25.554688 23.765625 25.742188 23.78125 25.9375 23.789062 C 26.484375 23.789062 26.851562 23.722656 27.351562 23.503906 C 27.351562 23.503906 27.359375 23.503906 27.359375 23.496094 C 27.984375 23.175781 28.4375 22.792969 28.945312 22.300781 C 29.398438 21.855469 29.925781 21.261719 30.492188 20.988281 C 30.492188 20.988281 30.5 20.988281 30.5 20.988281 C 30.785156 20.875 31.019531 20.84375 31.332031 20.84375 C 31.34375 20.84375 31.359375 20.84375 31.375 20.84375 C 31.472656 20.84375 31.488281 20.707031 31.390625 20.695312 C 31.375 20.695312 31.351562 20.6875 31.339844 20.6875 C 31 20.648438 30.742188 20.648438 30.402344 20.730469 C 29.699219 20.941406 29.132812 21.449219 28.574219 21.910156 C 28.097656 22.285156 27.644531 22.605469 27.0625 22.785156 C 26.671875 22.90625 26.40625 22.921875 26 22.867188 C 24.972656 22.679688 23.789062 22.160156 22.714844 22.371094 C 22.578125 22.398438 22.445312 22.292969 22.445312 22.152344 C 22.4375 21.597656 22.675781 21.335938 23.613281 20.957031 C 24.140625 20.746094 24.792969 20.503906 25.191406 20.292969 C 25.191406 20.292969 25.199219 20.292969 25.199219 20.285156 C 25.863281 19.878906 25.765625 19.800781 26.527344 19.628906 C 26.929688 19.539062 27.320312 19.484375 27.75 19.441406 C 28.308594 19.378906 28.847656 19.335938 29.375 19.136719 C 29.609375 19.046875 29.78125 18.957031 29.972656 18.785156 C 30.152344 18.601562 30.09375 18.550781 29.886719 18.683594 C 29.699219 18.804688 29.535156 18.859375 29.308594 18.898438 C 28.785156 18.964844 28.257812 18.917969 27.738281 18.890625 C 27.5625 18.875 27.398438 18.867188 27.238281 18.859375 C 27.09375 18.851562 27.011719 18.683594 27.09375 18.5625 C 27.277344 18.316406 27.449219 18.042969 27.617188 17.75 C 27.902344 17.199219 28.070312 16.730469 28.175781 16.117188 C 28.265625 15.515625 28.25 15.046875 28.097656 14.449219 C 28.039062 14.214844 27.984375 14.019531 27.933594 13.832031 C 27.902344 13.738281 27.765625 13.769531 27.78125 13.859375 C 27.804688 14.050781 27.828125 14.253906 27.855469 14.496094 C 27.910156 15.054688 27.855469 15.46875 27.691406 16.003906 C 27.5625 16.375 27.425781 16.667969 27.238281 16.972656 C 27.15625 17.097656 26.964844 17.078125 26.914062 16.933594 C 26.867188 16.78125 26.808594 16.632812 26.746094 16.472656 C 26.550781 15.988281 26.316406 15.527344 26.144531 15.039062 C 26.074219 14.820312 26.023438 14.628906 26.007812 14.394531 C 26 14.171875 25.917969 14.15625 25.871094 14.390625 C 25.832031 14.636719 25.839844 14.847656 25.863281 15.097656 C 25.925781 15.628906 26.058594 16.125 26.160156 16.648438 C 26.277344 17.3125 26.355469 18.011719 25.757812 18.558594 C 25.757812 18.558594 25.75 18.5625 25.75 18.5625 C 25.417969 18.796875 25.054688 18.996094 24.648438 19.167969 C 23.808594 19.515625 23.0625 19.652344 22.429688 19.863281 C 22.382812 19.878906 22.335938 19.847656 22.332031 19.800781 C 22.308594 19.6875 22.277344 19.570312 22.246094 19.441406 C 21.847656 18.117188 21.070312 17.558594 20.917969 16.375 C 20.878906 15.953125 20.851562 15.800781 21.054688 15.410156 C 21.289062 15.007812 21.574219 14.796875 21.953125 14.554688 C 22.40625 14.269531 22.789062 14.042969 23.214844 13.695312 C 23.222656 13.6875 23.230469 13.6875 23.230469 13.679688 C 23.304688 13.609375 23.207031 13.496094 23.128906 13.558594 C 23.125 13.566406 23.125 13.566406 23.117188 13.574219 C 22.683594 13.882812 22.285156 14.070312 21.816406 14.3125 C 21.460938 14.503906 21.191406 14.667969 20.949219 14.925781 C 20.902344 14.96875 20.820312 14.941406 20.8125 14.878906 C 20.773438 14.359375 20.730469 13.84375 20.632812 13.269531 C 20.503906 12.707031 20.3125 12.199219 20.085938 11.695312 C 20.050781 11.601562 19.914062 11.65625 19.945312 11.746094 C 20.117188 12.304688 20.253906 12.878906 20.261719 13.316406 C 20.335938 14.441406 20.230469 15.296875 20.15625 16.398438 C 20.15625 16.398438 20.15625 16.40625 20.15625 16.40625 C 20.179688 17.953125 20.820312 18.324219 21.085938 19.695312 C 21.085938 19.695312 21.085938 19.703125 21.085938 19.703125 C 21.234375 20.84375 20.660156 21.230469 20.421875 21.960938 C 20.359375 22.136719 20.125 22.144531 20.050781 21.984375 C 19.734375 21.34375 19.273438 20.835938 18.730469 20.300781 C 18.222656 19.773438 17.792969 19.25 17.617188 18.785156 C 17.617188 18.785156 17.617188 18.777344 17.617188 18.777344 C 17.453125 18.21875 17.492188 17.75 17.597656 17.183594 C 17.867188 15.980469 18.464844 14.820312 18.601562 13.65625 C 18.636719 13.300781 18.585938 13.050781 18.402344 12.742188 C 18.246094 12.5 18.085938 12.351562 17.875 12.160156 C 17.6875 11.996094 17.519531 11.84375 17.371094 11.640625 C 17.203125 11.398438 17.121094 11.429688 17.242188 11.707031 C 17.363281 11.957031 17.496094 12.132812 17.664062 12.351562 C 17.808594 12.539062 17.9375 12.707031 18.027344 12.933594 C 18.101562 13.15625 18.101562 13.316406 18.042969 13.550781 C 18.042969 13.550781 18.042969 13.558594 18.042969 13.558594 C 17.867188 14.042969 17.617188 14.515625 17.355469 15 C 17.292969 15.113281 17.144531 15.121094 17.066406 15.023438 C 16.894531 14.804688 16.691406 14.628906 16.425781 14.410156 C 16.101562 14.148438 15.851562 13.957031 15.640625 13.582031 C 15.519531 13.363281 15.46875 13.171875 15.429688 12.925781 C 15.414062 12.847656 15.40625 12.773438 15.40625 12.699219 C 15.398438 12.605469 15.269531 12.597656 15.253906 12.691406 C 15.242188 12.765625 15.234375 12.847656 15.226562 12.933594 C 15.226562 12.933594 15.226562 12.9375 15.226562 12.9375 C 15.210938 13.226562 15.234375 13.445312 15.308594 13.71875 C 15.308594 13.71875 15.308594 13.722656 15.308594 13.722656 C 15.46875 14.199219 15.6875 14.464844 15.996094 14.847656 C 16.253906 15.167969 16.433594 15.402344 16.546875 15.792969 C 16.546875 15.800781 16.546875 15.800781 16.546875 15.808594 C 16.59375 16.050781 16.578125 16.253906 16.539062 16.457031 C 16.515625 16.585938 16.480469 16.714844 16.425781 16.835938 C 16.246094 17.320312 16.125 17.734375 16.078125 18.179688 C 16.070312 18.230469 16.011719 18.269531 15.964844 18.238281 C 15.761719 18.125 15.550781 18.003906 15.316406 17.871094 C 14.492188 17.363281 14.109375 17.023438 13.753906 16.09375 C 13.527344 15.460938 13.578125 14.675781 13.550781 14.003906 C 13.527344 13.605469 13.496094 13.265625 13.382812 12.871094 C 13.375 12.839844 13.367188 12.820312 13.351562 12.789062 C 13.324219 12.699219 13.1875 12.734375 13.203125 12.824219 C 13.210938 12.847656 13.210938 12.878906 13.21875 12.910156 C 13.261719 13.285156 13.238281 13.609375 13.203125 13.988281 C 13.109375 14.765625 12.953125 15.484375 13.074219 16.269531 C 13.074219 16.269531 13.074219 16.277344 13.074219 16.277344 C 13.34375 17.445312 13.753906 18.003906 14.644531 18.777344 C 15.519531 19.53125 16.160156 19.992188 16.945312 20.890625 C 17.277344 21.289062 17.609375 21.699219 17.867188 22.152344 C 17.957031 22.308594 17.867188 22.503906 17.695312 22.542969 C 17.625 22.558594 17.550781 22.542969 17.492188 22.503906 C 17.164062 22.292969 16.804688 22.128906 16.402344 22 C 15.695312 21.765625 14.921875 21.683594 14.214844 21.644531 C 13.480469 21.605469 12.800781 21.570312 12.085938 21.386719 C 11.414062 21.191406 10.980469 20.957031 10.535156 20.398438 C 10.21875 19.960938 10.082031 19.597656 9.976562 19.070312 C 9.894531 18.578125 9.878906 18.132812 9.855469 17.644531 C 9.84375 17.175781 9.820312 16.773438 9.667969 16.328125 C 9.59375 16.117188 9.457031 16.171875 9.503906 16.375 C 9.578125 16.8125 9.546875 17.199219 9.507812 17.636719 C 9.457031 18.15625 9.410156 18.609375 9.433594 19.128906 C 9.464844 19.597656 9.523438 19.960938 9.675781 20.347656 C 9.699219 20.398438 9.652344 20.453125 9.601562 20.453125 C 9.125 20.429688 8.6875 20.460938 8.203125 20.496094 C 8.105469 20.503906 8.007812 20.511719 7.910156 20.519531 C 7.402344 20.558594 6.8125 20.617188 6.316406 20.503906 C 6.316406 20.503906 6.308594 20.503906 6.308594 20.503906 C 6.15625 20.460938 6.015625 20.332031 5.921875 20.261719 C 5.667969 20.082031 5.792969 20.359375 5.792969 20.359375 C 5.878906 20.445312 6.097656 20.65625 6.234375 20.722656 C 6.753906 20.964844 7.351562 20.996094 7.917969 21.039062 C 8.625 21.109375 9.246094 21.160156 9.933594 21.351562 L 9.941406 21.351562 C 10.210938 21.433594 10.46875 21.578125 10.6875 21.757812 C 10.980469 22.007812 11.320312 22.195312 11.738281 22.386719 C 12.417969 22.664062 13.042969 22.800781 13.738281 22.9375 C 13.8125 22.949219 13.828125 23.058594 13.753906 23.085938 C 12.679688 23.488281 11.980469 24.097656 10.605469 24.492188 C 10.605469 24.492188 10.597656 24.492188 10.597656 24.492188 C 9.296875 24.777344 8.496094 24.566406 7.230469 24.308594 C 6.691406 24.195312 6.242188 24.121094 5.6875 24.144531 C 5.589844 24.152344 5.492188 24.167969 5.410156 24.183594 C 5.3125 24.195312 5.328125 24.339844 5.425781 24.332031 C 5.507812 24.332031 5.597656 24.332031 5.695312 24.332031 C 6.226562 24.371094 6.640625 24.5 7.140625 24.664062 C 8.484375 25.132812 9.289062 25.441406 10.753906 25.277344 C 10.753906 25.277344 10.761719 25.277344 10.761719 25.277344 C 12.53125 24.96875 13.640625 24.113281 15.347656 24.113281 C 16.507812 24.175781 17.136719 24.703125 17.382812 25.382812 C 17.679688 26.175781 17.300781 29.050781 16.925781 29.792969 C 16.910156 29.820312 16.894531 29.84375 16.878906 29.875 C 16.847656 29.929688 16.886719 29.988281 16.945312 29.988281 L 22.1875 29.988281 C 22.238281 29.988281 22.277344 29.933594 22.261719 29.882812 C 22 29.140625 21.871094 26.613281 21.839844 25.8125 C 21.824219 25.269531 21.886719 24.769531 22.074219 24.414062 C 22.074219 24.414062 22.074219 24.410156 22.074219 24.410156 C 22.210938 24.183594 22.351562 24.007812 22.550781 23.835938 C 22.707031 23.699219 22.859375 23.59375 23.0625 23.53125 C 23.109375 23.515625 23.144531 23.511719 23.183594 23.511719 C 23.183594 23.511719 23.191406 23.511719 23.191406 23.511719 C 23.230469 23.511719 23.257812 23.511719 23.296875 23.511719 C 23.296875 23.511719 23.304688 23.511719 23.304688 23.511719 C 23.363281 23.515625 23.425781 23.53125 23.492188 23.5625 C 23.757812 23.675781 23.914062 23.902344 24.066406 24.136719 C 24.234375 24.410156 24.367188 24.621094 24.582031 24.855469 C 24.867188 25.148438 25.109375 25.320312 25.488281 25.488281 C 25.96875 25.667969 26.371094 25.722656 26.882812 25.730469 C 27.59375 25.707031 28.203125 25.585938 28.890625 25.414062 C 28.890625 25.414062 28.898438 25.414062 28.898438 25.414062 C 29.457031 25.230469 29.933594 25.050781 30.523438 24.90625 C 30.847656 24.832031 31.140625 24.777344 31.480469 24.769531 C 31.625 24.769531 31.753906 24.785156 31.898438 24.824219 C 32.046875 24.890625 32.023438 24.832031 31.933594 24.808594 Z M 31.933594 24.808594 "/></g></g></svg>