<svg width="149" height="119" viewBox="0 0 149 119" fill="none" xmlns="http://www.w3.org/2000/svg">
<path fill-rule="evenodd" clip-rule="evenodd" d="M53.912 60.9744C53.912 60.9744 46.8321 68.4578 42.0872 59.6269C42.0685 59.6269 49.3539 52.4803 53.912 60.9744Z" fill="#6ABF57"/>
<path fill-rule="evenodd" clip-rule="evenodd" d="M41.4521 40.9303C41.4521 40.9303 31.5141 41.2672 32.0558 29.6209C32.0558 29.6209 41.9938 29.7653 41.4521 40.9303Z" fill="#6ABF57"/>
<path fill-rule="evenodd" clip-rule="evenodd" d="M39.9576 22.0413C39.9576 22.0413 31.869 22.691 32.0184 13.2103C32.0184 13.2103 40.1444 12.9456 39.9576 22.0413Z" fill="#6ABF57"/>
<path fill-rule="evenodd" clip-rule="evenodd" d="M58.3021 22.0412C58.3021 22.0412 56.322 15.1112 61.3471 13.3547C61.3097 13.3547 63.103 20.3809 58.3021 22.0412Z" fill="#6ABF57"/>
<mask id="mask0_173_427" style="mask-type:luminance" maskUnits="userSpaceOnUse" x="51" y="0" width="11" height="10">
<path d="M51.6704 0H61.2349V9.98594H51.6704V0Z" fill="white"/>
</mask>
<g mask="url(#mask0_173_427)">
<path fill-rule="evenodd" clip-rule="evenodd" d="M59.9273 7.02625C59.9273 7.02625 54.2297 6.71344 54.8836 0.0481262C54.8836 0.0481262 60.5811 0.64969 59.9273 7.02625Z" fill="#6ABF57"/>
</g>
<path fill-rule="evenodd" clip-rule="evenodd" d="M46.7202 16.8919C46.7202 16.8919 44.4411 7.91656 50.942 5.9675C50.942 5.9675 52.9595 15.0391 46.7202 16.8919Z" fill="#6ABF57"/>
<path fill-rule="evenodd" clip-rule="evenodd" d="M22.0992 42.9756C22.0992 42.9756 14.1413 41.2672 15.9907 32.1475C15.9907 32.1475 23.8552 34.2409 22.0992 42.9756Z" fill="#6ABF57"/>
<path fill-rule="evenodd" clip-rule="evenodd" d="M26.5263 32.1475C26.5263 32.1475 23.5748 23.7256 29.702 20.8863C29.702 20.8863 32.4481 29.4525 26.5263 32.1475Z" fill="#6ABF57"/>
<path fill-rule="evenodd" clip-rule="evenodd" d="M17.6905 59.4825C17.6905 59.4825 8.44358 56.8356 11.0402 46.2481C11.0402 46.2481 20.175 49.3522 17.6905 59.4825Z" fill="#6ABF57"/>
<path fill-rule="evenodd" clip-rule="evenodd" d="M55.967 39.9678C55.967 39.9678 47.075 37.73 49.3167 27.5275C49.3167 27.5275 58.1339 30.1503 55.967 39.9678Z" fill="#6ABF57"/>
<path fill-rule="evenodd" clip-rule="evenodd" d="M35.0261 59.4825C35.0261 59.4825 30.2252 51.1569 36.4271 46.2481C36.4645 46.2481 41.0039 54.7422 35.0261 59.4825Z" fill="#6ABF57"/>
<path fill-rule="evenodd" clip-rule="evenodd" d="M24.6211 71.1288C24.6211 71.1288 19.8575 79.5025 14.3654 73.2944C14.3281 73.2944 19.3158 65.1613 24.6211 71.1288Z" fill="#6ABF57"/>
<mask id="mask1_173_427" style="mask-type:luminance" maskUnits="userSpaceOnUse" x="0" y="59" width="14" height="13">
<path d="M0 59.2659H13.4126V71.5859H0V59.2659Z" fill="white"/>
</mask>
<g mask="url(#mask1_173_427)">
<path fill-rule="evenodd" clip-rule="evenodd" d="M9.02271 66.2922C9.02271 66.2922 4.40862 73.0297 0 67.1103C0 67.1103 4.83826 60.6134 9.02271 66.2922Z" fill="#6ABF57"/>
</g>
<path fill-rule="evenodd" clip-rule="evenodd" d="M32.7097 84.0022C32.7097 84.0022 25.2375 87.8522 23.1079 78.8288C23.1079 78.8288 30.6922 75.3638 32.7097 84.0022Z" fill="#6ABF57"/>
<mask id="mask2_173_427" style="mask-type:luminance" maskUnits="userSpaceOnUse" x="0" y="71" width="14" height="13">
<path d="M0 71.5859H13.4126V83.9059H0V71.5859Z" fill="white"/>
</mask>
<g mask="url(#mask2_173_427)">
<path fill-rule="evenodd" clip-rule="evenodd" d="M10.4238 81.9569C10.4238 81.9569 2.70873 83.545 2.16699 74.3772C2.20435 74.4253 9.95678 73.174 10.4238 81.9569Z" fill="#6ABF57"/>
</g>
<path fill-rule="evenodd" clip-rule="evenodd" d="M77.0572 60.806C77.0572 60.806 68.6696 59.7231 70.0707 50.0019C70.0707 50.0019 78.4209 51.4938 77.0572 60.806Z" fill="#6ABF57"/>
<path fill-rule="evenodd" clip-rule="evenodd" d="M69.0248 42.4222C69.0248 42.4222 66.9325 34.5537 72.6114 32.7009C72.6114 32.7009 74.4795 40.6656 69.0248 42.4222Z" fill="#6ABF57"/>
<path fill-rule="evenodd" clip-rule="evenodd" d="M75.4508 26.6131C75.4508 26.6131 69.94 24.7122 71.696 18.3838C71.696 18.3838 77.1507 20.5734 75.4508 26.6131Z" fill="#6ABF57"/>
<path fill-rule="evenodd" clip-rule="evenodd" d="M47.0004 90.7397C47.0004 90.7397 47.4487 97.3088 42.7786 97.3088C42.8159 97.3088 42.5357 90.6916 47.0004 90.7397Z" fill="#6ABF57"/>
<path fill-rule="evenodd" clip-rule="evenodd" d="M33.6064 95.4078C33.6064 95.4078 31.5516 105.394 24.6584 102.242C24.6584 102.242 27.0122 92.3278 33.6064 95.4078Z" fill="#6ABF57"/>
<path fill-rule="evenodd" clip-rule="evenodd" d="M17.6905 94.1806C17.6905 94.1806 15.3367 103.445 9.02271 99.9556C9.02271 99.9556 11.6193 90.836 17.6905 94.1806Z" fill="#6ABF57"/>
<mask id="mask3_173_427" style="mask-type:luminance" maskUnits="userSpaceOnUse" x="0" y="83" width="9" height="14">
<path d="M0 83.9059H8.63042V96.2259H0V83.9059Z" fill="white"/>
</mask>
<g mask="url(#mask3_173_427)">
<path fill-rule="evenodd" clip-rule="evenodd" d="M5.58542 90.5713C5.58542 90.5713 2.78334 94.4213 0.280138 90.8841C0.24278 90.836 3.17563 87.1303 5.58542 90.5713Z" fill="#6ABF57"/>
</g>
<path fill-rule="evenodd" clip-rule="evenodd" d="M81.6713 19.9478C81.6713 19.9478 79.7286 11.165 86.0426 9.52875C86.0426 9.52875 87.7799 18.4319 81.6713 19.9478Z" fill="#6ABF57"/>
<mask id="mask4_173_427" style="mask-type:luminance" maskUnits="userSpaceOnUse" x="75" y="0" width="11" height="10">
<path d="M75.5815 0H85.146V9.98594H75.5815V0Z" fill="white"/>
</mask>
<g mask="url(#mask4_173_427)">
<path fill-rule="evenodd" clip-rule="evenodd" d="M77.8046 7.91657C77.8046 7.91657 76.7585 1.17907 81.5967 0.481262C81.5967 0.481262 82.4373 7.26689 77.8046 7.91657Z" fill="#6ABF57"/>
</g>
<mask id="mask5_173_427" style="mask-type:luminance" maskUnits="userSpaceOnUse" x="66" y="0" width="5" height="17">
<path d="M66.0171 0H70.7993V16.1459H66.0171V0Z" fill="white"/>
</mask>
<g mask="url(#mask5_173_427)">
<path fill-rule="evenodd" clip-rule="evenodd" d="M67.3434 10.9244C67.3434 10.9244 65.027 4.47563 69.7158 2.23782C69.7158 2.23782 71.8828 8.83094 67.3434 10.9244Z" fill="#6ABF57"/>
</g>
<mask id="mask6_173_427" style="mask-type:luminance" maskUnits="userSpaceOnUse" x="85" y="0" width="10" height="17">
<path d="M85.146 0H94.7104V16.1459H85.146V0Z" fill="white"/>
</mask>
<g mask="url(#mask6_173_427)">
<path fill-rule="evenodd" clip-rule="evenodd" d="M91.9645 13.3547C91.9645 13.3547 87.4438 8.56624 91.1612 3.68155C91.1612 3.68155 95.5325 8.66249 91.9645 13.3547Z" fill="#6ABF57"/>
</g>
<path fill-rule="evenodd" clip-rule="evenodd" d="M90.003 52.4322C90.003 52.4322 86.5471 40.6656 95.0654 37.5375C95.0654 37.5375 98.2038 49.4966 90.003 52.4322Z" fill="#6ABF57"/>
<path fill-rule="evenodd" clip-rule="evenodd" d="M82.9043 35.5884C82.9043 35.5884 85.5756 26.0597 92.1138 29.9097C92.1138 29.9097 89.1436 39.3422 82.9043 35.5884Z" fill="#6ABF57"/>
<path fill-rule="evenodd" clip-rule="evenodd" d="M94.8787 18.4319C94.8787 18.4319 97.8862 11.0688 102.799 15.1113C102.799 15.1113 99.5862 22.33 94.8787 18.4319Z" fill="#6ABF57"/>
<path fill-rule="evenodd" clip-rule="evenodd" d="M100.707 33.2544C100.707 33.2544 94.7104 31.3053 96.5037 24.4716C96.5411 24.4716 102.463 26.7094 100.707 33.2544Z" fill="#6ABF57"/>
<path fill-rule="evenodd" clip-rule="evenodd" d="M98.5959 72.0913C98.5959 72.0913 99.7541 60.83 107.6 63.0678C107.6 63.0197 106.124 74.2328 98.5959 72.0913Z" fill="#6ABF57"/>
<path fill-rule="evenodd" clip-rule="evenodd" d="M117.09 36.3825C117.09 36.3825 119.257 26.8056 125.795 30.0541C125.795 30.1022 123.367 39.5347 117.09 36.3825Z" fill="#6ABF57"/>
<path fill-rule="evenodd" clip-rule="evenodd" d="M111.859 59.4344C111.859 59.4344 117.856 55.7287 120.023 63.0197C120.06 63.0197 113.914 66.4606 111.859 59.4344Z" fill="#6ABF57"/>
<path fill-rule="evenodd" clip-rule="evenodd" d="M124.599 60.1803C124.599 60.1803 124.45 52.0472 130.203 52.5044C130.166 52.5044 130.091 60.6616 124.599 60.1803Z" fill="#6ABF57"/>
<path fill-rule="evenodd" clip-rule="evenodd" d="M114.531 96.9719C114.531 96.9719 123.31 92.6647 125.683 103.204C125.683 103.252 116.772 107.174 114.531 96.9719Z" fill="#6ABF57"/>
<path fill-rule="evenodd" clip-rule="evenodd" d="M106.517 97.3088C106.517 97.3088 111.56 100.942 108.646 106.549C108.646 106.549 103.696 102.699 106.517 97.3088Z" fill="#6ABF57"/>
<path fill-rule="evenodd" clip-rule="evenodd" d="M117.557 87.034C117.557 87.034 117.743 78.8769 123.478 79.719C123.441 79.719 123.049 87.8522 117.557 87.034Z" fill="#6ABF57"/>
<path fill-rule="evenodd" clip-rule="evenodd" d="M131.212 85.3978C131.212 85.3978 131.399 77.2647 137.134 78.1069C137.097 78.1069 136.704 86.24 131.212 85.3978Z" fill="#6ABF57"/>
<path fill-rule="evenodd" clip-rule="evenodd" d="M117.557 87.0341C117.557 87.0341 117.781 77.1203 124.711 78.1309C124.711 78.1309 124.207 88.0447 117.557 87.0341Z" fill="#6ABF57"/>
<path fill-rule="evenodd" clip-rule="evenodd" d="M124.749 69.9978C124.749 69.9978 129.699 65.8591 132.258 71.9469C132.221 71.9469 127.159 75.8691 124.749 69.9978Z" fill="#6ABF57"/>
<path fill-rule="evenodd" clip-rule="evenodd" d="M118.603 24.3753C118.603 24.3753 114.717 17.4934 119.873 13.4991C119.873 13.4991 123.553 20.5734 118.603 24.3753Z" fill="#6ABF57"/>
<path fill-rule="evenodd" clip-rule="evenodd" d="M107.17 27.6719C107.17 27.6719 104.238 19.2019 110.44 16.4587C110.421 16.4587 113.092 25.0731 107.17 27.6719Z" fill="#6ABF57"/>
<path fill-rule="evenodd" clip-rule="evenodd" d="M92.7864 88.4297C92.7864 88.4297 98.2411 93.6753 94.1314 99.6187C94.1314 99.6187 88.8261 94.0844 92.7864 88.4297Z" fill="#6ABF57"/>
<path fill-rule="evenodd" clip-rule="evenodd" d="M131.025 93.9159C131.025 93.9159 136.592 89.9456 138.946 96.7553C138.909 96.7553 133.267 100.413 131.025 93.9159Z" fill="#6ABF57"/>
<path fill-rule="evenodd" clip-rule="evenodd" d="M116.585 49.9538C116.585 49.9538 116.436 41.3634 122.507 41.8206C122.507 41.8206 122.395 50.4109 116.585 49.9538Z" fill="#6ABF57"/>
<mask id="mask7_173_427" style="mask-type:luminance" maskUnits="userSpaceOnUse" x="3" y="114" width="143" height="5">
<path d="M3.84814 114.706H145.111V118.556H3.84814V114.706Z" fill="white"/>
</mask>
<g mask="url(#mask7_173_427)">
<path d="M143.336 119.446C143.336 119.615 142.906 119.807 142.028 119.976C141.169 120.144 139.88 120.312 138.161 120.481C136.461 120.649 134.369 120.794 131.885 120.938C129.4 121.082 126.579 121.227 123.422 121.347C120.265 121.467 116.828 121.588 113.129 121.684C109.412 121.78 105.489 121.877 101.379 121.925C97.2509 121.997 92.9918 122.045 88.6205 122.093C84.2306 122.117 79.822 122.141 75.3573 122.141C70.8927 122.141 66.4654 122.117 62.0941 122.093C57.7042 122.045 53.4637 121.997 49.3353 121.925C45.2069 121.877 41.284 121.78 37.5853 121.684C33.8678 121.588 30.4306 121.467 27.2736 121.347C24.1166 121.227 21.2958 121.082 18.8113 120.938C16.3455 120.794 14.2532 120.649 12.5346 120.481C10.8347 120.312 9.54573 120.144 8.66774 119.976C7.78976 119.807 7.36011 119.615 7.36011 119.446C7.36011 119.278 7.78976 119.085 8.66774 118.917C9.54573 118.748 10.8347 118.58 12.5346 118.412C14.2532 118.243 16.3455 118.099 18.8113 117.954C21.2958 117.81 24.1166 117.666 27.2736 117.545C30.4306 117.401 33.8678 117.305 37.5853 117.208C41.284 117.112 45.2069 117.016 49.3353 116.944C53.4637 116.896 57.7042 116.823 62.0941 116.799C66.4654 116.775 70.8927 116.751 75.3573 116.751C79.822 116.751 84.2306 116.775 88.6205 116.799C92.9918 116.823 97.2509 116.896 101.379 116.944C105.489 117.016 109.412 117.112 113.129 117.208C116.828 117.305 120.265 117.401 123.422 117.545C126.579 117.666 129.4 117.81 131.885 117.954C134.369 118.099 136.461 118.243 138.161 118.412C139.88 118.58 141.169 118.748 142.028 118.917C142.906 119.085 143.336 119.278 143.336 119.446Z" fill="#6ABF57"/>
</g>
<mask id="mask8_173_427" style="mask-type:luminance" maskUnits="userSpaceOnUse" x="3" y="3" width="135" height="116">
<path d="M3.84814 3.82593H137.75V118.556H3.84814V3.82593Z" fill="white"/>
</mask>
<g mask="url(#mask8_173_427)">
<path d="M132.65 88.8869C131.959 88.5259 131.399 88.3816 130.633 88.2372C128.97 87.9966 127.495 88.0928 125.832 88.3816C123.161 88.8388 120.34 89.9216 117.855 90.2825C114.717 90.8841 111.934 91.2209 108.795 90.7397C106.871 90.475 105.283 90.0419 103.584 88.7906C102.425 87.9484 101.715 87.1303 100.912 85.7347C100.707 85.3497 100.445 84.7963 100.221 84.2909C99.8288 83.3525 100.408 82.2456 101.248 82.3178C102.145 82.4622 103.042 82.5584 103.976 82.6066C106.591 82.6066 108.347 82.1975 110.738 80.85C110.738 80.85 110.776 80.85 110.776 80.8019C113.764 78.8287 115.931 76.4706 118.36 73.4388C120.527 70.6956 123.049 67.0381 125.757 65.3537H125.795C127.158 64.6559 128.279 64.4634 129.774 64.4634C129.83 64.4634 129.904 64.4634 129.979 64.4634C130.446 64.4634 130.521 63.6212 130.054 63.5491C129.979 63.5491 129.867 63.5009 129.811 63.5009C128.186 63.2603 126.953 63.2603 125.328 63.7656C121.965 65.065 119.257 68.1931 116.585 71.0325C114.306 73.3425 112.139 75.3156 109.356 76.4225C107.488 77.1684 106.218 77.2647 104.275 76.9278C99.3617 75.7728 93.7015 72.5725 88.5644 73.8719C87.9106 74.0403 87.2754 73.3906 87.2754 72.5244C87.2381 69.1075 88.3776 67.4953 92.8609 65.1612C95.3828 63.8619 98.5024 62.37 100.408 61.0706C100.408 61.0706 100.445 61.0706 100.445 61.0225C103.621 58.52 103.154 58.0387 106.797 56.98C108.721 56.4266 110.589 56.0897 112.644 55.825C115.315 55.44 117.893 55.1753 120.415 53.9481C121.536 53.3947 122.358 52.8412 123.273 51.7825C124.132 50.6516 123.852 50.3387 122.862 51.1569C121.965 51.9028 121.181 52.2397 120.097 52.4803C117.594 52.8894 115.072 52.6006 112.588 52.4322C111.747 52.3359 110.962 52.2878 110.196 52.2397C109.505 52.1916 109.113 51.1569 109.505 50.4109C110.383 48.895 111.205 47.2106 112.008 45.4059C113.372 42.0131 114.175 39.1256 114.68 35.3478C115.109 31.6422 115.035 28.7547 114.306 25.0731C114.026 23.6294 113.764 22.4262 113.522 21.2712C113.372 20.6937 112.718 20.8862 112.793 21.4397C112.905 22.6187 113.017 23.87 113.148 25.3619C113.41 28.8028 113.148 31.3534 112.363 34.65C111.747 36.9359 111.093 38.7406 110.196 40.6175C109.804 41.3875 108.889 41.2672 108.646 40.3769C108.422 39.4384 108.142 38.5241 107.843 37.5375C106.909 34.5538 105.788 31.7144 104.966 28.7066C104.63 27.3591 104.387 26.18 104.312 24.7362C104.275 23.3647 103.882 23.2684 103.658 24.7122C103.471 26.2281 103.509 27.5275 103.621 29.0675C103.92 32.34 104.555 35.3959 105.041 38.6203C105.601 42.7109 105.975 47.0181 103.117 50.3869L103.079 50.4109C101.491 51.8547 99.754 53.0819 97.8113 54.1406C93.7949 56.2822 90.2269 57.1244 87.2007 58.4237C86.9765 58.52 86.7524 58.3275 86.7337 58.0387C86.6216 57.3409 86.4722 56.6191 86.3227 55.825C84.4173 47.6678 80.6999 44.2269 79.9713 36.9359C79.7845 34.3372 79.6538 33.3988 80.6251 30.9925C81.746 28.5141 83.1097 27.2147 84.9217 25.7228C87.0886 23.9663 88.9193 22.5706 90.9555 20.4291C90.9928 20.3809 91.0302 20.3809 91.0302 20.3328C91.3851 19.8997 90.9181 19.2019 90.5445 19.5869C90.5258 19.635 90.5258 19.635 90.4885 19.6831C88.4149 21.5841 86.5095 22.7391 84.2679 24.2309C82.5679 25.41 81.279 26.4206 80.1208 28.0087C79.8966 28.2734 79.5043 28.105 79.4669 27.72C79.2801 24.5197 79.0747 21.3434 78.6076 17.8063C77.9912 14.3413 77.0758 11.2131 75.9924 8.10906C75.8242 7.53156 75.1704 7.86844 75.3199 8.42188C76.1418 11.8628 76.7956 15.4 76.833 18.095C77.1879 25.025 76.6835 30.2947 76.3286 37.0803V37.1284C76.4407 46.6572 79.5043 48.9431 80.7746 57.3891V57.4372C81.4844 64.4634 78.7384 66.8456 77.5989 71.3453C77.3 72.4281 76.1792 72.4762 75.8242 71.4897C74.3111 67.5434 72.1068 64.4153 69.5102 61.1187C67.0817 57.8703 65.0269 54.6459 64.1863 51.7825V51.7344C63.4017 48.2934 63.5885 45.4059 64.0929 41.9169C65.3818 34.5056 68.2399 27.3591 68.8938 20.1884C69.0619 17.9987 68.819 16.4588 67.941 14.5578C67.1938 13.0659 66.4279 12.1516 65.4192 10.9725C64.5225 9.96188 63.7192 9.02344 63.0094 7.77219C62.2061 6.28032 61.8138 6.47282 62.3929 8.18125C62.972 9.72125 63.6072 10.8041 64.4104 12.1516C65.1016 13.3066 65.7181 14.3412 66.1477 15.7369C66.5026 17.1084 66.5026 18.095 66.2224 19.5387V19.5869C65.3818 22.5706 64.1863 25.4822 62.9347 28.4659C62.6358 29.1637 61.9259 29.2119 61.5523 28.6103C60.7304 27.2628 59.759 26.18 58.4887 24.8325C56.9382 23.2203 55.7426 22.0412 54.7339 19.7312C54.1548 18.3837 53.912 17.2047 53.7251 15.6888C53.6504 15.2075 53.6131 14.7503 53.6131 14.2931C53.5757 13.7156 52.9592 13.6675 52.8845 14.245C52.8285 14.7022 52.7911 15.2075 52.7537 15.7369V15.7609C52.679 17.5416 52.7911 18.8891 53.146 20.5734V20.5975C53.9119 23.5331 54.9581 25.1694 56.4338 27.5275C57.6667 29.5006 58.526 30.9444 59.0678 33.3506C59.0678 33.3987 59.0678 33.3987 59.0678 33.4469C59.292 34.9387 59.2172 36.19 59.0304 37.4412C58.9183 38.2353 58.7502 39.0294 58.4887 39.7753C57.6294 42.7591 57.0503 45.3097 56.8261 48.0528C56.7888 48.3656 56.5085 48.6062 56.2844 48.4137C55.313 47.7159 54.3042 46.97 53.1834 46.1519C49.2418 43.0237 47.4111 40.9303 45.7112 35.2034C44.6277 31.3053 44.8706 26.4688 44.7398 22.33C44.6277 19.8756 44.4783 17.7822 43.9365 15.3519C43.8992 15.1594 43.8618 15.0391 43.7871 14.8466C43.6563 14.2931 43.0025 14.5097 43.0772 15.0631C43.1146 15.2075 43.1146 15.4 43.1519 15.5925C43.3574 17.9025 43.2453 19.8997 43.0772 22.2338C42.6289 27.0222 41.8817 31.4497 42.4608 36.2862V36.3344C43.7497 43.5291 45.7112 46.97 49.9704 51.7344C54.1548 56.3784 57.2184 59.2178 60.9732 64.7522C62.5611 67.2066 64.1489 69.7331 65.3818 72.5244C65.8115 73.4869 65.3818 74.69 64.5599 74.9306C64.2236 75.0269 63.8687 74.9306 63.5885 74.69C62.0193 73.3906 60.3007 72.38 58.3766 71.5859C54.9954 70.1422 51.2967 69.6369 47.9155 69.3962C44.4035 69.1556 41.1531 68.9391 37.7346 67.8081C34.5215 66.605 32.448 65.1612 30.3184 61.7203C28.8053 59.0253 28.1515 56.7875 27.6471 53.5391C27.2548 50.5072 27.1801 47.7641 27.068 44.7562C27.0119 41.8687 26.8999 39.3903 26.1713 36.6472C25.8164 35.3478 25.1626 35.6847 25.3867 36.9359C25.7417 39.6309 25.5922 42.0131 25.4054 44.7081C25.1626 47.9084 24.9384 50.6997 25.0505 53.9C25.1999 56.7875 25.4801 59.0253 26.2087 61.4075C26.3208 61.7203 26.0966 62.0572 25.8537 62.0572C23.5747 61.9128 21.4825 62.1053 19.1661 62.3219C18.6991 62.37 18.2321 62.4181 17.7651 62.4662C15.3366 62.7069 12.5158 63.0678 10.1434 62.37H10.106C9.3775 62.1053 8.705 61.3112 8.25667 60.8781C7.04244 59.7712 7.64021 61.4797 7.64021 61.4797C8.05118 62.0091 9.09729 63.3084 9.75111 63.7175C12.2356 65.2094 15.0938 65.4019 17.8024 65.6666C21.1836 66.0997 24.1538 66.4125 27.4416 67.5916H27.479C28.7679 68.0969 30.0008 68.9872 31.0469 70.0941C32.448 71.6341 34.0732 72.7891 36.072 73.9681C39.3224 75.6766 42.3113 76.5188 45.6365 77.3609C45.9914 77.4331 46.0661 78.1069 45.7112 78.2753C40.574 80.7537 37.2302 84.5075 30.6547 86.9378H30.6173C24.3967 88.6944 20.5672 87.395 14.5147 85.8069C11.9367 85.1091 9.78848 84.6519 7.13584 84.7962C6.66882 84.8444 6.20181 84.9406 5.80952 85.0369C5.3425 85.1091 5.41722 85.9994 5.88424 85.9512C6.27653 85.9512 6.70618 85.9512 7.1732 85.9512C9.71375 86.1919 11.6939 86.9859 14.085 87.9966C20.5111 90.8841 24.3593 92.785 31.3645 91.7744H31.4019C39.8642 89.8734 45.1694 84.6038 53.3329 84.6038C58.881 84.9888 61.8886 88.2372 63.0654 92.4241C64.4851 97.3087 62.6731 115.019 60.8798 119.591C60.8051 119.759 60.7304 119.903 60.6556 120.096C60.5062 120.433 60.693 120.794 60.9732 120.794H86.0425C86.2853 120.794 86.4722 120.457 86.3974 120.144C85.1458 115.572 84.5294 100.004 84.3799 95.0709C84.3052 91.7262 84.6041 88.6462 85.5008 86.4566V86.4325C86.1546 85.0369 86.8271 83.9541 87.7798 82.8953C88.527 82.0531 89.2556 81.4034 90.227 81.0184C90.4511 80.9222 90.6192 80.8981 90.806 80.8981H90.8434C91.0302 80.8981 91.161 80.8981 91.3478 80.8981H91.3851C91.6654 80.9222 91.9642 81.0184 92.2818 81.2109C93.5521 81.9087 94.2993 83.3044 95.0279 84.7481C95.8311 86.4325 96.4663 87.7319 97.4937 89.1756C98.8574 90.9803 100.016 92.0391 101.828 93.0737C104.125 94.1806 106.049 94.5175 108.497 94.5656C111.896 94.4212 114.811 93.6753 118.098 92.6166H118.136C120.807 91.4856 123.086 90.3787 125.907 89.4884C127.457 89.0312 128.858 88.6944 130.484 88.6462C131.175 88.6462 131.791 88.7425 132.482 88.9831C133.192 89.3922 133.08 89.0312 132.65 88.8869Z" fill="#6ABF57"/>
</g>
<mask id="mask9_173_427" style="mask-type:luminance" maskUnits="userSpaceOnUse" x="3" y="3" width="135" height="116">
<path d="M3.84814 3.82593H137.75V118.556H3.84814V3.82593Z" fill="white"/>
</mask>
<g mask="url(#mask9_173_427)">
<path d="M132.65 88.8869C131.959 88.5259 131.399 88.3816 130.633 88.2372C128.97 87.9966 127.495 88.0928 125.832 88.3816C123.161 88.8388 120.34 89.9216 117.855 90.2825C114.717 90.8841 111.934 91.2209 108.795 90.7397C106.871 90.475 105.283 90.0419 103.584 88.7906C102.425 87.9484 101.715 87.1303 100.912 85.7347C100.707 85.3497 100.445 84.7963 100.221 84.2909C99.8288 83.3525 100.408 82.2456 101.248 82.3178C102.145 82.4622 103.042 82.5584 103.976 82.6066C106.591 82.6066 108.347 82.1975 110.738 80.85C110.738 80.85 110.776 80.85 110.776 80.8019C113.764 78.8287 115.931 76.4706 118.36 73.4388C120.527 70.6956 123.049 67.0381 125.757 65.3537H125.795C127.158 64.6559 128.279 64.4634 129.774 64.4634C129.83 64.4634 129.904 64.4634 129.979 64.4634C130.446 64.4634 130.521 63.6212 130.054 63.5491C129.979 63.5491 129.867 63.5009 129.811 63.5009C128.186 63.2603 126.953 63.2603 125.328 63.7656C121.965 65.065 119.257 68.1931 116.585 71.0325C114.306 73.3425 112.139 75.3156 109.356 76.4225C107.488 77.1684 106.218 77.2647 104.275 76.9278C99.3617 75.7728 93.7015 72.5725 88.5644 73.8719C87.9106 74.0403 87.2754 73.3906 87.2754 72.5244C87.2381 69.1075 88.3776 67.4953 92.8609 65.1612C95.3828 63.8619 98.5024 62.37 100.408 61.0706C100.408 61.0706 100.445 61.0706 100.445 61.0225C103.621 58.52 103.154 58.0387 106.797 56.98C108.721 56.4266 110.589 56.0897 112.644 55.825C115.315 55.44 117.893 55.1753 120.415 53.9481C121.536 53.3947 122.358 52.8412 123.273 51.7825C124.132 50.6516 123.852 50.3387 122.862 51.1569C121.965 51.9028 121.181 52.2397 120.097 52.4803C117.594 52.8894 115.072 52.6006 112.588 52.4322C111.747 52.3359 110.962 52.2878 110.196 52.2397C109.505 52.1916 109.113 51.1569 109.505 50.4109C110.383 48.895 111.205 47.2106 112.008 45.4059C113.372 42.0131 114.175 39.1256 114.68 35.3478C115.109 31.6422 115.035 28.7547 114.306 25.0731C114.026 23.6294 113.764 22.4262 113.522 21.2712C113.372 20.6937 112.718 20.8862 112.793 21.4397C112.905 22.6187 113.017 23.87 113.148 25.3619C113.41 28.8028 113.148 31.3534 112.363 34.65C111.747 36.9359 111.093 38.7406 110.196 40.6175C109.804 41.3875 108.889 41.2672 108.646 40.3769C108.422 39.4384 108.142 38.5241 107.843 37.5375C106.909 34.5538 105.788 31.7144 104.966 28.7066C104.63 27.3591 104.387 26.18 104.312 24.7362C104.275 23.3647 103.882 23.2684 103.658 24.7122C103.471 26.2281 103.509 27.5275 103.621 29.0675C103.92 32.34 104.555 35.3959 105.041 38.6203C105.601 42.7109 105.975 47.0181 103.117 50.3869L103.079 50.4109C101.491 51.8547 99.754 53.0819 97.8113 54.1406C93.7949 56.2822 90.2269 57.1244 87.2007 58.4237C86.9765 58.52 86.7524 58.3275 86.7337 58.0387C86.6216 57.3409 86.4722 56.6191 86.3227 55.825C84.4173 47.6678 80.6999 44.2269 79.9713 36.9359C79.7845 34.3372 79.6538 33.3988 80.6251 30.9925C81.746 28.5141 83.1097 27.2147 84.9217 25.7228C87.0886 23.9663 88.9193 22.5706 90.9555 20.4291C90.9928 20.3809 91.0302 20.3809 91.0302 20.3328C91.3851 19.8997 90.9181 19.2019 90.5445 19.5869C90.5258 19.635 90.5258 19.635 90.4885 19.6831C88.4149 21.5841 86.5095 22.7391 84.2679 24.2309C82.5679 25.41 81.279 26.4206 80.1208 28.0087C79.8966 28.2734 79.5043 28.105 79.4669 27.72C79.2801 24.5197 79.0747 21.3434 78.6076 17.8063C77.9912 14.3413 77.0758 11.2131 75.9924 8.10906C75.8242 7.53156 75.1704 7.86844 75.3199 8.42188C76.1418 11.8628 76.7956 15.4 76.833 18.095C77.1879 25.025 76.6835 30.2947 76.3286 37.0803V37.1284C76.4407 46.6572 79.5043 48.9431 80.7746 57.3891V57.4372C81.4844 64.4634 78.7384 66.8456 77.5989 71.3453C77.3 72.4281 76.1792 72.4762 75.8242 71.4897C74.3111 67.5434 72.1068 64.4153 69.5102 61.1187C67.0817 57.8703 65.0269 54.6459 64.1863 51.7825V51.7344C63.4017 48.2934 63.5885 45.4059 64.0929 41.9169C65.3818 34.5056 68.2399 27.3591 68.8938 20.1884C69.0619 17.9987 68.819 16.4588 67.941 14.5578C67.1938 13.0659 66.4279 12.1516 65.4192 10.9725C64.5225 9.96188 63.7192 9.02344 63.0094 7.77219C62.2061 6.28032 61.8138 6.47282 62.3929 8.18125C62.972 9.72125 63.6072 10.8041 64.4104 12.1516C65.1016 13.3066 65.7181 14.3412 66.1477 15.7369C66.5026 17.1084 66.5026 18.095 66.2224 19.5387V19.5869C65.3818 22.5706 64.1863 25.4822 62.9347 28.4659C62.6358 29.1637 61.9259 29.2119 61.5523 28.6103C60.7304 27.2628 59.759 26.18 58.4887 24.8325C56.9382 23.2203 55.7426 22.0412 54.7339 19.7312C54.1548 18.3837 53.912 17.2047 53.7251 15.6888C53.6504 15.2075 53.6131 14.7503 53.6131 14.2931C53.5757 13.7156 52.9592 13.6675 52.8845 14.245C52.8285 14.7022 52.7911 15.2075 52.7537 15.7369V15.7609C52.679 17.5416 52.7911 18.8891 53.146 20.5734V20.5975C53.9119 23.5331 54.9581 25.1694 56.4338 27.5275C57.6667 29.5006 58.526 30.9444 59.0678 33.3506C59.0678 33.3987 59.0678 33.3987 59.0678 33.4469C59.292 34.9387 59.2172 36.19 59.0304 37.4412C58.9183 38.2353 58.7502 39.0294 58.4887 39.7753C57.6294 42.7591 57.0503 45.3097 56.8261 48.0528C56.7888 48.3656 56.5085 48.6062 56.2844 48.4137C55.313 47.7159 54.3042 46.97 53.1834 46.1519C49.2418 43.0237 47.4111 40.9303 45.7112 35.2034C44.6277 31.3053 44.8706 26.4688 44.7398 22.33C44.6277 19.8756 44.4783 17.7822 43.9365 15.3519C43.8992 15.1594 43.8618 15.0391 43.7871 14.8466C43.6563 14.2931 43.0025 14.5097 43.0772 15.0631C43.1146 15.2075 43.1146 15.4 43.1519 15.5925C43.3574 17.9025 43.2453 19.8997 43.0772 22.2338C42.6289 27.0222 41.8817 31.4497 42.4608 36.2862V36.3344C43.7497 43.5291 45.7112 46.97 49.9704 51.7344C54.1548 56.3784 57.2184 59.2178 60.9732 64.7522C62.5611 67.2066 64.1489 69.7331 65.3818 72.5244C65.8115 73.4869 65.3818 74.69 64.5599 74.9306C64.2236 75.0269 63.8687 74.9306 63.5885 74.69C62.0193 73.3906 60.3007 72.38 58.3766 71.5859C54.9954 70.1422 51.2967 69.6369 47.9155 69.3962C44.4035 69.1556 41.1531 68.9391 37.7346 67.8081C34.5215 66.605 32.448 65.1612 30.3184 61.7203C28.8053 59.0253 28.1515 56.7875 27.6471 53.5391C27.2548 50.5072 27.1801 47.7641 27.068 44.7562C27.0119 41.8687 26.8999 39.3903 26.1713 36.6472C25.8164 35.3478 25.1626 35.6847 25.3867 36.9359C25.7417 39.6309 25.5922 42.0131 25.4054 44.7081C25.1626 47.9084 24.9384 50.6997 25.0505 53.9C25.1999 56.7875 25.4801 59.0253 26.2087 61.4075C26.3208 61.7203 26.0966 62.0572 25.8537 62.0572C23.5747 61.9128 21.4825 62.1053 19.1661 62.3219C18.6991 62.37 18.2321 62.4181 17.7651 62.4662C15.3366 62.7069 12.5158 63.0678 10.1434 62.37H10.106C9.3775 62.1053 8.705 61.3112 8.25667 60.8781C7.04244 59.7712 7.64021 61.4797 7.64021 61.4797C8.05118 62.0091 9.09729 63.3084 9.75111 63.7175C12.2356 65.2094 15.0938 65.4019 17.8024 65.6666C21.1836 66.0997 24.1538 66.4125 27.4416 67.5916H27.479C28.7679 68.0969 30.0008 68.9872 31.0469 70.0941C32.448 71.6341 34.0732 72.7891 36.072 73.9681C39.3224 75.6766 42.3113 76.5188 45.6365 77.3609C45.9914 77.4331 46.0661 78.1069 45.7112 78.2753C40.574 80.7537 37.2302 84.5075 30.6547 86.9378H30.6173C24.3967 88.6944 20.5672 87.395 14.5147 85.8069C11.9367 85.1091 9.78848 84.6519 7.13584 84.7962C6.66882 84.8444 6.20181 84.9406 5.80952 85.0369C5.3425 85.1091 5.41722 85.9994 5.88424 85.9512C6.27653 85.9512 6.70618 85.9512 7.1732 85.9512C9.71375 86.1919 11.6939 86.9859 14.085 87.9966C20.5111 90.8841 24.3593 92.785 31.3645 91.7744H31.4019C39.8642 89.8734 45.1694 84.6038 53.3329 84.6038C58.881 84.9888 61.8886 88.2372 63.0654 92.4241C64.4851 97.3087 62.6731 115.019 60.8798 119.591C60.8051 119.759 60.7304 119.903 60.6556 120.096C60.5062 120.433 60.693 120.794 60.9732 120.794H86.0425C86.2853 120.794 86.4722 120.457 86.3974 120.144C85.1458 115.572 84.5294 100.004 84.3799 95.0709C84.3052 91.7262 84.6041 88.6462 85.5008 86.4566V86.4325C86.1546 85.0369 86.8271 83.9541 87.7798 82.8953C88.527 82.0531 89.2556 81.4034 90.227 81.0184C90.4511 80.9222 90.6192 80.8981 90.806 80.8981H90.8434C91.0302 80.8981 91.161 80.8981 91.3478 80.8981H91.3851C91.6654 80.9222 91.9642 81.0184 92.2818 81.2109C93.5521 81.9087 94.2993 83.3044 95.0279 84.7481C95.8311 86.4325 96.4663 87.7319 97.4937 89.1756C98.8574 90.9803 100.016 92.0391 101.828 93.0737C104.125 94.1806 106.049 94.5175 108.497 94.5656C111.896 94.4212 114.811 93.6753 118.098 92.6166H118.136C120.807 91.4856 123.086 90.3787 125.907 89.4884C127.457 89.0312 128.858 88.6944 130.484 88.6462C131.175 88.6462 131.791 88.7425 132.482 88.9831C133.192 89.3922 133.08 89.0312 132.65 88.8869Z" fill="#6ABF57"/>
</g>
</svg>
