<svg width="270" height="82" viewBox="0 0 270 82" fill="none" xmlns="http://www.w3.org/2000/svg">
<mask id="mask0_240_1175" style="mask-type:luminance" maskUnits="userSpaceOnUse" x="0" y="0" width="72" height="82">
<path d="M0.442871 0.807373H71.0897V82H0.442871V0.807373Z" fill="white"/>
</mask>
<g mask="url(#mask0_240_1175)">
<mask id="mask1_240_1175" style="mask-type:luminance" maskUnits="userSpaceOnUse" x="0" y="1" width="72" height="81">
<path d="M8.30793 1.03369H63.5017C67.6941 1.03369 71.0899 3.84575 71.0899 7.31178V75.5181C71.0899 78.9841 67.6941 81.7962 63.5017 81.7962H8.30793C4.11557 81.7962 0.719727 78.9841 0.719727 75.5181V7.31178C0.719727 3.84575 4.11557 1.03369 8.30793 1.03369Z" fill="white"/>
</mask>
<g mask="url(#mask1_240_1175)">
<path d="M0.719727 1.03369H71.0899V81.7736H0.719727V1.03369Z" fill="#28B17E"/>
</g>
</g>
<mask id="mask2_240_1175" style="mask-type:luminance" maskUnits="userSpaceOnUse" x="36" y="17" width="35" height="65">
<path d="M36.7637 17.9641H70.9987V81.9398H36.7637V17.9641Z" fill="white"/>
</mask>
<g mask="url(#mask2_240_1175)">
<path d="M76.1699 18.2256C74.2425 20.3887 73.4247 22.9015 73.3365 25.5022C73.1754 30.163 73.2909 34.8389 73.2909 39.6103C73.5068 39.5248 73.6861 39.4997 73.7469 39.4167C76.2429 36.0865 79.8759 33.7045 83.5453 31.3477C86.0291 29.748 87.7833 27.7559 88.3883 25.1501C88.4217 25.0495 88.4734 24.9564 88.5494 24.8734C88.5828 24.8256 88.6649 24.8005 88.7987 24.725C88.9659 25.4746 88.9781 26.2266 88.8412 26.9812C88.7014 27.7358 88.4187 28.4501 87.99 29.1242C86.8074 31.0987 84.8708 32.5248 82.8461 33.8705C79.7026 35.9456 76.9208 38.3049 75.7291 41.5571C75.0603 43.4763 74.6468 45.4332 74.4918 47.4278C74.2881 49.616 74.4431 51.827 74.4431 54.1385C75.0724 53.7461 75.6531 53.3084 76.3037 52.9815C79.1645 51.5025 82.086 50.1015 84.9043 48.5722C89.1088 46.3336 92.5928 43.4889 95.3593 40.0455C97.0831 37.8723 98.141 35.5054 98.1319 32.8644C98.1289 32.6959 98.1927 32.5425 98.3204 32.4091C99.2325 33.8831 99.1352 35.4249 98.743 36.9743C97.8522 40.5007 95.3532 43.3128 92.6232 45.989C91.1183 47.463 89.507 48.8564 87.8289 50.3933C92.8451 51.0925 97.7519 52.5413 103.057 50.3782C102.78 50.8485 102.704 51.1 102.522 51.2736C101.935 51.8295 101.233 52.2571 100.415 52.5514C99.6003 52.8482 98.746 52.9865 97.8522 52.9664C95.3046 52.9664 92.76 52.7878 90.2154 52.7853C81.8732 52.7853 76.1334 57.3681 75.7352 64.2498C75.5376 67.663 76.1122 70.9932 76.9756 74.3134C77.4559 76.1797 78.7693 77.4399 80.7727 78.3152C83.8585 79.6659 87.1996 80.1438 90.6197 80.3903C95.6907 80.7424 100.759 81.0945 105.827 81.4442C106.173 81.4743 106.483 81.58 106.757 81.7586H37.3503L37.3169 81.6026C38.8582 81.4215 40.3996 81.1876 41.9531 81.0669C46.2306 80.7474 50.5111 80.4607 54.7977 80.2041C57.4822 80.0406 60.048 79.4973 62.4954 78.5768C64.7694 77.7341 66.1891 76.3407 66.6664 74.3486C67.545 70.7291 68.2929 67.1122 67.8278 63.3695C67.0769 57.2473 61.5803 52.9035 54.1046 52.8054C51.4353 52.7702 48.7539 53.0645 46.0968 52.9312C44.6771 52.8607 43.2756 52.252 41.9227 51.7792C41.4697 51.6182 41.19 51.1277 40.9225 50.675C45.8475 52.4382 50.6084 51.2107 55.4392 50.4662C53.5786 48.7533 51.6907 47.1461 49.9973 45.4181C47.5835 42.9506 45.3216 40.38 44.3761 37.2133C43.759 35.1382 43.686 33.0857 44.8777 30.8497C45.0449 32.3664 45.0693 33.6592 45.349 34.9143C45.9965 37.8346 47.6868 40.3574 50.046 42.5658C53.1469 45.5137 56.7738 47.9208 60.9266 49.7846C63.7783 51.0447 66.4932 52.5212 69.3296 53.9347C69.2414 53.9951 69.3539 53.9524 69.3539 53.9146C69.2445 50.021 69.5455 46.0997 68.3051 42.274C67.4994 39.799 66.1071 37.5931 63.8908 35.767C62.0241 34.2302 60.0906 32.7462 58.3212 31.1364C56.4364 29.421 55.2507 27.4013 55.2446 24.9464C58.002 30.6359 64.5231 33.2065 69.7157 37.334C69.9316 35.0929 70.1231 33.1838 70.2964 31.2873C70.6034 27.8691 71.2875 24.5137 73.0538 21.3797C73.6162 20.4541 74.2759 19.5813 75.0329 18.7588C75.267 18.4947 75.8112 18.4167 76.2125 18.2558L76.1699 18.2256Z" fill="#F3F7FF"/>
</g>
<mask id="mask3_240_1175" style="mask-type:luminance" maskUnits="userSpaceOnUse" x="68" y="9" width="3" height="11">
<path d="M68.6729 9.01733H70.9986V19.8958H68.6729V9.01733Z" fill="white"/>
</mask>
<g mask="url(#mask3_240_1175)">
<path d="M70.4179 19.6014C67.7578 15.1745 68.3567 13.0592 71.6644 9.03979C74.9143 13.2906 74.814 16.5101 70.4179 19.6014Z" fill="#F3F7FF"/>
</g>
<path d="M50.0914 12.2493C54.8887 14.6212 56.5213 17.8935 55.1258 22.1971C51.049 20.9269 49.2097 17.3402 50.0914 12.2493Z" fill="#F3F7FF"/>
<path d="M65.4413 22.333C70.0775 26.0128 70.6612 28.4526 67.9068 32.5978C64.435 30.0775 63.4135 25.8242 65.4413 22.333Z" fill="#F3F7FF"/>
<path d="M41.2294 37.6759C36.131 38.3852 32.2701 36.9288 29.5947 33.4024C34.4985 32.1624 39.9221 34.1042 41.2294 37.6759Z" fill="#F3F7FF"/>
<mask id="mask4_240_1175" style="mask-type:luminance" maskUnits="userSpaceOnUse" x="55" y="9" width="8" height="11">
<path d="M55.4424 9.01733H62.4469V19.2519H55.4424V9.01733Z" fill="white"/>
</mask>
<g mask="url(#mask4_240_1175)">
<path d="M56.5032 9.17822C61.3765 12.2644 62.5531 14.6942 61.5194 18.6482C57.3027 17.7754 55.0621 13.6302 56.5032 9.17822Z" fill="#F3F7FF"/>
</g>
<path d="M64.1066 11.198C68.5422 14.8527 69.2657 16.6611 67.1893 21.3647C63.6202 19.8304 62.3069 15.572 64.1066 11.198Z" fill="#F3F7FF"/>
<path d="M32.7686 58.2658C35.9029 54.1685 38.63 53.9245 44.3819 54.3395C43.1567 57.7502 38.1587 59.438 32.7686 58.2658Z" fill="#F3F7FF"/>
<path d="M61.3978 28.8828C58.4367 27.2227 56.9257 25.0747 57.3848 22.1067C57.5368 21.1257 57.555 20.1297 57.6371 19.0884C62.1061 21.088 63.6931 25.2659 61.3978 28.8828Z" fill="#F3F7FF"/>
<path d="M41.1018 32.5802C37.1952 33.7221 32.4647 31.559 30.519 27.7836C37.0554 27.444 39.2443 28.7142 41.1018 32.5802Z" fill="#F3F7FF"/>
<path d="M39.7642 49.5885C37.104 53.3085 33.997 54.3222 28.5825 53.2909C30.7349 50.1796 34.2463 48.9974 39.7642 49.5885Z" fill="#F3F7FF"/>
<path d="M43.6674 29.6901C38.1799 28.2614 37.3287 26.0354 37.3956 21.7695C42.6033 23.8119 43.7525 25.0419 43.6674 29.6901Z" fill="#F3F7FF"/>
<path d="M44.2637 23.6736C49.9214 23.5855 52.7183 24.891 54.4208 28.4073C49.4714 29.011 46.9572 28.1306 44.2637 23.6736Z" fill="#F3F7FF"/>
<path d="M60.6435 34.0642C56.0681 35.7972 53.0766 35.02 49.7446 32.1979C53.329 30.2636 57.6429 30.9805 60.6435 34.0642Z" fill="#F3F7FF"/>
<path d="M50.4593 22.4564C45.9447 23.2638 43.4548 22.1445 40.9497 18.4395C46.0359 17.8032 49.4895 19.257 50.4593 22.4564Z" fill="#F3F7FF"/>
<path d="M47.0635 35.4199C53.1438 35.5306 55.0317 36.3833 56.2812 39.5575C51.6085 40.2844 49.0426 39.0293 47.0635 35.4199Z" fill="#F3F7FF"/>
<path d="M37.11 46.2153C33.1214 45.4381 31.0906 43.3932 30.9902 40.0378C35.6082 40.8981 37.8853 43.1945 37.11 46.2153Z" fill="#F3F7FF"/>
<path d="M46.4406 44.1981C42.2392 44.4597 39.8557 43.6624 38.2505 39.7788C42.8654 40.1636 45.0543 40.2768 46.4406 44.1981Z" fill="#F3F7FF"/>
<mask id="mask5_240_1175" style="mask-type:luminance" maskUnits="userSpaceOnUse" x="25" y="45" width="11" height="5">
<path d="M25.4692 45.6521H35.2068V49.5155H25.4692V45.6521Z" fill="white"/>
</mask>
<g mask="url(#mask5_240_1175)">
<path d="M34.9606 47.898C31.7867 49.8926 28.1871 49.3191 25.4692 46.4341C29.1569 45.0809 32.0116 45.506 34.9606 47.898Z" fill="#F3F7FF"/>
</g>
<path d="M41.4453 46.2505C45.9934 45.3349 48.4164 45.8355 49.9091 48.6702C46.0572 49.6033 43.54 48.8789 41.4453 46.2505Z" fill="#F3F7FF"/>
<path d="M93.8339 58.0446L96.9957 52.6519H99.3792L93.7367 61.9986L87.8145 52.6519H90.4655L93.8339 58.0446Z" fill="#F3F7FF"/>
<path d="M105.702 52.6519V61.8376H103.391V52.6519H105.702Z" fill="#F3F7FF"/>
<path d="M113.518 57.773C112.551 57.68 111.782 57.4008 111.208 56.9379C110.63 56.4701 110.344 55.8715 110.344 55.1471C110.344 54.7597 110.442 54.4026 110.636 54.0806C110.831 53.7536 111.086 53.4719 111.402 53.2355C111.725 52.994 112.077 52.8104 112.46 52.6821C112.84 52.5564 113.226 52.491 113.616 52.491C114.166 52.491 114.692 52.5865 115.196 52.7727C115.707 52.9613 116.175 53.2632 116.607 53.6782L114.783 54.7748C114.637 54.6415 114.455 54.5334 114.236 54.4529C114.017 54.3674 113.81 54.3221 113.616 54.3221C113.305 54.3221 113.056 54.3975 112.862 54.5434C112.673 54.6843 112.582 54.883 112.582 55.137C112.582 55.3382 112.691 55.5244 112.91 55.6904C113.135 55.8589 113.543 55.9595 114.126 55.9922C114.765 56.0274 115.345 56.1632 115.865 56.4047C116.391 56.6411 116.808 56.9732 117.118 57.4008C117.434 57.8309 117.592 58.3415 117.592 58.93C117.592 59.5211 117.413 60.0518 117.057 60.5197C116.707 60.9825 116.245 61.3447 115.671 61.6063C115.102 61.8679 114.491 61.9987 113.834 61.9987C113.202 61.9987 112.576 61.893 111.962 61.6868C111.345 61.473 110.773 61.1284 110.247 60.6505L112.156 59.4935C112.406 59.755 112.667 59.9336 112.935 60.0267C113.208 60.1147 113.509 60.1575 113.834 60.1575C114.214 60.1575 114.534 60.0518 114.795 59.8355C115.054 59.6142 115.184 59.3576 115.184 59.0608C115.184 58.6936 115.038 58.3968 114.746 58.1755C114.461 57.9541 114.053 57.8208 113.518 57.773Z" fill="#F3F7FF"/>
<path d="M124.487 52.6519V61.8376H122.176V52.6519H124.487Z" fill="#F3F7FF"/>
<path d="M134.93 61.9987C134.133 61.9987 133.388 61.8729 132.692 61.6264C131.993 61.3799 131.382 61.0403 130.856 60.6102C130.336 60.1751 129.926 59.6695 129.628 59.091C129.327 58.515 129.178 57.8988 129.178 57.2398C129.178 56.5833 129.327 55.9696 129.628 55.3986C129.926 54.8302 130.336 54.3271 130.856 53.8895C131.382 53.4543 131.99 53.1122 132.68 52.8632C133.376 52.6167 134.121 52.491 134.918 52.491C135.711 52.491 136.453 52.6167 137.143 52.8632C137.839 53.1122 138.45 53.4543 138.979 53.8895C139.505 54.3271 139.916 54.8302 140.207 55.3986C140.505 55.9696 140.657 56.5833 140.657 57.2398C140.657 57.8988 140.505 58.515 140.207 59.091C139.916 59.6695 139.505 60.1751 138.979 60.6102C138.45 61.0403 137.842 61.3799 137.155 61.6264C136.465 61.8729 135.723 61.9987 134.93 61.9987ZM134.918 54.3221C134.285 54.3221 133.714 54.4529 133.203 54.7145C132.692 54.976 132.285 55.3282 131.987 55.7709C131.695 56.2085 131.549 56.6965 131.549 57.2398C131.549 57.7831 131.695 58.2761 131.987 58.7188C132.285 59.1614 132.692 59.5136 133.203 59.7752C133.714 60.0317 134.288 60.1575 134.93 60.1575C135.553 60.1575 136.121 60.0317 136.632 59.7752C137.143 59.5136 137.547 59.1614 137.848 58.7188C138.146 58.2761 138.298 57.7831 138.298 57.2398C138.298 56.6965 138.143 56.2085 137.836 55.7709C137.535 55.3282 137.131 54.976 136.62 54.7145C136.109 54.4529 135.541 54.3221 134.918 54.3221Z" fill="#F3F7FF"/>
<path d="M153.248 57.9642V52.652H155.558V61.9987L147.666 56.5657V61.8377H145.355V52.481L153.248 57.9642Z" fill="#F3F7FF"/>
<path d="M164.993 61.8376H162.682V54.3824H159.934V52.6519H167.911V54.3824H164.993V61.8376Z" fill="#F3F7FF"/>
<path d="M175.753 60.2479H174.598V61.8376H172.287V52.6519H176.142C176.799 52.6519 177.401 52.7474 177.954 52.9336C178.513 53.1147 179 53.3737 179.413 53.7083C179.833 54.0453 180.161 54.4301 180.398 54.8653C180.632 55.3029 180.751 55.7683 180.751 56.2638C180.751 57.0888 180.526 57.7981 180.082 58.3867C179.635 58.9777 179.024 59.4204 178.246 59.7147L180.641 61.8376H177.577L175.753 60.2479ZM174.598 58.5174H175.546C176.461 58.5174 177.163 58.3414 177.65 57.9842C178.136 57.622 178.38 57.0988 178.38 56.4147C178.38 56.0399 178.288 55.7004 178.112 55.3985C177.933 55.0917 177.665 54.8452 177.309 54.6641C176.96 54.4779 176.522 54.3824 175.996 54.3824H174.598V58.5174Z" fill="#F3F7FF"/>
<path d="M192.264 61.8376H185.381V52.6519H191.279V54.3824H187.691V56.0927H191.862V57.8031H187.691V60.1071H192.264V61.8376Z" fill="#F3F7FF"/>
<path d="M203.838 61.8376H196.955V52.6519H202.853V54.3824H199.266V56.0927H203.437V57.8031H199.266V60.1071H203.838V61.8376Z" fill="#F3F7FF"/>
<path d="M210.84 61.8376H208.529V52.6519H212.311C212.998 52.6519 213.625 52.76 214.184 52.9738C214.749 53.1826 215.242 53.4618 215.655 53.8089C216.069 54.1585 216.388 54.5534 216.616 54.9961C216.841 55.4337 216.957 55.8865 216.957 56.3543C216.957 57.1341 216.75 57.8333 216.336 58.4571C215.929 59.0758 215.367 59.5613 214.646 59.9159C213.923 60.2731 213.096 60.4492 212.165 60.4492H210.84V61.8376ZM210.84 58.7086H212.105C212.64 58.7086 213.093 58.613 213.466 58.4168C213.837 58.2232 214.117 57.9616 214.306 57.6321C214.5 57.3051 214.597 56.9429 214.597 56.5455C214.597 56.1908 214.503 55.8488 214.318 55.5193C214.129 55.1923 213.862 54.9206 213.515 54.7043C213.166 54.4905 212.74 54.3824 212.238 54.3824H210.84V58.7086Z" fill="#F3F7FF"/>
<path d="M229.566 61.8377L228.837 60.6002H223.45L222.744 61.8377H220.361L226.21 52.491L232.084 61.8377H229.566ZM226.125 56.0224L224.459 58.8797H227.815L226.125 56.0224Z" fill="#F3F7FF"/>
<path d="M238.75 57.773C237.783 57.68 237.014 57.4008 236.44 56.9379C235.862 56.4701 235.576 55.8715 235.576 55.1471C235.576 54.7597 235.674 54.4026 235.868 54.0806C236.063 53.7536 236.318 53.4719 236.634 53.2355C236.957 52.994 237.309 52.8104 237.692 52.6821C238.072 52.5564 238.458 52.491 238.847 52.491C239.398 52.491 239.924 52.5865 240.428 52.7727C240.939 52.9613 241.407 53.2632 241.839 53.6782L240.015 54.7748C239.869 54.6415 239.687 54.5334 239.468 54.4529C239.249 54.3674 239.042 54.3221 238.847 54.3221C238.537 54.3221 238.288 54.3975 238.094 54.5434C237.905 54.6843 237.814 54.883 237.814 55.137C237.814 55.3382 237.923 55.5244 238.142 55.6904C238.367 55.8589 238.775 55.9595 239.358 55.9922C239.997 56.0274 240.577 56.1632 241.097 56.4047C241.623 56.6411 242.04 56.9732 242.35 57.4008C242.666 57.8309 242.824 58.3415 242.824 58.93C242.824 59.5211 242.645 60.0518 242.289 60.5197C241.939 60.9825 241.477 61.3447 240.903 61.6063C240.334 61.8679 239.723 61.9987 239.066 61.9987C238.434 61.9987 237.808 61.893 237.194 61.6868C236.576 61.473 236.005 61.1284 235.479 60.6505L237.388 59.4935C237.638 59.755 237.899 59.9336 238.166 60.0267C238.44 60.1147 238.741 60.1575 239.066 60.1575C239.446 60.1575 239.766 60.0518 240.027 59.8355C240.285 59.6142 240.416 59.3576 240.416 59.0608C240.416 58.6936 240.27 58.3968 239.978 58.1755C239.693 57.9541 239.285 57.8208 238.75 57.773Z" fill="#F3F7FF"/>
<path d="M251.689 61.8376H249.378V54.3824H246.63V52.6519H254.607V54.3824H251.689V61.8376Z" fill="#F3F7FF"/>
<path d="M264.272 61.9987C263.476 61.9987 262.731 61.8729 262.035 61.6264C261.336 61.3799 260.725 61.0403 260.199 60.6102C259.679 60.1751 259.268 59.6695 258.97 59.091C258.669 58.515 258.521 57.8988 258.521 57.2398C258.521 56.5833 258.669 55.9696 258.97 55.3986C259.268 54.8302 259.679 54.3271 260.199 53.8895C260.725 53.4543 261.333 53.1122 262.023 52.8632C262.719 52.6167 263.464 52.491 264.26 52.491C265.054 52.491 265.796 52.6167 266.486 52.8632C267.182 53.1122 267.793 53.4543 268.322 53.8895C268.848 54.3271 269.258 54.8302 269.55 55.3986C269.848 55.9696 270 56.5833 270 57.2398C270 57.8988 269.848 58.515 269.55 59.091C269.258 59.6695 268.848 60.1751 268.322 60.6102C267.793 61.0403 267.185 61.3799 266.498 61.6264C265.808 61.8729 265.066 61.9987 264.272 61.9987ZM264.26 54.3221C263.628 54.3221 263.056 54.4529 262.546 54.7145C262.035 54.976 261.628 55.3282 261.33 55.7709C261.038 56.2085 260.892 56.6965 260.892 57.2398C260.892 57.7831 261.038 58.2761 261.33 58.7188C261.628 59.1614 262.035 59.5136 262.546 59.7752C263.056 60.0317 263.631 60.1575 264.272 60.1575C264.896 60.1575 265.464 60.0317 265.975 59.7752C266.486 59.5136 266.89 59.1614 267.191 58.7188C267.489 58.2761 267.641 57.7831 267.641 57.2398C267.641 56.6965 267.486 56.2085 267.179 55.7709C266.878 55.3282 266.474 54.976 265.963 54.7145C265.452 54.4529 264.884 54.3221 264.26 54.3221Z" fill="#F3F7FF"/>
<path d="M138.631 30.5747L137.682 28.9851H130.739L129.814 30.5747H126.738L134.302 18.5015L141.878 30.5747H138.631ZM134.18 23.0591L132.028 26.7515H136.381L134.18 23.0591Z" fill="#28B17E"/>
<path d="M147.861 28.5222H146.366V30.5746H143.374V18.7126H148.36C149.211 18.7126 149.992 18.8334 150.707 19.0748C151.427 19.3113 152.057 19.6433 152.592 20.0709C153.133 20.501 153.555 20.9965 153.856 21.5599C154.163 22.1233 154.319 22.727 154.319 23.3709C154.319 24.4374 154.027 25.3529 153.443 26.1176C152.865 26.8822 152.081 27.4557 151.084 27.838L154.173 30.5746H150.208L147.861 28.5222ZM146.366 26.2886H147.594C148.776 26.2886 149.679 26.0572 150.306 25.5944C150.938 25.1266 151.254 24.4474 151.254 23.5621C151.254 23.0791 151.136 22.644 150.901 22.2541C150.673 21.8592 150.33 21.5398 149.868 21.2983C149.412 21.0569 148.849 20.9361 148.177 20.9361H146.366V26.2886Z" fill="#28B17E"/>
<path d="M162.147 30.5746H159.155V20.9361H155.617V18.7126H165.917V20.9361H162.147V30.5746Z" fill="#28B17E"/>
<path d="M170.883 18.7126V30.5746H167.891V18.7126H170.883Z" fill="#28B17E"/>
<path d="M176.848 30.5746H173.857V18.7126H181.482V20.9361H176.848V23.1496H182.236V25.363H176.848V30.5746Z" fill="#28B17E"/>
<path d="M187.413 18.7126V30.5746H184.422V18.7126H187.413Z" fill="#28B17E"/>
<path d="M201.539 25.3329H204.555C204.458 26.0976 204.193 26.8094 203.764 27.4659C203.342 28.1249 202.798 28.7008 202.135 29.1964C201.469 29.6944 200.712 30.0817 199.861 30.3634C199.016 30.6451 198.122 30.786 197.173 30.786C196.143 30.786 195.182 30.6275 194.291 30.3131C193.398 29.9912 192.616 29.5485 191.944 28.9851C191.27 28.4217 190.744 27.7727 190.364 27.0332C189.98 26.2963 189.792 25.5014 189.792 24.6488C189.792 23.7986 189.98 23.0038 190.364 22.2643C190.744 21.5198 191.27 20.8658 191.944 20.3024C192.616 19.739 193.398 19.3013 194.291 18.9844C195.182 18.6624 196.134 18.5015 197.149 18.5015C198.487 18.5015 199.715 18.7681 200.834 19.2963C201.959 19.8195 202.843 20.5187 203.485 21.389L201.15 22.7573C200.639 22.1209 200.031 21.6455 199.326 21.3286C198.627 21.0142 197.909 20.8557 197.173 20.8557C196.371 20.8557 195.641 21.0268 194.985 21.3689C194.334 21.7109 193.817 22.1712 193.428 22.7472C193.045 23.3182 192.856 23.952 192.856 24.6488C192.856 25.3405 193.045 25.9743 193.428 26.5503C193.817 27.1213 194.334 27.574 194.985 27.9085C195.641 28.2456 196.371 28.4116 197.173 28.4116C197.885 28.4116 198.548 28.2808 199.156 28.0192C199.77 27.7526 200.29 27.3854 200.712 26.9226C201.132 26.4598 201.408 25.9315 201.539 25.3329Z" fill="#28B17E"/>
<path d="M209.929 18.7126V30.5746H206.938V18.7126H209.929Z" fill="#28B17E"/>
<path d="M223.326 30.5747L222.377 28.9851H215.433L214.509 30.5747H211.433L218.996 18.5015L226.573 30.5747H223.326ZM218.875 23.0591L216.722 26.7515H221.076L218.875 23.0591Z" fill="#28B17E"/>
<path d="M228.067 18.7126H231.059V28.3411H236.835V30.5746H228.067V18.7126Z" fill="#28B17E"/>
<path d="M114.565 32.7175V44.5795H111.574V32.7175H114.565Z" fill="#28B17E"/>
<path d="M127.742 39.5791V32.7174H130.734V44.7907L120.531 37.758V44.5794H117.54V32.4961L127.742 39.5791Z" fill="#28B17E"/>
<path d="M139.237 44.5795H136.246V34.941H132.707V32.7175H143.007V34.941H139.237V44.5795Z" fill="#28B17E"/>
<path d="M153.883 44.5795H144.981V32.7175H152.606V34.941H147.973V37.1544H153.36V39.3679H147.973V42.3459H153.883V44.5795Z" fill="#28B17E"/>
<path d="M156.259 32.7175H159.25V42.3459H165.027V44.5795H156.259V32.7175Z" fill="#28B17E"/>
<path d="M166.92 32.7175H169.912V42.3459H175.688V44.5795H166.92V32.7175Z" fill="#28B17E"/>
<path d="M180.574 32.7175V44.5795H177.582V32.7175H180.574Z" fill="#28B17E"/>
<path d="M197.763 38.1V38.4622C197.763 39.335 197.569 40.1525 197.18 40.9171C196.796 41.6818 196.267 42.3559 195.586 42.9394C194.906 43.5229 194.115 43.9807 193.215 44.3077C192.315 44.6297 191.355 44.7906 190.333 44.7906C189.303 44.7906 188.342 44.6322 187.451 44.3178C186.557 43.9958 185.776 43.5531 185.104 42.9897C184.429 42.4263 183.903 41.7774 183.523 41.0379C183.14 40.3009 182.952 39.5061 182.952 38.6534C182.952 37.8032 183.14 37.0084 183.523 36.2689C183.903 35.5244 184.429 34.8704 185.104 34.307C185.776 33.7436 186.557 33.306 187.451 32.989C188.342 32.6671 189.293 32.5061 190.309 32.5061C191.646 32.5061 192.875 32.7727 193.993 33.3009C195.118 33.8241 196.003 34.5233 196.644 35.3936L194.261 36.8223C193.887 36.2388 193.349 35.7659 192.644 35.4037C191.944 35.0415 191.175 34.8604 190.333 34.8604C189.531 34.8604 188.801 35.0314 188.144 35.3735C187.494 35.7156 186.977 36.1759 186.588 36.7519C186.205 37.3228 186.016 37.9567 186.016 38.6534C186.016 39.3451 186.205 39.9789 186.588 40.5549C186.977 41.1259 187.494 41.5786 188.144 41.9132C188.801 42.2502 189.531 42.4162 190.333 42.4162C191.2 42.4162 191.993 42.2351 192.717 41.8729C193.446 41.5107 193.972 40.985 194.297 40.2934H190.406V38.1H197.763Z" fill="#28B17E"/>
<path d="M208.999 44.5795H200.098V32.7175H207.722V34.941H203.089V37.1544H208.476V39.3679H203.089V42.3459H208.999V44.5795Z" fill="#28B17E"/>
<path d="M221.578 39.5791V32.7174H224.569V44.7907L214.367 37.758V44.5794H211.375V32.4961L221.578 39.5791Z" fill="#28B17E"/>
<path d="M238.691 39.3376H241.707C241.61 40.1022 241.345 40.814 240.917 41.4705C240.494 42.1295 239.95 42.7055 239.287 43.201C238.622 43.699 237.865 44.0864 237.013 44.3681C236.168 44.6498 235.274 44.7906 234.326 44.7906C233.295 44.7906 232.335 44.6322 231.444 44.3178C230.55 43.9958 229.769 43.5531 229.097 42.9897C228.422 42.4263 227.896 41.7774 227.516 41.0379C227.133 40.3009 226.944 39.5061 226.944 38.6534C226.944 37.8032 227.133 37.0084 227.516 36.2689C227.896 35.5244 228.422 34.8704 229.097 34.307C229.769 33.7436 230.55 33.306 231.444 32.989C232.335 32.6671 233.286 32.5061 234.301 32.5061C235.639 32.5061 236.867 32.7727 237.986 33.3009C239.111 33.8241 239.996 34.5233 240.637 35.3936L238.302 36.7619C237.792 36.1256 237.184 35.6502 236.478 35.3333C235.779 35.0188 235.062 34.8604 234.326 34.8604C233.523 34.8604 232.794 35.0314 232.137 35.3735C231.486 35.7156 230.969 36.1759 230.58 36.7519C230.197 37.3228 230.009 37.9567 230.009 38.6534C230.009 39.3451 230.197 39.9789 230.58 40.5549C230.969 41.1259 231.486 41.5786 232.137 41.9132C232.794 42.2502 233.523 42.4162 234.326 42.4162C235.037 42.4162 235.7 42.2854 236.308 42.0239C236.922 41.7572 237.442 41.39 237.865 40.9272C238.284 40.4644 238.561 39.9362 238.691 39.3376Z" fill="#28B17E"/>
<path d="M252.991 44.5795H244.09V32.7175H251.715V34.941H247.081V37.1544H252.468V39.3679H247.081V42.3459H252.991V44.5795Z" fill="#28B17E"/>
</svg>
